<svg xmlns="http://www.w3.org/2000/svg" width="344" height="200" fill="none"><g stroke-width=".5" clip-path="url(#a)"><path stroke="url(#b)" d="M406.463 160.144c0 115.266-93.441 208.707-208.707 208.707-115.266 0-208.707-93.441-208.707-208.707 0-2.52 1.253-5.295 3.722-8.235 2.468-2.937 6.13-6.015 10.899-9.134 9.537-6.236 23.466-12.613 41.01-18.344 35.089-11.461 84.603-20.325 142.281-20.325 57.673 0 112.587 10.598 153.08 22.929 20.247 6.165 36.882 12.762 48.451 18.681 5.785 2.96 10.295 5.746 13.355 8.219 1.53 1.236 2.69 2.388 3.465 3.438.777 1.053 1.151 1.98 1.151 2.771Z"/><path stroke="url(#c)" d="M411.557 175.862c-8.563 114.948-108.688 201.189-223.636 192.625C72.974 359.924-13.267 259.799-4.704 144.852c.188-2.513 1.644-5.188 4.325-7.936 2.678-2.746 6.559-5.543 11.546-8.299 9.975-5.511 24.339-10.835 42.261-15.247 35.843-8.822 85.879-13.983 143.397-9.697 57.514 4.284 111.488 18.932 150.953 34.237 19.733 7.653 35.832 15.468 46.929 22.23 5.55 3.381 9.841 6.495 12.708 9.188 1.434 1.346 2.505 2.581 3.2 3.686.697 1.108 1.001 2.059.942 2.848Z"/><path stroke="url(#d)" d="M415.183 190.534C398.826 304.633 293.07 383.868 178.97 367.511 64.871 351.153-14.364 245.397 1.993 131.298c.358-2.494 1.993-5.064 4.854-7.624 2.86-2.557 6.92-5.084 12.084-7.494 10.326-4.82 25.019-9.156 43.2-12.339 36.359-6.365 86.63-8.113 143.724.072 57.09 8.185 109.943 26.468 148.277 44.42 19.167 8.977 34.697 17.868 45.309 25.369 5.307 3.751 9.376 7.149 12.054 10.03 1.339 1.441 2.324 2.746 2.942 3.895.62 1.153.859 2.123.746 2.907Z"/><path stroke="url(#e)" d="M417.695 204.662C394.009 317.468 283.36 389.714 170.554 366.028 57.748 342.342-14.498 231.693 9.189 118.887c.517-2.466 2.315-4.925 5.335-7.294 3.018-2.368 7.235-4.627 12.543-6.699 10.615-4.144 25.557-7.523 43.905-9.526 36.695-4.006 86.974-2.505 143.421 9.347 56.442 11.851 108.006 33.507 145.101 53.896 18.548 10.194 33.472 20.069 43.578 28.239 5.054 4.086 8.895 7.739 11.381 10.787 1.244 1.525 2.142 2.891 2.685 4.077.544 1.19.72 2.174.557 2.948Z"/><path stroke="url(#f)" d="M419.218 218.04c-30.475 111.164-145.297 176.575-256.461 146.099-111.164-30.475-176.575-145.297-146.1-256.461.667-2.43 2.61-4.775 5.768-6.958 3.156-2.18 7.502-4.18 12.925-5.927 10.847-3.493 25.966-5.96 44.403-6.848 36.869-1.776 86.965 2.767 142.59 18.017 55.621 15.248 105.779 39.987 141.57 62.585 17.897 11.3 32.196 22.06 41.788 30.827 4.797 4.385 8.41 8.264 10.707 11.458 1.149 1.597 1.963 3.014 2.433 4.232.471 1.221.586 2.213.377 2.976Z"/><path stroke="url(#g)" d="M419.966 233.575c-38.178 108.76-157.294 165.978-266.054 127.801-108.76-38.178-165.978-157.294-127.8-266.053.834-2.378 2.936-4.582 6.24-6.538 3.3-1.954 7.775-3.645 13.308-5.008 11.064-2.726 26.32-4.13 44.772-3.726 36.904.808 86.559 8.844 140.981 27.948 54.418 19.102 102.722 47.289 136.846 72.336 17.061 12.523 30.573 24.258 39.528 33.675 4.479 4.709 7.811 8.831 9.879 12.178 1.035 1.673 1.747 3.144 2.131 4.391.385 1.251.431 2.25.169 2.996Z"/><path stroke="url(#h)" d="M419.71 247.506c-44.916 106.154-167.383 155.797-273.538 110.88C40.018 313.47-9.624 191.003 35.292 84.848c.982-2.32 3.218-4.388 6.638-6.133 3.416-1.743 7.988-3.15 13.596-4.165 11.213-2.027 26.526-2.472 44.918-.913 36.78 3.119 85.834 14.25 138.952 36.726 53.115 22.474 99.558 53.632 132.045 80.768 16.243 13.568 28.993 26.126 37.341 36.085 4.174 4.981 7.242 9.304 9.097 12.773.927 1.735 1.546 3.248 1.851 4.517.306 1.273.289 2.272-.02 3Z"/><path stroke="url(#i)" d="M418.107 265.302c-53.3 102.203-179.359 141.846-281.562 88.546C34.343 300.548-5.301 174.489 47.999 72.286c1.165-2.234 3.56-4.115 7.11-5.58 3.545-1.463 8.215-2.499 13.886-3.059 11.34-1.12 26.639-.333 44.846 2.699 36.41 6.063 84.412 21.1 135.553 47.77 51.137 26.669 94.927 61.457 125.128 91.115 15.102 14.829 26.801 28.371 34.322 38.968 3.761 5.3 6.472 9.856 8.041 13.463.785 1.804 1.281 3.362 1.483 4.651.202 1.293.105 2.288-.261 2.989Z"/><path stroke="url(#j)" d="M415.027 283.155c-61.448 97.521-190.318 126.764-287.839 65.316C29.668 287.023.424 158.153 61.872 60.632c1.343-2.131 3.884-3.811 7.54-4.982 3.653-1.17 8.392-1.822 14.09-1.918 11.393-.192 26.578 1.838 44.477 6.343 35.796 9.009 82.413 27.906 131.211 58.654 48.795 30.745 89.605 68.985 117.291 101.005 13.843 16.01 24.4 30.459 31.033 41.634 3.317 5.589 5.647 10.35 6.918 14.073.635 1.862 1.002 3.455 1.098 4.756.097 1.306-.081 2.289-.503 2.958Z"/><path stroke="url(#k)" d="M411.196 298.355c-68.17 92.947-198.78 113.034-291.727 44.864C26.522 275.05 6.435 144.44 74.604 51.492c1.49-2.031 4.143-3.528 7.873-4.438 3.726-.91 8.5-1.226 14.19-.92 11.378.611 26.382 3.707 43.919 9.462 35.072 11.51 80.24 33.645 126.75 67.757 46.507 34.108 84.52 75.13 109.88 109.021 12.68 16.946 22.192 32.104 28.02 43.719 2.915 5.808 4.904 10.722 5.909 14.525.503 1.902.757 3.517.761 4.822.004 1.309-.243 2.277-.71 2.915Z"/><path stroke="url(#l)" d="M406.121 313.741c-74.76 87.733-206.487 98.249-294.221 23.489-87.733-74.76-98.25-206.487-23.489-294.22 1.634-1.918 4.388-3.218 8.175-3.854 3.783-.635 8.566-.603 14.219.117 11.304 1.438 26.042 5.619 43.113 12.637 34.14 14.034 77.576 39.402 121.477 76.811 43.897 37.407 78.821 81.089 101.644 116.738 11.411 17.825 19.794 33.636 24.761 45.644 2.483 6.006 4.109 11.051 4.834 14.918.363 1.933.499 3.562.408 4.864-.091 1.306-.408 2.253-.921 2.856Z"/><path stroke="url(#m)" d="M400.3 327.919c-80.629 82.373-212.768 83.785-295.14 3.156-82.372-80.629-83.785-212.768-3.155-295.14 1.762-1.8 4.599-2.907 8.42-3.28 3.818-.373 8.588-.011 14.177 1.096 11.179 2.214 25.593 7.4 42.14 15.578 33.092 16.354 74.676 44.655 115.894 85.002 41.215 40.343 73.045 86.328 93.357 123.465 10.156 18.569 17.429 34.92 21.556 47.242 2.064 6.162 3.338 11.308 3.795 15.215.229 1.954.252 3.589.071 4.881-.18 1.297-.562 2.22-1.115 2.785Z"/><path stroke="url(#n)" d="M393.769 341.188C307.84 418.014 175.9 410.635 99.073 324.705c-76.826-85.93-69.446-217.87 16.483-294.696 1.879-1.68 4.783-2.595 8.621-2.713 3.834-.119 8.569.56 14.073 2.036 11.006 2.953 25.043 9.087 41.01 18.347 31.93 18.52 71.54 49.524 109.983 92.522 38.44 42.995 67.141 90.996 84.937 129.402 8.899 19.203 15.068 36.002 18.367 48.571 1.649 6.286 2.578 11.505 2.774 15.434.098 1.965.013 3.597-.253 4.875-.267 1.281-.709 2.177-1.299 2.705Z"/><path stroke="url(#o)" d="M387.009 352.962c-90.461 71.436-221.704 56.012-293.14-34.449-71.435-90.461-56.011-221.704 34.45-293.139 1.977-1.561 4.932-2.298 8.77-2.182 3.834.116 8.519 1.083 13.922 2.892 10.805 3.62 24.442 10.6 39.813 20.817 30.74 20.435 68.383 53.801 104.128 99.066 35.743 45.263 61.459 94.926 76.876 134.347 7.71 19.711 12.842 36.855 15.366 49.603 1.263 6.375 1.871 11.641 1.827 15.574-.022 1.967-.207 3.592-.551 4.85-.344 1.263-.84 2.131-1.461 2.621Z"/><path stroke="url(#p)" d="M328.734 364.772c-94.623 65.823-224.69 42.476-290.513-52.147-65.823-94.623-42.477-224.69 52.146-290.513 2.069-1.44 5.063-1.995 8.887-1.647 3.82.348 8.437 1.597 13.721 3.73 10.566 4.268 23.755 12.061 38.479 23.192 29.445 22.26 64.997 57.844 97.934 105.193 32.935 47.345 55.594 98.475 68.595 138.758 6.501 20.142 10.585 37.565 12.332 50.442.874 6.44 1.162 11.733.88 15.657-.141 1.962-.425 3.572-.844 4.808-.42 1.239-.967 2.075-1.617 2.527Z"/><path stroke="url(#q)" d="M320.747 375.448c-98.4 60.031-226.833 28.927-286.864-69.472-60.03-98.4-28.927-226.833 69.473-286.864 2.151-1.313 5.173-1.688 8.969-1.111 3.792.576 8.327 2.1 13.473 4.547 10.291 4.893 22.989 13.463 37.019 25.456 28.057 23.985 61.411 61.638 91.45 110.876 30.037 49.235 49.589 101.632 60.152 142.622 5.281 20.495 8.313 38.132 9.285 51.091.486 6.48.457 11.781-.061 15.681-.258 1.95-.638 3.54-1.13 4.749-.494 1.212-1.09 2.013-1.766 2.425Z"/><path stroke="url(#r)" d="M313.695 383.87c-101.246 55.095-227.986 17.682-283.08-83.564-55.096-101.246-17.683-227.985 83.563-283.08 2.213-1.204 5.251-1.43 9.013-.666 3.759.763 8.213 2.509 13.232 5.207 10.036 5.396 22.296 14.583 35.716 27.255 26.838 25.342 58.29 64.597 85.859 115.259 27.567 50.659 44.506 103.958 53.03 145.42 4.262 20.731 6.419 38.497 6.75 51.487.165 6.497-.127 11.79-.836 15.66-.355 1.935-.812 3.504-1.364 4.687-.553 1.186-1.188 1.957-1.883 2.335Z"/><path stroke="url(#s)" d="M307.132 391.009c-103.553 50.627-228.54 7.722-279.167-95.831-50.626-103.553-7.72-228.54 95.832-279.166 2.264-1.107 5.308-1.2 9.033-.273 3.723.927 8.096 2.865 12.992 5.78 9.792 5.828 21.639 15.54 34.493 28.786 25.708 26.489 55.418 67.078 80.751 118.895 25.331 51.813 39.929 105.801 46.637 147.595 3.353 20.897 4.733 38.74 4.497 51.732-.118 6.498-.641 11.774-1.518 15.608-.439 1.918-.964 3.466-1.567 4.623-.604 1.161-1.273 1.904-1.983 2.251Z"/><path stroke="url(#t)" d="M299.943 398.154c-105.754 45.851-228.654-2.71-274.505-108.464s2.71-228.654 108.464-274.505c2.311-1.002 5.356-.956 9.036.14 3.676 1.095 7.957 3.23 12.715 6.366 9.516 6.269 20.907 16.512 33.144 30.33 24.473 27.633 52.301 69.535 75.244 122.454 22.942 52.914 35.063 107.511 39.857 149.567 2.397 21.029 2.961 38.916 2.133 51.884-.414 6.486-1.177 11.732-2.228 15.523-.526 1.896-1.121 3.418-1.776 4.547-.657 1.132-1.358 1.843-2.084 2.158Z"/><path stroke="url(#u)" d="M292.305 405.083C184.539 445.98 64.023 391.771 23.125 284.005-17.77 176.238 36.438 55.723 144.205 14.825c2.355-.893 5.395-.706 9.02.56 3.621 1.264 7.798 3.596 12.406 6.948 9.215 6.704 20.119 17.464 31.702 31.834 23.164 28.739 49.019 71.887 69.484 125.812 20.463 53.921 30.039 109.022 32.877 151.255 1.419 21.118 1.154 39.011-.275 51.928-.715 6.459-1.72 11.664-2.946 15.402-.613 1.869-1.278 3.362-1.985 4.459-.708 1.101-1.442 1.779-2.182 2.06Z"/><path stroke="url(#v)" d="M281.212 414.071C171.041 447.962 54.256 386.125 20.365 275.954-13.525 165.783 48.312 48.998 158.483 15.107c2.408-.74 5.429-.359 8.965 1.137 3.533 1.495 7.551 4.09 11.934 7.731 8.765 7.282 18.956 18.72 29.592 33.805 21.271 30.167 44.301 74.887 61.26 130.015 16.957 55.124 22.974 110.726 23.094 153.055.06 21.165-1.355 39.004-3.61 51.802-1.128 6.4-2.465 11.53-3.929 15.181-.732 1.826-1.492 3.274-2.267 4.323-.778 1.053-1.554 1.683-2.31 1.915Z"/><path stroke="url(#w)" d="M269.542 422.349C157.418 449.081 44.854 379.857 18.123 267.733-8.608 155.61 60.616 43.046 172.74 16.315c2.451-.585 5.442-.009 8.874 1.711 3.429 1.72 7.273 4.568 11.412 8.483 8.279 7.831 17.712 19.901 27.355 35.64 19.286 31.473 39.391 77.582 52.767 133.687 13.375 56.101 15.801 111.975 13.197 154.224-1.302 21.124-3.861 38.836-6.936 51.462-1.537 6.314-3.202 11.347-4.897 14.897-.848 1.775-1.7 3.171-2.541 4.168-.844 1.001-1.659 1.579-2.428 1.762Z"/><path stroke="url(#x)" d="M261.606 427.366C148.454 449.338 38.914 375.422 16.942 262.27-5.03 149.118 68.886 39.578 182.038 17.606c2.473-.48 5.437.22 8.794 2.085 3.353 1.862 7.073 4.87 11.043 8.957 7.94 8.173 16.856 20.631 25.826 36.762 17.939 32.26 36.078 79.177 47.073 135.797 10.994 56.616 11.059 112.543 6.672 154.644-2.193 21.051-5.498 38.638-9.103 51.123-1.803 6.244-3.678 11.202-5.522 14.677-.922 1.738-1.832 3.096-2.715 4.057-.885.964-1.724 1.508-2.5 1.658Z"/><path stroke="url(#y)" d="M251.858 432.908C137.741 449.144 32.07 369.796 15.834 255.68-.402 141.563 78.946 35.891 193.062 19.655c2.495-.355 5.419.495 8.678 2.526 3.255 2.03 6.818 5.221 10.577 9.503 7.518 8.564 15.794 21.456 23.938 38.019 16.289 33.124 32.039 80.896 40.163 137.998 8.124 57.099 5.367 112.957-1.137 154.783-3.252 20.914-7.441 38.313-11.671 50.6-2.115 6.145-4.238 11.002-6.255 14.379-1.009 1.69-1.986 3-2.916 3.915-.933.918-1.798 1.419-2.581 1.53Z"/><path stroke="url(#z)" d="M239.889 438.868C125.003 448.212 24.294 362.653 14.95 247.767 5.606 132.88 91.165 32.172 206.052 22.827c2.511-.204 5.379.82 8.509 3.044 3.128 2.22 6.492 5.621 9.987 10.122 6.99 9 14.475 22.366 21.609 39.389 14.267 34.043 27.116 82.676 31.791 140.164 4.676 57.484-1.435 113.075-10.443 154.435-4.504 20.68-9.731 37.795-14.693 49.806-2.481 6.006-4.892 10.727-7.109 13.977-1.108 1.625-2.162 2.875-3.146 3.732-.986.861-1.879 1.308-2.668 1.372Z"/><path stroke="url(#A)" d="M228.938 443.56c-115.222 3.173-211.2-87.661-214.373-202.883-3.173-115.222 87.66-211.2 202.882-214.374 2.519-.07 5.328 1.107 8.335 3.495 3.004 2.385 6.181 5.961 9.43 10.643 6.497 9.361 13.255 23.11 19.466 40.49 12.422 34.76 22.646 84.011 24.234 141.667 1.587 57.652-7.494 112.836-18.706 153.653-5.606 20.409-11.743 37.219-17.341 48.947-2.799 5.865-5.46 10.45-7.848 13.576-1.193 1.564-2.313 2.755-3.341 3.559-1.031.806-1.947 1.205-2.738 1.227Z"/><path stroke="url(#B)" d="M216.18 448.184C100.979 444.32 10.723 347.798 14.588 232.597 18.453 117.396 114.975 27.14 230.176 31.005c2.518.084 5.25 1.43 8.105 3.997 2.853 2.564 5.806 6.327 8.763 11.198 5.914 9.74 11.82 23.876 16.959 41.603 10.278 35.453 17.477 85.236 15.543 142.882-1.934 57.641-14.366 112.168-28.048 152.225-6.841 20.028-13.992 36.433-20.296 47.797-3.152 5.683-6.088 10.097-8.661 13.072-1.287 1.488-2.478 2.608-3.553 3.348-1.078.742-2.017 1.084-2.808 1.057Z"/><path stroke="url(#C)" d="M202.737 452.131C88.009 441.014 4.014 338.997 15.131 224.268 26.247 109.54 128.264 25.546 242.993 36.662c2.508.243 5.15 1.758 7.837 4.5 2.686 2.738 5.396 6.68 8.04 11.728 5.288 10.094 10.292 24.573 14.304 42.589 8.024 36.03 12.071 86.168 6.508 143.577-5.562 57.404-21.405 111.04-37.584 150.155-8.09 19.558-16.26 35.479-23.267 46.423-3.504 5.473-6.712 9.694-9.468 12.501-1.379 1.403-2.637 2.447-3.757 3.117-1.123.672-2.081.955-2.869.879Z"/><path stroke="url(#D)" d="M188.916 455.255C75.129 436.85-2.193 329.687 16.212 215.9 34.618 102.113 141.781 24.791 255.568 43.196c2.487.403 5.027 2.083 7.535 4.99 2.505 2.905 4.959 7.011 7.276 12.217 4.633 10.41 8.705 25.18 11.56 43.415 5.711 36.467 6.555 86.761-2.655 143.699-9.209 56.934-28.439 109.45-47.078 147.455-9.319 19.002-18.488 34.371-26.178 44.846-3.846 5.239-7.316 9.246-10.246 11.872-1.465 1.313-2.787 2.274-3.947 2.871-1.164.6-2.138.82-2.919.694Z"/><path stroke="url(#E)" d="M175.151 457.456C62.741 431.953-7.709 320.152 17.795 207.743 43.3 95.334 155.1 24.883 267.508 50.388c2.457.557 4.887 2.394 7.207 5.452 2.319 3.056 4.51 7.308 6.496 12.65 3.972 10.68 7.109 25.675 8.816 44.053 3.413 36.754 1.101 87.002-11.661 143.251-12.761 56.244-35.245 107.451-56.23 144.212-10.493 18.381-20.607 33.144-28.939 43.117-4.167 4.987-7.882 8.769-10.97 11.205-1.544 1.219-2.924 2.095-4.12 2.619-1.198.525-2.185.684-2.956.509Z"/><path stroke="url(#F)" d="M161.015 458.816C50.465 426.185-12.702 310.113 19.929 199.563 52.56 89.012 168.632 25.846 279.182 58.477c2.417.713 4.724 2.7 6.844 5.901 2.119 3.198 4.034 7.582 5.675 13.038 3.282 10.913 5.455 26.077 5.984 44.527 1.059 36.897-4.457 86.895-20.785 142.214-16.327 55.314-42.037 104.981-65.326 140.326-11.646 17.674-22.682 31.761-31.634 41.181-4.477 4.711-8.425 8.247-11.663 10.482-1.619 1.117-3.052 1.904-4.279 2.35-1.229.448-2.224.544-2.983.32Z"/><path stroke="url(#G)" d="M145.638 459.261C37.61 419.061-17.375 298.897 22.825 190.869 63.026 82.841 183.19 27.856 291.218 68.056c2.361.88 4.525 3.022 6.419 6.362 1.892 3.336 3.5 7.842 4.759 13.399 2.519 11.113 3.638 26.392 2.89 44.834-1.497 36.882-10.458 86.378-30.574 140.435-20.115 54.052-49.199 101.821-74.878 135.471-12.84 16.825-24.824 30.115-34.406 38.893-4.792 4.39-8.976 7.645-12.361 9.65-1.692 1.003-3.176 1.688-4.431 2.049-1.258.361-2.256.388-2.998.112Z"/><path stroke="url(#H)" d="M133.601 458.865C27.91 412.871-20.485 289.905 25.509 184.213 71.503 78.521 194.468 30.127 300.16 76.121c2.311 1.005 4.356 3.262 6.066 6.7 1.708 3.433 3.069 8.02 4.026 13.637 1.913 11.233 2.203 26.55.456 44.925-3.492 36.746-15.122 85.685-38.137 138.572-23.013 52.883-54.642 99.007-82.106 131.216-13.733 16.105-26.42 28.726-36.463 36.972-5.023 4.124-9.377 7.147-12.865 8.966-1.745.91-3.264 1.514-4.536 1.806-1.275.293-2.274.265-3-.05Z"/><path stroke="url(#I)" d="M120.104 457.647c-102.691-52.351-143.5-178.038-91.15-280.729 52.352-102.692 178.039-143.501 280.73-91.15 2.245 1.144 4.149 3.521 5.646 7.057 1.496 3.531 2.575 8.192 3.188 13.857 1.224 11.329.58 26.635-2.283 44.869-5.726 36.466-20.318 84.604-46.513 135.99-26.194 51.382-60.576 95.492-89.953 125.967-14.688 15.238-28.121 27.062-38.649 34.681-5.264 3.81-9.795 6.563-13.387 8.165-1.797.802-3.35 1.312-4.637 1.526-1.291.215-2.287.126-2.992-.233Z"/><path stroke="url(#J)" d="M106.94 455.644C7.568 397.237-25.64 269.332 32.766 169.96 91.173 70.588 219.078 37.378 318.45 95.785c2.172 1.277 3.93 3.764 5.213 7.383 1.282 3.615 2.08 8.331 2.352 14.023.544 11.382-1.016 26.622-4.966 44.652-7.899 36.057-25.347 83.235-54.573 132.96-29.224 49.721-66.185 91.693-97.334 120.354-15.575 14.331-29.692 25.33-40.657 32.304-5.483 3.488-10.171 5.965-13.853 7.35-1.841.692-3.422 1.108-4.719 1.245-1.302.137-2.29-.011-2.973-.412Z"/><path stroke="url(#K)" d="M92.551 452.519C-2.735 387.66-27.401 257.836 37.458 162.55c64.86-95.287 194.683-119.953 289.97-55.093 2.083 1.418 3.672 4.016 4.712 7.711 1.04 3.692 1.524 8.452 1.418 14.149-.21 11.393-2.776 26.496-7.912 44.225-10.269 35.455-30.803 81.374-63.258 129.054-32.453 47.677-72.113 87.109-105.091 113.644-16.49 13.268-31.304 23.308-42.707 29.541-5.702 3.117-10.543 5.278-14.309 6.416-1.883.569-3.488.879-4.792.929-1.308.051-2.284-.162-2.938-.607Z"/><path stroke="url(#L)" d="M79.06 448.659c-91.003-70.744-107.427-201.865-36.683-292.868 70.744-91.003 201.866-107.426 292.869-36.682 1.989 1.546 3.411 4.239 4.216 7.993.805 3.751.987 8.531.523 14.21-.93 11.357-4.444 26.268-10.688 43.637-12.487 34.736-35.878 79.268-71.277 124.805-35.397 45.533-77.467 82.384-112.054 106.785-17.294 12.201-32.713 21.286-44.486 26.787-5.888 2.751-10.855 4.601-14.685 5.499-1.916.45-3.537.658-4.841.626-1.309-.032-2.27-.306-2.895-.792Z"/><path stroke="url(#M)" d="M64.72 443.515c-85.942-76.812-93.343-208.75-16.531-294.693C125.001 62.88 256.94 55.478 342.882 132.29c1.879 1.679 3.113 4.464 3.659 8.264.546 3.797.401 8.578-.452 14.212-1.705 11.267-6.233 25.902-13.652 42.803-14.837 33.799-41.224 76.623-79.66 119.628-38.433 43.001-82.928 76.883-119.107 98.857-18.089 10.988-34.093 18.995-46.216 23.676-6.062 2.341-11.145 3.847-15.027 4.481-1.942.317-3.574.414-4.873.293-1.303-.122-2.243-.461-2.833-.989Z"/><path stroke="url(#N)" d="M48.869 436.479c-79.69-83.281-76.78-215.395 6.5-295.085 83.282-79.69 215.396-76.78 295.086 6.501 1.742 1.82 2.755 4.692 3.003 8.524.248 3.827-.269 8.583-1.559 14.133-2.579 11.1-8.234 25.337-16.948 41.608-17.428 32.539-47.075 73.175-88.748 113.051-41.669 39.873-88.671 70.182-126.453 89.268-18.891 9.543-35.471 16.277-47.922 19.999-6.227 1.861-11.411 2.966-15.331 3.295-1.96.165-3.595.134-4.88-.088-1.29-.223-2.201-.635-2.748-1.206Z"/><path stroke="url(#O)" d="M35.129 429.12c-73.657-88.662-61.493-220.247 27.169-293.903 88.662-73.657 220.247-61.493 293.903 27.169 1.61 1.938 2.42 4.874 2.399 8.714-.021 3.835-.871 8.543-2.546 13.989-3.351 10.892-9.99 24.698-19.824 40.317-19.665 31.238-52.087 69.696-96.453 106.553-44.362 36.854-93.373 63.793-132.4 80.184-19.513 8.195-36.525 13.751-49.205 16.591-6.342 1.42-11.592 2.159-15.525 2.212-1.967.027-3.595-.118-4.862-.43-1.271-.313-2.15-.787-2.656-1.396Z"/><path stroke="url(#P)" d="M70.56 418.708C4.455 324.282 27.413 194.146 121.84 128.04c94.426-66.105 224.562-43.146 290.667 51.28 1.445 2.064 2.01 5.057 1.673 8.881-.336 3.821-1.571 8.443-3.689 13.733-4.236 10.578-11.99 23.791-23.076 38.548-22.172 29.511-57.651 65.169-104.901 98.247-47.246 33.076-98.309 55.888-138.552 69.009-20.123 6.561-37.534 10.697-50.406 12.483-6.437.893-11.73 1.197-15.654.926-1.962-.135-3.573-.414-4.81-.829-1.24-.417-2.078-.962-2.532-1.61Z"/><path stroke="url(#Q)" d="M53.459 405.491C-3.161 305.09 32.33 177.8 132.733 121.18c100.401-56.62 227.692-21.128 284.311 79.274 1.238 2.194 1.51 5.228.803 9.001-.707 3.77-2.385 8.25-5.007 13.309-5.243 10.117-14.244 22.514-26.711 36.124-24.934 27.218-63.709 59.261-113.949 87.593-50.235 28.33-103.273 46.073-144.601 55.223-20.664 4.575-38.395 7-51.38 7.527-6.493.263-11.79.052-15.67-.599-1.94-.325-3.516-.759-4.706-1.292-1.195-.536-1.976-1.159-2.364-1.849Z"/><path stroke="url(#R)" d="M37.643 390.59C-8.9 285.139 38.853 161.923 144.305 115.38c105.451-46.543 228.667 1.211 275.21 106.662 1.018 2.305.992 5.35-.08 9.037-1.072 3.683-3.179 7.978-6.283 12.756-6.206 9.557-16.374 21.015-30.112 33.343-27.472 24.653-69.191 52.755-121.958 76.045-52.763 23.288-107.279 35.766-149.303 40.836-21.013 2.535-38.895 3.217-51.87 2.473-6.487-.372-11.738-1.099-15.536-2.126-1.899-.513-3.425-1.099-4.558-1.746-1.137-.649-1.853-1.346-2.172-2.07Z"/><path stroke="url(#S)" d="M26.212 377.756c-38.255-108.733 18.879-227.889 127.611-266.144 108.733-38.255 227.89 18.878 266.145 127.61.836 2.377.575 5.411-.779 9.004-1.353 3.59-3.786 7.708-7.249 12.233-6.927 9.048-17.95 19.687-32.599 30.916-29.295 22.456-73.061 47.25-127.47 66.393-54.404 19.141-109.722 27.369-152.013 29.176-21.145.903-39.027.201-51.905-1.543-6.44-.872-11.619-2.003-15.325-3.32-1.854-.659-3.33-1.36-4.41-2.093-1.083-.735-1.743-1.486-2.006-2.232Z"/><path stroke="url(#T)" d="M16.802 365.478c-30.6-111.13 34.683-226.024 145.813-256.624 111.13-30.6 226.025 34.683 256.624 145.813.669 2.429.198 5.438-1.403 8.928-1.599 3.486-4.312 7.426-8.082 11.699-7.539 8.544-19.276 18.39-34.67 28.573-30.786 20.364-76.171 42.055-131.779 57.366-55.604 15.311-111.361 19.672-153.674 18.533-21.157-.569-38.947-2.514-51.672-5.149-6.364-1.318-11.452-2.807-15.058-4.378-1.803-.786-3.227-1.589-4.253-2.395-1.03-.809-1.636-1.603-1.846-2.366Z"/><path stroke="url(#U)" d="M7.128 350.701C-14.55 237.492 59.653 128.146 172.862 106.469c113.21-21.676 222.556 52.526 244.233 165.735.473 2.475-.236 5.436-2.108 8.788-1.871 3.349-4.889 7.06-8.986 11.02-8.194 7.919-20.676 16.802-36.83 25.73-32.307 17.854-79.271 35.871-135.919 46.718-56.645 10.846-112.571 10.765-154.66 6.269-21.046-2.248-38.625-5.6-51.1-9.237-6.24-1.819-11.193-3.708-14.663-5.561-1.735-.926-3.091-1.84-4.05-2.725-.961-.888-1.503-1.728-1.651-2.505Z"/><path stroke="url(#V)" d="M-1.83 334.209c-12.048-114.634 71.114-217.331 185.748-229.38 114.635-12.048 217.331 71.114 229.38 185.748.263 2.506-.693 5.398-2.842 8.579-2.146 3.179-5.466 6.623-9.883 10.223-8.833 7.199-22.019 14.998-38.869 22.531-33.698 15.066-82.015 29.056-139.377 35.085-57.357 6.029-113.077 1.23-154.637-6.801-20.78-4.015-38.014-8.837-50.139-13.515-6.063-2.339-10.84-4.638-14.14-6.777-1.652-1.07-2.926-2.094-3.806-3.057-.884-.966-1.352-1.849-1.435-2.636Z"/><path stroke="url(#W)" d="M-7.923 320.631c-4.349-115.184 85.5-212.084 200.684-216.433 115.184-4.35 212.084 85.5 216.433 200.684.096 2.518-1.052 5.339-3.409 8.369-2.355 3.028-5.898 6.242-10.546 9.539-9.295 6.592-22.973 13.49-40.29 19.878-34.63 12.777-83.775 23.502-141.412 25.678-57.632 2.176-112.906-6.341-153.835-17.136-20.466-5.397-37.338-11.362-49.122-16.84-5.893-2.74-10.505-5.354-13.656-7.709-1.575-1.178-2.778-2.285-3.592-3.305-.817-1.023-1.225-1.935-1.255-2.725Z"/><path stroke="url(#X)" d="M-15.212 299.966C-8.194 184.914 90.762 97.335 205.814 104.352c115.052 7.018 202.632 105.974 195.614 221.026-.153 2.515-1.573 5.21-4.217 7.994-2.641 2.781-6.484 5.63-11.434 8.453-9.899 5.644-24.19 11.161-42.052 15.813-35.72 9.304-85.682 15.136-143.253 11.625-57.567-3.511-111.733-17.432-151.4-32.205-19.834-7.387-36.037-14.985-47.224-21.597-5.595-3.307-9.927-6.362-12.83-9.016-1.452-1.328-2.54-2.548-3.25-3.643-.712-1.098-1.028-2.046-.98-2.836Z"/><path stroke="url(#Y)" d="M-19.799 281.816C-3.124 167.763 102.852 88.822 216.905 105.497c114.054 16.674 192.995 122.65 176.32 236.704-.365 2.493-2.006 5.058-4.875 7.61-2.866 2.549-6.935 5.064-12.105 7.46-10.339 4.792-25.044 9.087-43.234 12.219-36.376 6.264-86.652 7.872-143.723-.472-57.067-8.343-109.87-26.773-148.153-44.832-19.142-9.03-34.648-17.964-45.238-25.494-5.297-3.766-9.357-7.175-12.026-10.065-1.335-1.444-2.316-2.752-2.932-3.903-.617-1.154-.852-2.125-.738-2.908Z"/><path stroke="url(#Z)" d="M-22.623 265.099C2.7 152.649 114.385 82.017 226.835 107.339c112.45 25.321 183.082 137.007 157.76 249.457-.553 2.458-2.386 4.891-5.441 7.216-3.052 2.324-7.3 4.522-12.638 6.517-10.674 3.989-25.664 7.15-44.039 8.887-36.749 3.472-87.001 1.242-143.27-11.428-56.264-12.67-107.508-35.072-144.303-55.997-18.398-10.463-33.178-20.553-43.164-28.869-4.994-4.158-8.781-7.867-11.223-10.951-1.221-1.543-2.1-2.921-2.625-4.116-.528-1.198-.689-2.184-.515-2.956Z"/><path stroke="url(#aa)" d="M360.199 187.903c0 115.266-93.441 208.707-208.707 208.707-115.266 0-208.707-93.441-208.707-208.707 0-2.52 1.253-5.295 3.723-8.235 2.467-2.937 6.129-6.015 10.898-9.133 9.537-6.237 23.466-12.614 41.011-18.345 35.088-11.461 84.602-20.324 142.28-20.324 57.674 0 112.587 10.597 153.08 22.928 20.247 6.166 36.882 12.763 48.451 18.682 5.785 2.96 10.295 5.746 13.355 8.218 1.53 1.237 2.69 2.389 3.465 3.438.778 1.053 1.151 1.98 1.151 2.771Z"/><path stroke="url(#ab)" d="M365.294 203.62c-8.564 114.947-108.689 201.188-223.636 192.625C26.71 387.681-59.531 287.556-50.967 172.609c.187-2.513 1.643-5.188 4.324-7.936 2.678-2.745 6.56-5.543 11.547-8.298 9.974-5.511 24.338-10.836 42.26-15.247 35.843-8.823 85.879-13.983 143.397-9.698 57.514 4.285 111.489 18.932 150.954 34.237 19.732 7.653 35.831 15.468 46.929 22.23 5.549 3.382 9.84 6.495 12.707 9.188 1.434 1.347 2.505 2.582 3.2 3.686.698 1.108 1.001 2.06.943 2.849Z"/><path stroke="url(#ac)" d="M368.919 218.293C352.562 332.392 246.806 411.627 132.706 395.27 18.607 378.912-60.628 273.156-44.27 159.057c.357-2.494 1.992-5.064 4.853-7.623 2.86-2.558 6.921-5.085 12.084-7.495 10.326-4.82 25.019-9.156 43.2-12.339 36.36-6.365 86.63-8.112 143.724.073 57.09 8.184 109.944 26.467 148.277 44.42 19.167 8.976 34.697 17.867 45.309 25.368 5.307 3.751 9.376 7.149 12.054 10.031 1.339 1.441 2.324 2.746 2.942 3.895.62 1.152.859 2.123.746 2.906Z"/><path stroke="url(#ad)" d="M371.431 232.422C347.745 345.228 237.096 417.473 124.29 393.787 11.484 370.101-60.761 259.452-37.075 146.646c.518-2.466 2.315-4.924 5.336-7.294 3.018-2.367 7.234-4.627 12.542-6.699 10.615-4.144 25.557-7.523 43.906-9.526 36.694-4.005 86.973-2.505 143.42 9.347 56.442 11.852 108.006 33.507 145.101 53.896 18.548 10.194 33.472 20.069 43.578 28.239 5.054 4.086 8.895 7.739 11.381 10.788 1.244 1.524 2.142 2.89 2.685 4.076.545 1.191.72 2.174.557 2.949Z"/><path stroke="url(#ae)" d="M372.954 245.799c-30.475 111.164-145.297 176.575-256.461 146.1C5.329 361.423-60.082 246.601-29.607 135.437c.667-2.43 2.61-4.775 5.768-6.957 3.156-2.181 7.502-4.181 12.926-5.927 10.846-3.494 25.966-5.961 44.402-6.849 36.87-1.776 86.965 2.767 142.59 18.017 55.621 15.249 105.779 39.987 141.571 62.586 17.896 11.299 32.195 22.06 41.787 30.827 4.797 4.384 8.41 8.263 10.707 11.457 1.149 1.597 1.963 3.015 2.433 4.232.471 1.221.587 2.213.377 2.976Z"/><path stroke="url(#af)" d="M373.702 261.334c-38.178 108.76-157.294 165.979-266.053 127.801C-1.111 350.958-58.33 231.842-20.152 123.082c.834-2.378 2.936-4.581 6.24-6.537 3.3-1.954 7.775-3.646 13.308-5.009 11.065-2.726 26.32-4.129 44.773-3.725 36.903.807 86.558 8.844 140.98 27.947 54.419 19.102 102.723 47.289 136.846 72.336 17.062 12.524 30.573 24.258 39.528 33.675 4.479 4.709 7.812 8.832 9.88 12.178 1.034 1.673 1.747 3.144 2.13 4.392.385 1.251.431 2.249.169 2.995Z"/><path stroke="url(#ag)" d="M373.447 275.265C328.531 381.42 206.064 431.062 99.909 386.146-6.245 341.229-55.887 218.762-10.97 112.608c.982-2.321 3.218-4.389 6.638-6.134 3.417-1.743 7.989-3.151 13.596-4.164 11.213-2.028 26.526-2.473 44.918-.913 36.78 3.118 85.834 14.25 138.952 36.725 53.115 22.475 99.558 53.633 132.045 80.768 16.243 13.568 28.993 26.126 37.341 36.085 4.175 4.981 7.242 9.304 9.097 12.773.927 1.735 1.546 3.248 1.851 4.517.306 1.273.289 2.272-.02 3Z"/><path stroke="url(#ah)" d="M371.843 293.061c-53.299 102.202-179.359 141.846-281.561 88.546-102.203-53.3-141.846-179.359-88.547-281.562 1.166-2.234 3.56-4.115 7.11-5.58 3.545-1.463 8.215-2.499 13.886-3.059 11.34-1.12 26.64-.333 44.846 2.698 36.411 6.064 84.412 21.1 135.553 47.771 51.137 26.669 94.927 61.457 125.129 91.115 15.101 14.829 26.8 28.371 34.321 38.968 3.761 5.3 6.472 9.856 8.041 13.463.785 1.804 1.281 3.362 1.483 4.651.202 1.293.105 2.287-.261 2.989Z"/><path stroke="url(#ai)" d="M368.763 310.914c-61.448 97.521-190.318 126.764-287.838 65.316C-16.597 314.782-45.84 185.912 15.608 88.391c1.344-2.132 3.884-3.812 7.54-4.983 3.653-1.17 8.392-1.82 14.09-1.917 11.394-.192 26.578 1.838 44.477 6.343 35.796 9.008 82.413 27.905 131.211 58.653 48.795 30.746 89.605 68.986 117.291 101.005 13.843 16.01 24.4 30.46 31.033 41.635 3.317 5.589 5.647 10.35 6.918 14.073.635 1.862 1.002 3.455 1.099 4.756.096 1.306-.082 2.289-.504 2.958Z"/><path stroke="url(#aj)" d="M364.933 326.114c-68.17 92.948-198.78 113.034-291.727 44.865-92.947-68.17-113.034-198.78-44.865-291.727 1.49-2.032 4.143-3.529 7.873-4.439 3.726-.91 8.5-1.225 14.19-.92 11.378.611 26.382 3.707 43.919 9.462 35.072 11.51 80.241 33.646 126.75 67.757 46.507 34.109 84.52 75.13 109.88 109.021 12.68 16.946 22.192 32.104 28.021 43.719 2.914 5.809 4.903 10.722 5.908 14.526.503 1.902.757 3.516.761 4.821.004 1.309-.242 2.277-.71 2.915Z"/><path stroke="url(#ak)" d="M359.857 341.498c-74.76 87.733-206.487 98.25-294.22 23.49-87.734-74.761-98.25-206.488-23.49-294.22 1.634-1.918 4.389-3.218 8.175-3.854 3.783-.635 8.566-.603 14.219.117 11.304 1.438 26.042 5.619 43.113 12.636 34.14 14.035 77.576 39.403 121.477 76.812 43.897 37.407 78.821 81.089 101.644 116.738 11.411 17.825 19.794 33.635 24.761 45.644 2.484 6.005 4.109 11.051 4.835 14.917.362 1.934.498 3.563.407 4.865-.091 1.305-.408 2.253-.921 2.855Z"/><path stroke="url(#al)" d="M354.036 355.677c-80.629 82.372-212.768 83.785-295.14 3.155-82.372-80.629-83.785-212.767-3.155-295.14 1.762-1.8 4.6-2.907 8.42-3.28 3.818-.373 8.588-.011 14.178 1.096 11.178 2.215 25.592 7.4 42.139 15.578 33.092 16.355 74.676 44.656 115.895 85.002 41.214 40.343 73.044 86.328 93.356 123.465 10.156 18.569 17.429 34.92 21.556 47.242 2.064 6.163 3.338 11.308 3.795 15.216.229 1.954.252 3.588.072 4.88-.181 1.297-.563 2.22-1.116 2.786Z"/><path stroke="url(#am)" d="M347.506 368.945c-85.93 76.827-217.87 69.447-294.696-16.483-76.827-85.929-69.447-217.869 16.483-294.696 1.878-1.68 4.783-2.595 8.62-2.713 3.834-.118 8.57.56 14.073 2.037 11.006 2.953 25.044 9.086 41.01 18.346 31.931 18.52 71.54 49.524 109.984 92.522 38.44 42.995 67.14 90.996 84.937 129.402 8.898 19.203 15.068 36.002 18.366 48.571 1.649 6.286 2.578 11.505 2.775 15.434.098 1.965.012 3.598-.254 4.875-.267 1.282-.709 2.178-1.298 2.705Z"/><path stroke="url(#an)" d="M340.745 380.721c-90.461 71.435-221.704 56.012-293.139-34.449S-8.406 124.568 82.055 53.132c1.977-1.56 4.932-2.297 8.77-2.181 3.834.116 8.519 1.082 13.922 2.892 10.805 3.62 24.442 10.6 39.813 20.817 30.74 20.435 68.383 53.8 104.128 99.066 35.743 45.262 61.459 94.926 76.877 134.347 7.709 19.711 12.841 36.855 15.365 49.602 1.263 6.375 1.872 11.641 1.827 15.575-.022 1.967-.207 3.591-.55 4.85-.345 1.263-.841 2.131-1.462 2.621Z"/><path stroke="url(#ao)" d="M24.296 446.466c-66.105-94.427-43.147-224.563 51.28-290.668 94.426-66.106 224.562-43.147 290.668 51.279 1.445 2.065 2.01 5.057 1.673 8.882-.337 3.821-1.572 8.442-3.69 13.732-4.236 10.579-11.99 23.791-23.076 38.548-22.172 29.512-57.65 65.169-104.9 98.248-47.247 33.076-98.309 55.887-138.553 69.008-20.123 6.561-37.534 10.697-50.405 12.483-6.438.893-11.73 1.197-15.654.927-1.963-.136-3.574-.414-4.81-.83-1.242-.416-2.08-.961-2.533-1.609Z"/><path stroke="url(#ap)" d="M7.196 433.249c-56.62-100.402-21.128-227.692 79.274-284.312 100.401-56.62 227.692-21.127 284.311 79.274 1.238 2.195 1.51 5.228.803 9.002-.707 3.77-2.385 8.25-5.007 13.309-5.243 10.117-14.244 22.513-26.711 36.124-24.934 27.218-63.709 59.26-113.949 87.592-50.235 28.33-103.273 46.073-144.6 55.223-20.665 4.575-38.396 7-51.38 7.527-6.494.264-11.79.052-15.67-.598-1.94-.326-3.516-.76-4.707-1.293-1.195-.535-1.975-1.159-2.364-1.848Z"/><path stroke="url(#aq)" d="M-8.621 418.348C-55.164 312.896-7.41 189.681 98.04 143.137c105.451-46.543 228.667 1.212 275.21 106.663 1.018 2.305.992 5.35-.08 9.037-1.072 3.683-3.179 7.977-6.283 12.756-6.206 9.557-16.374 21.015-30.112 33.343-27.472 24.653-69.191 52.755-121.958 76.045-52.762 23.288-107.279 35.766-149.303 40.836-21.013 2.535-38.895 3.216-51.87 2.473-6.487-.372-11.738-1.1-15.536-2.126-1.899-.514-3.425-1.099-4.558-1.746-1.137-.65-1.853-1.347-2.172-2.07Z"/><path stroke="url(#ar)" d="M-20.051 405.513c-38.255-108.732 18.878-227.889 127.61-266.144 108.733-38.255 227.89 18.878 266.145 127.611.836 2.376.575 5.411-.779 9.003-1.352 3.59-3.785 7.709-7.249 12.233-6.927 9.049-17.95 19.687-32.599 30.916-29.295 22.456-73.061 47.251-127.47 66.393-54.404 19.141-109.722 27.369-152.012 29.176-21.146.904-39.028.202-51.905-1.542-6.44-.872-11.62-2.004-15.326-3.321-1.854-.658-3.33-1.36-4.41-2.093-1.083-.735-1.743-1.485-2.005-2.232Z"/><path stroke="url(#as)" d="M-29.462 393.236c-30.6-111.13 34.683-226.025 145.813-256.624 111.13-30.6 226.025 34.683 256.625 145.813.669 2.429.197 5.438-1.403 8.927-1.599 3.487-4.313 7.427-8.083 11.699-7.539 8.545-19.275 18.391-34.67 28.574-30.786 20.364-76.171 42.054-131.779 57.366-55.604 15.311-111.36 19.672-153.674 18.533-21.157-.57-38.947-2.514-51.672-5.149-6.364-1.318-11.451-2.807-15.058-4.378-1.803-.786-3.227-1.589-4.253-2.395-1.03-.809-1.636-1.603-1.846-2.366Z"/><path stroke="url(#at)" d="M-39.136 378.459c-21.677-113.21 52.525-222.556 165.735-244.233 113.209-21.676 222.555 52.526 244.232 165.735.474 2.475-.235 5.437-2.108 8.788-1.871 3.349-4.889 7.061-8.986 11.02-8.194 7.919-20.675 16.802-36.83 25.73-32.306 17.855-79.27 35.872-135.919 46.718-56.645 10.846-112.571 10.765-154.66 6.269-21.046-2.248-38.625-5.599-51.1-9.237-6.24-1.819-11.193-3.707-14.663-5.56-1.735-.927-3.09-1.84-4.05-2.725-.961-.888-1.502-1.728-1.651-2.505Z"/><path stroke="url(#au)" d="M-48.093 361.967c-12.048-114.634 71.114-217.331 185.748-229.38 114.635-12.048 217.332 71.114 229.38 185.748.264 2.506-.693 5.398-2.841 8.579-2.147 3.179-5.467 6.623-9.884 10.223-8.833 7.199-22.019 14.997-38.869 22.531-33.698 15.065-82.015 29.056-139.376 35.085-57.358 6.029-113.078 1.23-154.638-6.801-20.78-4.016-38.014-8.838-50.139-13.515-6.063-2.339-10.84-4.638-14.14-6.777-1.652-1.07-2.926-2.095-3.806-3.058-.884-.965-1.352-1.848-1.435-2.635Z"/><path stroke="url(#av)" d="M-54.187 348.39c-4.349-115.184 85.5-212.084 200.685-216.433 115.183-4.349 212.084 85.5 216.433 200.684.095 2.518-1.053 5.339-3.41 8.37-2.354 3.028-5.898 6.242-10.546 9.538-9.295 6.592-22.973 13.49-40.29 19.879-34.63 12.776-83.775 23.502-141.412 25.678-57.632 2.176-112.906-6.342-153.835-17.136-20.465-5.398-37.338-11.363-49.122-16.841-5.893-2.739-10.505-5.353-13.655-7.709-1.576-1.177-2.779-2.285-3.593-3.305-.816-1.022-1.225-1.934-1.255-2.725Z"/><path stroke="url(#aw)" d="M-61.476 327.725C-54.458 212.673 44.5 125.094 159.551 132.111c115.052 7.017 202.631 105.974 195.614 221.026-.154 2.515-1.574 5.209-4.218 7.993-2.641 2.782-6.484 5.631-11.434 8.453-9.899 5.645-24.19 11.162-42.052 15.814-35.72 9.303-85.682 15.136-143.253 11.625-57.567-3.511-111.733-17.432-151.4-32.205-19.834-7.387-36.037-14.985-47.224-21.597-5.595-3.307-9.926-6.362-12.83-9.016-1.452-1.328-2.54-2.548-3.25-3.643-.711-1.098-1.028-2.046-.98-2.836Z"/><path stroke="url(#ax)" d="M-66.063 309.573C-49.388 195.52 56.588 116.579 170.642 133.254c114.053 16.675 192.994 122.651 176.319 236.704-.364 2.493-2.006 5.058-4.875 7.61-2.866 2.549-6.935 5.065-12.105 7.461-10.339 4.791-25.044 9.086-43.233 12.218-36.377 6.265-86.653 7.872-143.724-.472-57.067-8.343-109.87-26.773-148.153-44.832-19.142-9.03-34.647-17.964-45.238-25.494-5.297-3.766-9.356-7.175-12.026-10.064-1.335-1.445-2.316-2.753-2.931-3.903-.617-1.155-.853-2.126-.739-2.909Z"/><path stroke="url(#ay)" d="M-68.886 292.857c25.322-112.451 137.008-183.082 249.458-157.761 112.45 25.322 183.082 137.008 157.76 249.458-.553 2.458-2.386 4.89-5.441 7.216-3.052 2.323-7.3 4.521-12.638 6.516-10.674 3.989-25.664 7.151-44.039 8.887-36.749 3.473-87.001 1.243-143.27-11.428-56.264-12.67-107.508-35.071-144.303-55.996-18.398-10.463-33.177-20.554-43.164-28.869-4.994-4.159-8.781-7.868-11.223-10.952-1.221-1.543-2.1-2.921-2.625-4.115-.528-1.198-.688-2.185-.515-2.956Z"/><path stroke="url(#az)" d="M-75.238 243.849C-38.982 134.433 79.108 75.126 188.524 111.383c109.415 36.256 168.722 154.346 132.466 263.761-.793 2.392-2.856 4.633-6.124 6.646-3.266 2.012-7.71 3.782-13.218 5.242-11.015 2.921-26.243 4.593-44.7 4.514-36.912-.158-86.701-7.319-141.451-25.461-54.746-18.141-103.54-45.473-138.098-69.915-17.28-12.221-30.996-23.716-40.116-32.973-4.56-4.63-7.965-8.693-10.092-12.002-1.063-1.655-1.802-3.114-2.208-4.354-.407-1.244-.47-2.241-.22-2.992Z"/><path stroke="url(#aA)" d="M-74.722 220.433c47.57-104.992 171.246-151.54 276.238-103.97 104.992 47.571 151.541 171.247 103.97 276.238-1.04 2.295-3.327 4.306-6.79 5.965-3.459 1.657-8.065 2.949-13.696 3.822-11.261 1.744-26.58 1.804-44.927-.217-36.69-4.041-85.449-16.403-137.985-40.206-52.533-23.803-98.178-56.118-129.973-84.062-15.897-13.972-28.327-26.846-36.422-37.012-4.048-5.084-7.007-9.483-8.773-12.998-.883-1.758-1.464-3.285-1.737-4.562-.274-1.279-.232-2.278.095-2.998Z"/><path stroke="url(#aB)" d="M-71.003 193.329c60.11-98.351 188.568-129.352 286.92-69.243 98.351 60.11 129.353 188.568 69.243 286.92-1.314 2.15-3.831 3.865-7.471 5.085-3.637 1.22-8.367 1.936-14.062 2.11-11.39.348-26.601-1.474-44.56-5.734-35.916-8.519-82.786-26.777-132-56.856-49.21-30.076-90.54-67.754-118.66-99.392-14.06-15.82-24.815-30.124-31.6-41.207-3.392-5.543-5.788-10.272-7.109-13.977-.66-1.853-1.05-3.441-1.163-4.741-.115-1.304.05-2.29.462-2.965Z"/><path stroke="url(#aC)" d="M-66.01 173.309C2.96 80.956 133.74 62.002 226.094 130.973c92.353 68.972 111.308 199.752 42.336 292.105-1.508 2.019-4.173 3.493-7.911 4.37-3.734.877-8.51 1.152-14.197.797-11.373-.71-26.349-3.935-43.836-9.842-34.97-11.813-79.946-34.339-126.159-68.852-46.209-34.51-83.865-75.859-108.93-109.969-12.533-17.055-21.914-32.295-27.642-43.96-2.864-5.833-4.81-10.764-5.782-14.576-.486-1.906-.726-3.523-.72-4.828.008-1.309.263-2.275.737-2.909Z"/></g><defs><linearGradient id="b" x1="197.756" x2="197.756" y1="103.856" y2="369.101" gradientUnits="userSpaceOnUse"><stop stop-color="#FFBA29" stop-opacity=".33"/><stop offset="1" stop-color="#FFBA29"/></linearGradient><linearGradient id="c" x1="207.609" x2="187.903" y1="104.225" y2="368.737" gradientUnits="userSpaceOnUse"><stop stop-color="#FFBA29" stop-opacity=".33"/><stop offset="1" stop-color="#FFBA29"/></linearGradient><linearGradient id="d" x1="216.576" x2="178.935" y1="105.198" y2="367.758" gradientUnits="userSpaceOnUse"><stop stop-color="#FFBA29" stop-opacity=".33"/><stop offset="1" stop-color="#FFBA29"/></linearGradient><linearGradient id="e" x1="225.008" x2="170.503" y1="106.689" y2="366.273" gradientUnits="userSpaceOnUse"><stop stop-color="#FFBA29" stop-opacity=".33"/><stop offset="1" stop-color="#FFBA29"/></linearGradient><linearGradient id="f" x1="232.82" x2="162.691" y1="108.575" y2="364.38" gradientUnits="userSpaceOnUse"><stop stop-color="#FFBA29" stop-opacity=".33"/><stop offset="1" stop-color="#FFBA29"/></linearGradient><linearGradient id="g" x1="241.682" x2="153.83" y1="111.338" y2="361.612" gradientUnits="userSpaceOnUse"><stop stop-color="#FFBA29" stop-opacity=".33"/><stop offset="1" stop-color="#FFBA29"/></linearGradient><linearGradient id="h" x1="249.435" x2="146.075" y1="114.339" y2="358.617" gradientUnits="userSpaceOnUse"><stop stop-color="#FFBA29" stop-opacity=".33"/><stop offset="1" stop-color="#FFBA29"/></linearGradient><linearGradient id="i" x1="259.081" x2="136.43" y1="118.886" y2="354.07" gradientUnits="userSpaceOnUse"><stop stop-color="#FFBA29" stop-opacity=".33"/><stop offset="1" stop-color="#FFBA29"/></linearGradient><linearGradient id="j" x1="268.456" x2="127.055" y1="124.272" y2="348.683" gradientUnits="userSpaceOnUse"><stop stop-color="#FFBA29" stop-opacity=".33"/><stop offset="1" stop-color="#FFBA29"/></linearGradient><linearGradient id="k" x1="276.189" x2="119.321" y1="129.535" y2="343.421" gradientUnits="userSpaceOnUse"><stop stop-color="#FFBA29" stop-opacity=".33"/><stop offset="1" stop-color="#FFBA29"/></linearGradient><linearGradient id="l" x1="283.773" x2="111.738" y1="135.533" y2="337.42" gradientUnits="userSpaceOnUse"><stop stop-color="#FFBA29" stop-opacity=".33"/><stop offset="1" stop-color="#FFBA29"/></linearGradient><linearGradient id="m" x1="290.526" x2="104.985" y1="141.703" y2="331.254" gradientUnits="userSpaceOnUse"><stop stop-color="#FFBA29" stop-opacity=".33"/><stop offset="1" stop-color="#FFBA29"/></linearGradient><linearGradient id="n" x1="296.625" x2="98.887" y1="148.082" y2="324.872" gradientUnits="userSpaceOnUse"><stop stop-color="#FFBA29" stop-opacity=".33"/><stop offset="1" stop-color="#FFBA29"/></linearGradient><linearGradient id="o" x1="301.838" x2="93.674" y1="154.284" y2="318.668" gradientUnits="userSpaceOnUse"><stop stop-color="#FFBA29" stop-opacity=".33"/><stop offset="1" stop-color="#FFBA29"/></linearGradient><linearGradient id="p" x1="255.758" x2="38.015" y1="161.299" y2="312.768" gradientUnits="userSpaceOnUse"><stop stop-color="#FFBA29" stop-opacity=".33"/><stop offset="1" stop-color="#FFBA29"/></linearGradient><linearGradient id="q" x1="260.103" x2="33.67" y1="167.965" y2="306.106" gradientUnits="userSpaceOnUse"><stop stop-color="#FFBA29" stop-opacity=".33"/><stop offset="1" stop-color="#FFBA29"/></linearGradient><linearGradient id="r" x1="263.378" x2="30.395" y1="173.644" y2="300.426" gradientUnits="userSpaceOnUse"><stop stop-color="#FFBA29" stop-opacity=".33"/><stop offset="1" stop-color="#FFBA29"/></linearGradient><linearGradient id="s" x1="266.032" x2="27.741" y1="178.788" y2="295.288" gradientUnits="userSpaceOnUse"><stop stop-color="#FFBA29" stop-opacity=".33"/><stop offset="1" stop-color="#FFBA29"/></linearGradient><linearGradient id="t" x1="268.565" x2="25.208" y1="184.279" y2="289.79" gradientUnits="userSpaceOnUse"><stop stop-color="#FFBA29" stop-opacity=".33"/><stop offset="1" stop-color="#FFBA29"/></linearGradient><linearGradient id="u" x1="270.88" x2="22.892" y1="189.983" y2="284.094" gradientUnits="userSpaceOnUse"><stop stop-color="#FFBA29" stop-opacity=".33"/><stop offset="1" stop-color="#FFBA29"/></linearGradient><linearGradient id="v" x1="273.647" x2="20.126" y1="198.039" y2="276.027" gradientUnits="userSpaceOnUse"><stop stop-color="#FFBA29" stop-opacity=".33"/><stop offset="1" stop-color="#FFBA29"/></linearGradient><linearGradient id="w" x1="275.893" x2="17.88" y1="206.279" y2="267.791" gradientUnits="userSpaceOnUse"><stop stop-color="#FFBA29" stop-opacity=".33"/><stop offset="1" stop-color="#FFBA29"/></linearGradient><linearGradient id="x" x1="277.077" x2="16.696" y1="211.757" y2="262.318" gradientUnits="userSpaceOnUse"><stop stop-color="#FFBA29" stop-opacity=".33"/><stop offset="1" stop-color="#FFBA29"/></linearGradient><linearGradient id="y" x1="278.186" x2="15.586" y1="218.353" y2="255.715" gradientUnits="userSpaceOnUse"><stop stop-color="#FFBA29" stop-opacity=".33"/><stop offset="1" stop-color="#FFBA29"/></linearGradient><linearGradient id="z" x1="279.073" x2="14.701" y1="226.285" y2="247.787" gradientUnits="userSpaceOnUse"><stop stop-color="#FFBA29" stop-opacity=".33"/><stop offset="1" stop-color="#FFBA29"/></linearGradient><linearGradient id="A" x1="279.459" x2="14.315" y1="233.382" y2="240.684" gradientUnits="userSpaceOnUse"><stop stop-color="#FFBA29" stop-opacity=".33"/><stop offset="1" stop-color="#FFBA29"/></linearGradient><linearGradient id="B" x1="279.434" x2="14.338" y1="241.482" y2="232.588" gradientUnits="userSpaceOnUse"><stop stop-color="#FFBA29" stop-opacity=".33"/><stop offset="1" stop-color="#FFBA29"/></linearGradient><linearGradient id="C" x1="278.89" x2="14.882" y1="249.825" y2="224.244" gradientUnits="userSpaceOnUse"><stop stop-color="#FFBA29" stop-opacity=".33"/><stop offset="1" stop-color="#FFBA29"/></linearGradient><linearGradient id="D" x1="277.807" x2="15.966" y1="258.214" y2="215.86" gradientUnits="userSpaceOnUse"><stop stop-color="#FFBA29" stop-opacity=".33"/><stop offset="1" stop-color="#FFBA29"/></linearGradient><linearGradient id="E" x1="276.222" x2="17.551" y1="266.376" y2="207.688" gradientUnits="userSpaceOnUse"><stop stop-color="#FFBA29" stop-opacity=".33"/><stop offset="1" stop-color="#FFBA29"/></linearGradient><linearGradient id="F" x1="274.083" x2="19.689" y1="274.581" y2="199.492" gradientUnits="userSpaceOnUse"><stop stop-color="#FFBA29" stop-opacity=".33"/><stop offset="1" stop-color="#FFBA29"/></linearGradient><linearGradient id="G" x1="271.181" x2="22.591" y1="283.29" y2="190.782" gradientUnits="userSpaceOnUse"><stop stop-color="#FFBA29" stop-opacity=".33"/><stop offset="1" stop-color="#FFBA29"/></linearGradient><linearGradient id="H" x1="268.493" x2="25.28" y1="289.953" y2="184.114" gradientUnits="userSpaceOnUse"><stop stop-color="#FFBA29" stop-opacity=".33"/><stop offset="1" stop-color="#FFBA29"/></linearGradient><linearGradient id="I" x1="265.041" x2="28.732" y1="297.272" y2="176.804" gradientUnits="userSpaceOnUse"><stop stop-color="#FFBA29" stop-opacity=".33"/><stop offset="1" stop-color="#FFBA29"/></linearGradient><linearGradient id="J" x1="261.221" x2="32.55" y1="304.236" y2="169.833" gradientUnits="userSpaceOnUse"><stop stop-color="#FFBA29" stop-opacity=".33"/><stop offset="1" stop-color="#FFBA29"/></linearGradient><linearGradient id="K" x1="256.52" x2="37.252" y1="311.661" y2="162.409" gradientUnits="userSpaceOnUse"><stop stop-color="#FFBA29" stop-opacity=".33"/><stop offset="1" stop-color="#FFBA29"/></linearGradient><linearGradient id="L" x1="251.592" x2="42.18" y1="318.43" y2="155.638" gradientUnits="userSpaceOnUse"><stop stop-color="#FFBA29" stop-opacity=".33"/><stop offset="1" stop-color="#FFBA29"/></linearGradient><linearGradient id="M" x1="245.77" x2="48.003" y1="325.412" y2="148.656" gradientUnits="userSpaceOnUse"><stop stop-color="#FFBA29" stop-opacity=".33"/><stop offset="1" stop-color="#FFBA29"/></linearGradient><linearGradient id="N" x1="238.577" x2="55.197" y1="332.855" y2="141.213" gradientUnits="userSpaceOnUse"><stop stop-color="#FFBA29" stop-opacity=".33"/><stop offset="1" stop-color="#FFBA29"/></linearGradient><linearGradient id="O" x1="231.633" x2="62.138" y1="339.049" y2="135.025" gradientUnits="userSpaceOnUse"><stop stop-color="#FFBA29" stop-opacity=".33"/><stop offset="1" stop-color="#FFBA29"/></linearGradient><linearGradient id="P" x1="273.815" x2="121.696" y1="345.125" y2="127.836" gradientUnits="userSpaceOnUse"><stop stop-color="#FFBA29" stop-opacity=".33"/><stop offset="1" stop-color="#FFBA29"/></linearGradient><linearGradient id="Q" x1="262.9" x2="132.61" y1="352.001" y2="120.962" gradientUnits="userSpaceOnUse"><stop stop-color="#FFBA29" stop-opacity=".33"/><stop offset="1" stop-color="#FFBA29"/></linearGradient><linearGradient id="R" x1="251.307" x2="144.204" y1="357.81" y2="115.151" gradientUnits="userSpaceOnUse"><stop stop-color="#FFBA29" stop-opacity=".33"/><stop offset="1" stop-color="#FFBA29"/></linearGradient><linearGradient id="S" x1="241.771" x2="153.74" y1="361.586" y2="111.376" gradientUnits="userSpaceOnUse"><stop stop-color="#FFBA29" stop-opacity=".33"/><stop offset="1" stop-color="#FFBA29"/></linearGradient><linearGradient id="T" x1="232.963" x2="162.549" y1="364.34" y2="108.613" gradientUnits="userSpaceOnUse"><stop stop-color="#FFBA29" stop-opacity=".33"/><stop offset="1" stop-color="#FFBA29"/></linearGradient><linearGradient id="U" x1="222.696" x2="172.815" y1="366.736" y2="106.224" gradientUnits="userSpaceOnUse"><stop stop-color="#FFBA29" stop-opacity=".33"/><stop offset="1" stop-color="#FFBA29"/></linearGradient><linearGradient id="V" x1="211.618" x2="183.892" y1="368.372" y2="104.581" gradientUnits="userSpaceOnUse"><stop stop-color="#FFBA29" stop-opacity=".33"/><stop offset="1" stop-color="#FFBA29"/></linearGradient><linearGradient id="W" x1="202.76" x2="192.752" y1="369.004" y2="103.948" gradientUnits="userSpaceOnUse"><stop stop-color="#FFBA29" stop-opacity=".33"/><stop offset="1" stop-color="#FFBA29"/></linearGradient><linearGradient id="X" x1="189.682" x2="205.83" y1="368.855" y2="104.103" gradientUnits="userSpaceOnUse"><stop stop-color="#FFBA29" stop-opacity=".33"/><stop offset="1" stop-color="#FFBA29"/></linearGradient><linearGradient id="Y" x1="178.57" x2="216.942" y1="367.704" y2="105.249" gradientUnits="userSpaceOnUse"><stop stop-color="#FFBA29" stop-opacity=".33"/><stop offset="1" stop-color="#FFBA29"/></linearGradient><linearGradient id="Z" x1="168.621" x2="226.89" y1="365.86" y2="107.095" gradientUnits="userSpaceOnUse"><stop stop-color="#FFBA29" stop-opacity=".33"/><stop offset="1" stop-color="#FFBA29"/></linearGradient><linearGradient id="aa" x1="151.492" x2="151.492" y1="131.616" y2="396.86" gradientUnits="userSpaceOnUse"><stop stop-color="#FFBA29" stop-opacity=".33"/><stop offset="1" stop-color="#FFBA29"/></linearGradient><linearGradient id="ab" x1="161.345" x2="141.639" y1="131.983" y2="396.494" gradientUnits="userSpaceOnUse"><stop stop-color="#FFBA29" stop-opacity=".33"/><stop offset="1" stop-color="#FFBA29"/></linearGradient><linearGradient id="ac" x1="170.312" x2="132.671" y1="132.957" y2="395.517" gradientUnits="userSpaceOnUse"><stop stop-color="#FFBA29" stop-opacity=".33"/><stop offset="1" stop-color="#FFBA29"/></linearGradient><linearGradient id="ad" x1="178.745" x2="124.239" y1="134.448" y2="394.032" gradientUnits="userSpaceOnUse"><stop stop-color="#FFBA29" stop-opacity=".33"/><stop offset="1" stop-color="#FFBA29"/></linearGradient><linearGradient id="ae" x1="186.556" x2="116.427" y1="136.334" y2="392.14" gradientUnits="userSpaceOnUse"><stop stop-color="#FFBA29" stop-opacity=".33"/><stop offset="1" stop-color="#FFBA29"/></linearGradient><linearGradient id="af" x1="195.418" x2="107.566" y1="139.098" y2="389.371" gradientUnits="userSpaceOnUse"><stop stop-color="#FFBA29" stop-opacity=".33"/><stop offset="1" stop-color="#FFBA29"/></linearGradient><linearGradient id="ag" x1="203.172" x2="99.812" y1="142.099" y2="386.376" gradientUnits="userSpaceOnUse"><stop stop-color="#FFBA29" stop-opacity=".33"/><stop offset="1" stop-color="#FFBA29"/></linearGradient><linearGradient id="ah" x1="212.817" x2="90.166" y1="146.645" y2="381.829" gradientUnits="userSpaceOnUse"><stop stop-color="#FFBA29" stop-opacity=".33"/><stop offset="1" stop-color="#FFBA29"/></linearGradient><linearGradient id="ai" x1="222.193" x2="80.791" y1="152.031" y2="376.442" gradientUnits="userSpaceOnUse"><stop stop-color="#FFBA29" stop-opacity=".33"/><stop offset="1" stop-color="#FFBA29"/></linearGradient><linearGradient id="aj" x1="229.926" x2="73.058" y1="157.295" y2="371.18" gradientUnits="userSpaceOnUse"><stop stop-color="#FFBA29" stop-opacity=".33"/><stop offset="1" stop-color="#FFBA29"/></linearGradient><linearGradient id="ak" x1="237.51" x2="65.475" y1="163.29" y2="365.178" gradientUnits="userSpaceOnUse"><stop stop-color="#FFBA29" stop-opacity=".33"/><stop offset="1" stop-color="#FFBA29"/></linearGradient><linearGradient id="al" x1="244.262" x2="58.721" y1="169.46" y2="359.011" gradientUnits="userSpaceOnUse"><stop stop-color="#FFBA29" stop-opacity=".33"/><stop offset="1" stop-color="#FFBA29"/></linearGradient><linearGradient id="am" x1="250.361" x2="52.623" y1="175.839" y2="352.629" gradientUnits="userSpaceOnUse"><stop stop-color="#FFBA29" stop-opacity=".33"/><stop offset="1" stop-color="#FFBA29"/></linearGradient><linearGradient id="an" x1="255.575" x2="47.41" y1="182.043" y2="346.427" gradientUnits="userSpaceOnUse"><stop stop-color="#FFBA29" stop-opacity=".33"/><stop offset="1" stop-color="#FFBA29"/></linearGradient><linearGradient id="ao" x1="227.551" x2="75.432" y1="372.882" y2="155.593" gradientUnits="userSpaceOnUse"><stop stop-color="#FFBA29" stop-opacity=".33"/><stop offset="1" stop-color="#FFBA29"/></linearGradient><linearGradient id="ap" x1="216.638" x2="86.347" y1="379.758" y2="148.719" gradientUnits="userSpaceOnUse"><stop stop-color="#FFBA29" stop-opacity=".33"/><stop offset="1" stop-color="#FFBA29"/></linearGradient><linearGradient id="aq" x1="205.043" x2="97.94" y1="385.568" y2="142.909" gradientUnits="userSpaceOnUse"><stop stop-color="#FFBA29" stop-opacity=".33"/><stop offset="1" stop-color="#FFBA29"/></linearGradient><linearGradient id="ar" x1="195.507" x2="107.476" y1="389.343" y2="139.133" gradientUnits="userSpaceOnUse"><stop stop-color="#FFBA29" stop-opacity=".33"/><stop offset="1" stop-color="#FFBA29"/></linearGradient><linearGradient id="as" x1="186.7" x2="116.285" y1="392.098" y2="136.371" gradientUnits="userSpaceOnUse"><stop stop-color="#FFBA29" stop-opacity=".33"/><stop offset="1" stop-color="#FFBA29"/></linearGradient><linearGradient id="at" x1="176.433" x2="126.552" y1="394.493" y2="133.981" gradientUnits="userSpaceOnUse"><stop stop-color="#FFBA29" stop-opacity=".33"/><stop offset="1" stop-color="#FFBA29"/></linearGradient><linearGradient id="au" x1="165.355" x2="137.629" y1="396.13" y2="132.339" gradientUnits="userSpaceOnUse"><stop stop-color="#FFBA29" stop-opacity=".33"/><stop offset="1" stop-color="#FFBA29"/></linearGradient><linearGradient id="av" x1="156.496" x2="146.488" y1="396.763" y2="131.707" gradientUnits="userSpaceOnUse"><stop stop-color="#FFBA29" stop-opacity=".33"/><stop offset="1" stop-color="#FFBA29"/></linearGradient><linearGradient id="aw" x1="143.418" x2="159.566" y1="396.614" y2="131.862" gradientUnits="userSpaceOnUse"><stop stop-color="#FFBA29" stop-opacity=".33"/><stop offset="1" stop-color="#FFBA29"/></linearGradient><linearGradient id="ax" x1="132.307" x2="170.678" y1="395.461" y2="133.006" gradientUnits="userSpaceOnUse"><stop stop-color="#FFBA29" stop-opacity=".33"/><stop offset="1" stop-color="#FFBA29"/></linearGradient><linearGradient id="ay" x1="122.358" x2="180.627" y1="393.617" y2="134.852" gradientUnits="userSpaceOnUse"><stop stop-color="#FFBA29" stop-opacity=".33"/><stop offset="1" stop-color="#FFBA29"/></linearGradient><linearGradient id="az" x1="105.171" x2="188.602" y1="362.927" y2="111.145" gradientUnits="userSpaceOnUse"><stop stop-color="#FFBA29" stop-opacity=".33"/><stop offset="1" stop-color="#FFBA29"/></linearGradient><linearGradient id="aA" x1="92.152" x2="201.619" y1="357.837" y2="116.235" gradientUnits="userSpaceOnUse"><stop stop-color="#FFBA29" stop-opacity=".33"/><stop offset="1" stop-color="#FFBA29"/></linearGradient><linearGradient id="aB" x1="77.725" x2="216.047" y1="350.195" y2="123.873" gradientUnits="userSpaceOnUse"><stop stop-color="#FFBA29" stop-opacity=".33"/><stop offset="1" stop-color="#FFBA29"/></linearGradient><linearGradient id="aC" x1="67.529" x2="226.244" y1="343.292" y2="130.773" gradientUnits="userSpaceOnUse"><stop stop-color="#FFBA29" stop-opacity=".33"/><stop offset="1" stop-color="#FFBA29"/></linearGradient><clipPath id="a"><path fill="#fff" d="M-78 0h500v500H-78z"/></clipPath></defs></svg>