<svg xmlns="http://www.w3.org/2000/svg" width="344" height="200" fill="none"><path stroke="url(#a)" stroke-width=".5" d="M327.31 277.422c0 43.345 22.553 72.035 36.919 90.31 1.161 1.478 2.27 2.887 3.308 4.231 3.475 4.498 6.152 8.236 7.455 11.319.651 1.538.95 2.892.849 4.082-.101 1.182-.598 2.22-1.577 3.135-.986.92-2.466 1.72-4.538 2.398-2.07.678-4.714 1.23-8.014 1.664-6.6.868-15.792 1.261-28.187 1.261-49.576 0-140.839-6.286-219.701-24.255-39.433-8.986-75.747-20.888-102.197-36.375-26.457-15.492-42.98-34.529-42.98-57.77 0-93.35 80.275-169.05 179.331-169.05 99.056 0 179.332 75.7 179.332 169.05Z"/><path stroke="url(#b)" stroke-width=".5" d="M328.188 271.303c1.711 43.311 25.38 71.092 40.456 88.788 1.219 1.431 2.382 2.796 3.473 4.098 3.65 4.358 6.472 7.988 7.896 11.017.711 1.512 1.063 2.853 1.009 4.046-.054 1.184-.509 2.241-1.452 3.194-.949.958-2.397 1.815-4.44 2.575-2.041.758-4.662 1.414-7.942 1.977-6.561 1.127-15.73 1.881-28.115 2.368-49.538 1.949-140.978-.744-220.488-15.6-39.757-7.428-76.513-17.893-103.554-32.329-27.048-14.439-44.31-32.813-45.227-56.035-3.685-93.278 73.54-172.075 172.519-175.969 98.979-3.894 182.18 68.592 185.865 161.87Z"/><path stroke="url(#c)" stroke-width=".5" d="M328.927 263.893c3.77 43.181 28.733 69.809 44.634 86.771 1.286 1.372 2.513 2.68 3.664 3.929 3.853 4.18 6.845 7.672 8.412 10.63.782 1.476 1.197 2.8 1.2 3.994.002 1.185-.402 2.263-1.298 3.259-.902 1.002-2.308 1.927-4.312 2.782-2.003.855-4.59 1.633-7.84 2.352-6.5 1.436-15.622 2.624-27.97 3.697-49.39 4.294-140.855 5.937-220.982-5.134-40.066-5.536-77.278-14.248-104.975-27.386-27.705-13.142-45.821-30.676-47.843-53.829-8.12-92.998 65.269-175.366 163.951-183.945 98.683-8.58 185.239 59.882 193.359 152.88Z"/><path stroke="url(#d)" stroke-width=".5" d="M329.223 256.047c5.143 43.04 30.941 68.863 47.374 85.313a654.193 654.193 0 0 1 3.787 3.81c3.985 4.056 7.086 7.452 8.746 10.358.829 1.451 1.286 2.761 1.327 3.954.04 1.185-.33 2.275-1.194 3.299-.87 1.03-2.245 1.999-4.221 2.917-1.975.918-4.536 1.778-7.761 2.599-6.451 1.642-15.531 3.118-27.839 4.582-49.227 5.858-140.594 10.399-221.033 1.873-40.222-4.263-77.693-11.791-105.794-24.045-28.109-12.256-46.775-29.208-49.532-52.285-11.075-92.694 59.654-177.346 158.013-189.049 98.36-11.703 187.052 53.98 198.127 146.674Z"/><path stroke="url(#e)" stroke-width=".5" d="M329.372 249.309c6.992 42.779 33.879 67.472 51.005 83.201 1.385 1.272 2.706 2.485 3.948 3.645 4.155 3.881 7.4 7.14 9.184 9.973.89 1.414 1.404 2.703 1.495 3.894.092 1.182-.231 2.286-1.05 3.346-.825 1.067-2.157 2.094-4.092 3.096-1.933 1.002-4.455 1.971-7.641 2.929-6.374 1.917-15.383 3.782-27.616 5.772-48.93 7.964-140.017 16.419-220.749 11.352-40.368-2.534-78.128-8.449-106.731-19.485-28.611-11.04-47.99-27.176-51.739-50.113-15.057-92.133 51.961-179.741 149.725-195.652 97.765-15.91 189.204 45.908 204.261 138.042Z"/><path stroke="url(#f)" stroke-width=".5" d="M329.259 243.241c8.646 42.478 36.471 66.113 54.195 81.169 1.433 1.217 2.8 2.379 4.086 3.489 4.302 3.718 7.671 6.849 9.563 9.611.945 1.379 1.508 2.647 1.646 3.833.137 1.178-.142 2.294-.92 3.385-.782 1.097-2.074 2.175-3.968 3.251-1.894 1.076-4.375 2.142-7.523 3.223-6.294 2.161-15.224 4.372-27.371 6.834-48.584 9.848-139.274 21.816-220.142 19.871-40.436-.972-78.398-5.423-107.408-15.347-29.018-9.926-49.008-25.301-53.643-48.076-18.621-91.482 44.948-181.613 142.022-201.289 97.074-19.676 190.842 38.564 209.463 130.046Z"/><path stroke="url(#g)" stroke-width=".5" d="M328.894 236.989c10.339 42.099 39.087 64.607 57.4 78.944a692.792 692.792 0 0 1 4.222 3.324c4.449 3.543 7.94 6.538 9.941 9.222.999 1.34 1.613 2.584 1.798 3.764.184 1.172-.051 2.298-.784 3.419-.738 1.128-1.985 2.256-3.835 3.407-1.849 1.15-4.286 2.314-7.387 3.52-6.204 2.411-15.037 4.976-27.076 7.92-48.151 11.776-138.29 27.349-219.172 28.629-40.443.639-78.552-2.295-107.936-11.054-29.392-8.762-49.981-23.328-55.525-45.9-22.267-90.668 37.644-183.26 133.853-206.789 96.209-23.53 192.234 30.927 214.501 121.594Z"/><path stroke="url(#h)" stroke-width=".5" d="M328.4 231.802c11.735 41.733 41.216 63.275 59.996 76.998a631.382 631.382 0 0 1 4.33 3.182c4.564 3.393 8.153 6.271 10.243 8.887 1.043 1.306 1.697 2.53 1.922 3.703.223 1.164.026 2.298-.67 3.442-.7 1.152-1.909 2.321-3.72 3.533-1.809 1.211-4.206 2.455-7.266 3.762-6.119 2.615-14.863 5.472-26.797 8.813C318.706 357.488 229.135 376.04 148.34 380c-40.399 1.98-78.585.31-108.244-7.47-29.667-7.783-50.73-21.658-57.022-44.034-25.273-89.88 31.523-184.407 126.896-211.112 95.373-26.705 193.157 24.538 218.43 114.418Z"/><path stroke="url(#i)" stroke-width=".5" d="M327.413 224.536c13.678 41.139 44.136 61.283 63.538 74.114a627.812 627.812 0 0 1 4.475 2.976c4.718 3.177 8.438 5.884 10.648 8.4 1.103 1.256 1.814 2.448 2.093 3.609.278 1.153.134 2.294-.507 3.47-.645 1.184-1.798 2.408-3.55 3.702-1.751 1.294-4.087 2.649-7.082 4.098-5.991 2.898-14.591 6.159-26.355 10.054-47.054 15.578-135.658 38.289-216.178 46.014-40.262 3.863-78.485 3.977-108.476-2.411-30-6.39-51.69-19.267-59.023-41.325-29.457-88.602 22.848-185.676 116.865-216.802 94.017-31.126 194.096 15.499 223.552 104.101Z"/><path stroke="url(#j)" stroke-width=".5" d="M326.18 217.768c15.472 40.501 46.786 59.292 66.733 71.262 1.613.968 3.152 1.891 4.602 2.778 4.853 2.967 8.688 5.509 11.007 7.926 1.157 1.206 1.92 2.365 2.25 3.513.327 1.14.234 2.287-.355 3.489-.592 1.211-1.69 2.484-3.384 3.854-1.692 1.369-3.966 2.825-6.895 4.404-5.857 3.157-14.306 6.791-25.887 11.197-46.325 17.623-133.845 44.19-213.949 55.432-40.053 5.621-78.234 7.407-108.477 2.338-30.251-5.071-52.487-16.987-60.782-38.703C-42.28 258.031 5.709 158.761 98.268 123.551c92.558-35.21 194.59 6.989 227.912 94.217Z"/><path stroke="url(#k)" stroke-width=".5" d="M324.6 210.871c17.288 39.764 49.42 57.126 69.888 68.185 1.655.894 3.234 1.747 4.723 2.568 4.982 2.746 8.928 5.112 11.353 7.422 1.211 1.153 2.025 2.277 2.407 3.409.379 1.124.337 2.273-.196 3.501-.538 1.236-1.577 2.558-3.207 4.003-1.628 1.444-3.834 3-6.689 4.709-5.708 3.418-13.984 7.429-25.355 12.352-45.48 19.69-131.71 50.171-211.224 65.007-39.758 7.419-77.82 10.923-108.26 7.22-30.45-3.703-53.202-14.606-62.471-35.926-37.232-85.638 6.22-186.968 97.091-226.31 90.873-39.342 194.708-1.779 231.94 83.86Z"/><path stroke="url(#l)" stroke-width=".5" d="M322.723 204.093c19.058 38.949 51.938 54.856 72.883 64.988a656.36 656.36 0 0 1 4.833 2.354c5.1 2.52 9.149 4.707 11.676 6.906 1.261 1.098 2.125 2.184 2.557 3.298.429 1.106.439 2.256-.039 3.507-.481 1.258-1.46 2.625-3.023 4.142-1.562 1.515-3.696 3.169-6.47 5.004-5.55 3.669-13.637 8.047-24.775 13.474-44.549 21.706-129.322 56.015-208.089 74.396-39.385 9.191-77.25 14.395-107.828 12.058-30.586-2.337-53.804-12.21-64.022-33.094-41.044-83.885-2.19-187.057 86.822-230.427 89.012-43.37 194.432-10.492 235.475 73.394Z"/><path stroke="url(#m)" stroke-width=".5" d="M320.537 197.386c20.794 38.055 54.358 52.469 75.738 61.65 1.729.743 3.378 1.451 4.934 2.135 5.209 2.288 9.353 4.292 11.976 6.375 1.309 1.04 2.221 2.086 2.703 3.18.479 1.085.541 2.234.12 3.505-.424 1.279-1.34 2.688-2.834 4.273-1.492 1.584-3.549 3.332-6.238 5.29-5.378 3.915-13.26 8.651-24.142 14.572-43.526 23.685-126.666 61.765-204.524 83.664-38.931 10.95-76.524 17.848-107.175 16.887-30.66-.962-54.3-9.782-65.45-30.186-44.784-81.959-10.622-186.77 76.345-234.093 86.967-47.322 193.762-19.21 238.547 62.748Z"/><path stroke="url(#n)" stroke-width=".5" d="M318.133 190.988c22.435 37.115 56.597 50.056 78.357 58.3 1.76.666 3.438 1.302 5.023 1.918 5.304 2.059 9.531 3.881 12.242 5.848 1.354.983 2.311 1.988 2.84 3.059.526 1.064.638 2.209.273 3.497-.368 1.296-1.222 2.744-2.645 4.393-1.421 1.647-3.4 3.482-6.001 5.555-5.202 4.145-12.869 9.219-23.483 15.608-42.451 25.554-123.85 67.212-200.679 92.474-38.416 12.631-75.671 21.157-106.336 21.529-30.673.373-54.675-7.412-66.705-27.312C-37.3 295.923-7.745 189.725 77.074 138.668c84.819-51.057 192.74-27.614 241.059 52.32Z"/><path stroke="url(#o)" stroke-width=".5" d="M316.057 186.059c23.691 36.329 58.275 48.101 80.305 55.599 1.781.606 3.481 1.185 5.085 1.746 5.371 1.878 9.658 3.554 12.435 5.429 1.387.935 2.378 1.907 2.943 2.96.561 1.045.713 2.186.392 3.485-.323 1.308-1.127 2.784-2.493 4.48-1.364 1.695-3.279 3.597-5.808 5.757-5.057 4.32-12.547 9.652-22.935 16.398-41.553 26.984-121.482 71.388-197.402 99.25-37.962 13.932-74.904 23.721-105.538 25.136-30.643 1.416-54.898-5.547-67.6-25.026-51.023-78.243-25.115-185.385 57.91-239.299 83.024-53.914 191.684-34.158 242.706 44.085Z"/><path stroke="url(#p)" stroke-width=".5" d="M313.047 179.63c25.314 35.223 60.396 45.421 82.743 51.917a659.3 659.3 0 0 1 5.16 1.514c5.45 1.634 9.809 3.115 12.668 4.862 1.427.872 2.461 1.799 3.074 2.825.608 1.018.811 2.151.549 3.464-.263 1.321-.999 2.832-2.287 4.588-1.286 1.754-3.113 3.741-5.541 6.012-4.856 4.544-12.096 10.209-22.168 17.417-40.288 28.832-118.121 76.8-192.7 108.06-37.292 15.632-73.753 27.078-104.291 29.875-30.547 2.798-55.093-3.063-68.665-21.949-54.518-75.859-33.493-184.061 47.002-241.668S258.53 103.77 313.047 179.63Z"/><path stroke="url(#q)" stroke-width=".5" d="M310.263 174.283c26.652 34.226 62.1 43.071 84.681 48.705 1.826.456 3.568.891 5.214 1.316 5.51 1.423 9.922 2.736 12.846 4.372 1.46.817 2.529 1.703 3.181 2.705.647.995.893 2.119.682 3.441-.212 1.33-.89 2.868-2.109 4.672-1.217 1.802-2.966 3.857-5.305 6.221-4.678 4.726-11.694 10.665-21.482 18.254-39.147 30.355-115.076 81.271-188.396 115.369-36.663 17.05-72.656 29.886-103.064 33.852-30.416 3.967-55.17-.949-69.46-19.3-57.398-73.713-40.555-182.641 37.663-243.292 78.217-60.651 188.151-50.028 245.549 23.685Z"/><path stroke="url(#r)" stroke-width=".5" d="M306.976 168.546c28.073 33.076 63.864 40.422 86.662 45.102 1.844.378 3.603.739 5.265 1.095 5.565 1.19 10.029 2.317 13.02 3.828 1.493.755 2.598 1.595 3.292 2.569.688.966.982 2.079.827 3.409-.157 1.338-.768 2.903-1.91 4.756-1.14 1.852-2.801 3.979-5.038 6.439-4.474 4.919-11.233 11.147-20.692 19.141-37.83 31.975-111.541 86.039-183.357 123.19-35.909 18.576-71.328 32.914-101.542 38.155-30.222 5.243-55.16 1.373-70.213-16.362-60.46-71.233-48.233-180.772 27.354-244.659 75.587-63.887 185.872-57.896 246.332 13.337Z"/><path stroke="url(#s)" stroke-width=".5" d="M302.897 162.122c29.647 31.678 65.752 37.284 88.752 40.855 1.859.289 3.634.565 5.312.84 5.616.92 10.129 1.829 13.19 3.194 1.528.681 2.673 1.467 3.413 2.406.734.932 1.082 2.029.991 3.365-.091 1.344-.626 2.937-1.676 4.843-1.049 1.905-2.604 4.11-4.719 6.675-4.23 5.13-10.679 11.677-19.738 20.12-36.232 33.767-107.23 91.334-177.156 131.915-34.965 20.292-69.646 36.327-99.57 43.023-29.931 6.699-55.029 4.04-70.925-12.945-63.85-68.226-56.958-178.227 15.436-245.696 72.394-67.468 182.84-66.82 246.69 1.405Z"/><path stroke="url(#t)" stroke-width=".5" d="M298.453 155.825c31.17 30.187 67.508 34.017 90.655 36.456 1.872.197 3.657.386 5.347.578 5.655.643 10.207 1.33 13.331 2.544 1.56.605 2.742 1.334 3.528 2.236.779.895 1.18 1.974 1.156 3.312-.025 1.347-.481 2.964-1.436 4.92-.954 1.954-2.399 4.232-4.385 6.897-3.972 5.331-10.091 12.187-18.723 21.063-34.527 35.503-102.606 96.48-170.45 140.44-33.924 21.981-67.774 39.697-97.331 47.852-29.566 8.158-54.764 6.732-71.477-9.454-67.131-65.013-65.662-175.22 3.323-246.155 68.986-70.935 179.331-75.702 246.462-10.689Z"/><path stroke="url(#u)" stroke-width=".5" d="M293.215 149.161c32.758 28.463 69.25 30.329 92.495 31.518 1.88.096 3.673.188 5.371.289 5.681.338 10.264.778 13.449 1.821 1.59.521 2.81 1.185 3.643 2.043.827.852 1.286 1.908 1.334 3.245.048 1.347-.32 2.986-1.167 4.99-.847 2.003-2.167 4.356-4.006 7.124-3.678 5.537-9.417 12.713-17.556 22.041-32.555 37.311-97.235 101.868-162.602 149.419-32.685 23.777-65.527 43.291-94.6 53.027-29.082 9.739-54.32 9.673-71.885-5.589-70.55-61.301-75.047-171.426-10-245.975s174.973-85.254 245.524-23.953Z"/><path stroke="url(#v)" stroke-width=".5" d="M287.857 143.043c34.192 26.731 70.732 26.708 94.008 26.693 1.882-.001 3.678-.002 5.378.011 5.691.044 10.291.247 13.526 1.124 1.615.438 2.868 1.038 3.745 1.852.869.808 1.382 1.838 1.5 3.172.118 1.341-.164 2.998-.907 5.043-.742 2.044-1.937 4.462-3.63 7.322-3.386 5.719-8.744 13.182-16.388 22.919-30.575 38.944-91.816 106.758-154.627 157.625-31.406 25.434-63.191 46.62-91.72 57.846-28.536 11.229-53.744 12.468-72.077-1.865-73.64-57.571-83.847-167.316-22.758-245.128 61.089-77.811 170.311-94.186 243.95-36.614Z"/><path stroke="url(#w)" stroke-width=".5" d="M282.755 137.762c35.407 25.106 71.906 23.378 95.156 22.278 1.88-.09 3.673-.174 5.372-.241 5.687-.222 10.291-.233 13.564.492 1.634.362 2.914.903 3.827 1.675.907.766 1.468 1.772 1.648 3.098.181 1.335-.024 3.003-.67 5.08-.645 2.077-1.726 4.548-3.283 7.483-3.114 5.872-8.117 13.577-15.296 23.659-28.716 40.328-86.713 110.926-147.071 164.668-30.18 26.873-60.937 49.518-88.909 62.063-27.979 12.549-53.102 14.963-72.086 1.501C-1.25 375.446-16.59 266.297 40.787 185.72 98.163 105.143 206.5 83.69 282.755 137.762Z"/><path stroke="url(#x)" stroke-width=".5" d="M278.067 133.322c36.412 23.631 72.809 20.407 95.993 18.353 1.875-.166 3.664-.325 5.359-.461 5.673-.455 10.272-.656 13.573-.066 1.647.295 2.948.783 3.892 1.517.938.728 1.54 1.71 1.774 3.028.236 1.326.1 3.001-.459 5.104-.56 2.1-1.538 4.614-2.972 7.611-2.87 5.994-7.551 13.898-14.309 24.267-27.029 41.472-82.067 114.39-140.159 170.565-29.047 28.088-58.844 51.977-86.275 65.66-27.438 13.686-52.44 17.129-71.964 4.458C4.1 382.462-15.725 274.035 38.28 191.171c54.007-82.864 161.366-108.746 239.787-57.849Z"/><path stroke="url(#y)" stroke-width=".5" d="M272.454 128.458c37.491 21.886 73.694 16.947 96.756 13.801 1.865-.255 3.644-.497 5.33-.713 5.645-.722 10.23-1.14 13.555-.706 1.659.216 2.982.642 3.96 1.331.972.683 1.619 1.635 1.915 2.941.299 1.313.243 2.992-.216 5.119-.459 2.125-1.317 4.682-2.608 7.743-2.582 6.123-6.884 14.239-13.142 24.915-25.034 42.702-76.553 118.137-131.917 176.99-27.683 29.429-56.315 54.697-83.067 69.659-26.758 14.966-51.569 19.586-71.671 7.851-80.746-47.138-105.688-154.507-55.67-239.828 50.017-85.32 156.03-116.241 236.775-69.103Z"/><path stroke="url(#z)" stroke-width=".5" d="M267.229 124.321c38.388 20.28 74.348 13.812 97.255 9.692 1.853-.333 3.62-.651 5.296-.938 5.609-.961 10.172-1.572 13.512-1.279 1.667.146 3.007.515 4.013 1.162 1 .641 1.687 1.565 2.039 2.857.354 1.3.369 2.98.001 5.124-.368 2.143-1.117 4.733-2.276 7.847-2.32 6.226-6.272 14.517-12.071 25.448-23.195 43.724-71.461 121.272-124.272 182.417-26.407 30.574-53.939 57.032-80.03 73.114-26.098 16.085-50.69 21.751-71.273 10.878C16.746 396.967-12.74 290.75 33.605 203.389c46.344-87.362 150.947-122.744 233.624-79.068Z"/><path stroke="url(#A)" stroke-width=".5" d="M261.911 120.466c39.204 18.66 74.862 10.696 97.576 5.624 1.837-.41 3.589-.802 5.252-1.158 5.564-1.195 10.097-1.996 13.447-1.843 1.672.076 3.025.39 4.058.994 1.026.599 1.751 1.493 2.157 2.769.408 1.284.494 2.962.216 5.12-.278 2.156-.918 4.775-1.946 7.934-2.056 6.319-5.657 14.767-10.993 25.931-21.342 44.654-66.314 124.149-116.516 187.445-25.102 31.649-51.501 59.234-76.895 76.39-25.401 17.161-49.734 23.849-70.755 13.844C23.076 403.33-10.836 298.437 31.806 209.217c42.642-89.219 145.669-128.937 230.105-88.751Z"/><path stroke="url(#B)" stroke-width=".5" d="M256.71 117.013c39.917 17.089 75.23 7.718 97.724 1.748 1.819-.482 3.554-.943 5.201-1.365 5.512-1.414 10.01-2.395 13.363-2.375 1.673.01 3.039.27 4.095.832 1.048.558 1.809 1.423 2.265 2.682.459 1.267.612 2.94.42 5.107-.192 2.165-.727 4.808-1.628 8.005-1.803 6.395-5.065 14.98-9.952 26.347-19.546 45.465-61.317 126.681-108.958 191.918-23.822 32.62-49.101 61.229-73.792 79.38-24.697 18.155-48.744 25.802-70.147 16.639C29.331 409.125-8.732 305.66 30.322 214.82c39.055-90.841 140.419-134.613 226.388-97.807Z"/><path stroke="url(#C)" stroke-width=".5" d="M251.624 113.913c40.538 15.566 75.469 4.864 97.72-1.952 1.799-.551 3.515-1.077 5.145-1.562 5.454-1.621 9.912-2.771 13.263-2.878 1.673-.054 3.047.154 4.124.676 1.069.518 1.862 1.354 2.365 2.594.507 1.249.723 2.915.614 5.087-.11 2.171-.543 4.833-1.323 8.062-1.558 6.458-4.491 15.16-8.943 26.704-17.804 46.172-56.457 128.911-101.584 195.904-22.564 33.499-46.737 63.045-70.72 82.117-23.99 19.077-47.729 27.629-69.465 19.282C35.513 414.423-6.456 312.473 29.117 220.22c35.573-92.254 135.2-139.832 222.507-106.307Z"/><path stroke="url(#D)" stroke-width=".5" d="M247.735 111.713c40.965 14.409 75.577 2.72 97.625-4.725 1.783-.602 3.483-1.177 5.099-1.707 5.406-1.776 9.829-3.052 13.175-3.254 1.671-.101 3.05.068 4.142.559 1.083.488 1.899 1.3 2.438 2.526.542 1.234.806 2.893.758 5.068-.047 2.173-.405 4.846-1.092 8.095-1.373 6.501-4.058 15.282-8.178 26.947-16.481 46.659-52.76 130.462-95.959 198.709-21.601 34.126-44.922 64.346-68.352 84.091-23.436 19.75-46.922 28.972-68.887 21.246C40.277 418.235-4.581 317.518 28.348 224.292c32.93-93.226 131.16-143.613 219.387-112.579Z"/><path stroke="url(#E)" stroke-width=".5" d="M243.273 109.365c41.407 13.09 75.625.299 97.422-7.848 1.763-.659 3.444-1.288 5.042-1.87 5.346-1.948 9.725-3.365 13.064-3.674 1.666-.154 3.05-.03 4.157.426 1.098.453 1.941 1.239 2.518 2.447.582 1.216.899 2.865.921 5.041.022 2.173-.249 4.856-.831 8.126-1.164 6.541-3.564 15.404-7.307 27.195-14.972 47.163-48.538 132.084-89.52 201.68-20.492 34.799-42.829 65.751-65.612 86.236-22.788 20.49-45.966 30.46-68.168 23.441-89.18-28.191-137.253-127.42-107.34-221.652 29.915-94.232 126.474-147.74 215.654-119.548Z"/><path stroke="url(#F)" stroke-width=".5" d="M238.371 106.993c41.837 11.65 75.59-2.318 97.09-11.215 1.739-.719 3.398-1.405 4.974-2.042 5.275-2.132 9.603-3.7 12.928-4.124 1.661-.212 3.048-.136 4.17.282 1.114.414 1.983 1.17 2.602 2.358.623 1.195.997 2.833 1.095 5.006.098 2.171-.08 4.862-.548 8.15-.936 6.577-3.027 15.518-6.358 27.432-13.324 47.652-43.919 133.683-82.458 204.655-19.271 35.488-40.519 67.194-62.576 88.455-22.063 21.266-44.88 32.032-67.313 25.786C51.871 426.647.379 329.141 27.001 233.931 53.623 138.72 148.265 81.904 238.37 106.993Z"/><path stroke="url(#G)" stroke-width=".5" d="M234.168 105.122c42.161 10.421 75.49-4.526 96.72-14.048 1.717-.77 3.355-1.504 4.912-2.187 5.21-2.285 9.49-3.979 12.802-4.5 1.653-.26 3.042-.225 4.176.16 1.125.382 2.016 1.112 2.67 2.281.658 1.176 1.08 2.802 1.242 4.972.161 2.168.062 4.862-.309 8.163-.743 6.601-2.57 15.599-5.551 27.605-11.919 48.021-39.976 134.91-76.416 206.978-18.221 36.035-38.529 68.349-59.953 90.245-21.43 21.902-43.921 33.33-66.527 27.742C57.13 430.088 2.798 334.13 26.614 238.182c23.817-95.948 116.751-155.505 207.554-133.06Z"/><path stroke="url(#H)" stroke-width=".5" d="M229.742 103.308c42.459 9.135 75.316-6.819 96.246-16.981 1.693-.822 3.307-1.606 4.842-2.336 5.139-2.442 9.365-4.265 12.659-4.887 1.645-.31 3.035-.317 4.179.033 1.137.347 2.049 1.05 2.739 2.199.693 1.155 1.165 2.768 1.393 4.932.227 2.162.21 4.858-.06 8.168-.541 6.621-2.093 15.67-4.705 27.761-10.449 48.362-35.84 136.063-70.063 209.205-17.113 36.573-36.426 69.488-57.171 92.025-20.751 22.544-42.883 34.65-65.65 29.752C62.705 433.505 5.469 339.242 26.346 242.615c20.876-96.628 111.949-158.982 203.396-139.307Z"/><path stroke="url(#I)" stroke-width=".5" d="M225.567 101.738c42.702 7.928 75.092-8.95 95.724-19.702 1.669-.87 3.26-1.699 4.774-2.472 5.067-2.586 9.239-4.528 12.515-5.243 1.635-.357 3.024-.403 4.178-.086 1.146.315 2.078.992 2.8 2.12.726 1.136 1.243 2.735 1.533 4.891.289 2.154.349 4.85.173 8.167-.352 6.633-1.647 15.723-3.914 27.883-9.068 48.638-31.954 137.023-64.082 211.106-16.064 37.043-34.433 70.492-54.529 93.608-20.101 23.123-41.879 35.851-64.776 31.6C67.993 436.535 8.098 343.932 26.217 246.752c18.118-97.18 107.38-162.09 199.35-145.014Z"/><path stroke="url(#J)" stroke-width=".5" d="M221.078 100.197c42.923 6.638 74.787-11.21 95.085-22.577 1.641-.92 3.207-1.797 4.697-2.615 4.986-2.738 9.097-4.805 12.35-5.618 1.623-.406 3.01-.494 4.174-.212 1.154.28 2.107.93 2.862 2.035.761 1.113 1.326 2.696 1.68 4.842.354 2.145.496 4.837.42 8.158-.151 6.641-1.169 15.766-3.067 27.989-7.592 48.889-27.793 137.923-57.665 212.94-14.936 37.51-32.284 71.498-51.671 95.209-19.392 23.718-40.776 37.097-63.791 33.538C73.708 439.59 11.038 348.834 26.208 251.153c15.169-97.682 102.426-165.252 194.87-150.956Z"/><path stroke="url(#K)" stroke-width=".5" d="M215.78 98.571c43.131 5.123 74.344-13.834 94.227-25.91a663.248 663.248 0 0 1 4.602-2.778c4.886-2.912 8.922-5.123 12.144-6.05 1.608-.463 2.991-.6 4.163-.358 1.164.24 2.139.854 2.933 1.933.8 1.085 1.42 2.647 1.85 4.78.43 2.13.667 4.816.709 8.137.083 6.643-.612 15.798-2.077 28.08-5.859 49.125-22.899 138.816-50.101 214.837-13.601 38.013-29.736 72.59-48.273 96.969-18.542 24.386-39.439 38.509-62.566 35.763-92.892-11.033-158.73-99.526-147.024-197.681C38.074 158.138 122.888 87.538 215.78 98.571Z"/><path stroke="url(#L)" stroke-width=".5" d="M210.094 97.05c43.293 3.506 73.773-16.604 93.189-29.415a664.053 664.053 0 0 1 4.494-2.948c4.773-3.093 8.724-5.452 11.908-6.5 1.59-.522 2.967-.71 4.148-.513 1.172.196 2.169.774 3.003 1.822.84 1.055 1.519 2.592 2.028 4.707.51 2.114.847 4.789 1.014 8.106.333 6.635-.019 15.809-1.021 28.137-4.012 49.311-17.674 139.575-42.002 216.56-12.165 38.494-26.992 73.65-44.6 98.705-17.614 25.061-37.966 39.956-61.179 38.076C87.835 446.234 18.72 360.264 26.734 261.74c8.015-98.523 90.119-172.244 183.36-164.69Z"/><path stroke="url(#M)" stroke-width=".5" d="M203.834 95.635c43.401 1.739 73.032-19.597 91.907-33.188 1.527-1.1 2.983-2.148 4.37-3.13 4.643-3.284 8.493-5.803 11.632-6.979 1.567-.587 2.935-.83 4.123-.682 1.179.148 2.199.685 3.076 1.698.882 1.02 1.623 2.528 2.219 4.621.595 2.09 1.042 4.75 1.344 8.058.604 6.615.629 15.796.131 28.155-1.989 49.433-11.945 140.179-33.102 218.091-10.58 38.958-23.954 74.689-40.523 100.44-16.573 25.759-36.299 41.471-59.57 40.538-93.472-3.746-166.048-86.827-162.073-185.595 3.975-98.768 82.994-175.774 176.466-172.027Z"/><path stroke="url(#N)" stroke-width=".5" d="M197.826 94.527c43.436.054 72.213-22.416 90.545-36.73a650.301 650.301 0 0 1 4.244-3.296c4.511-3.462 8.261-6.128 11.351-7.425 1.543-.648 2.901-.944 4.094-.842 1.184.102 2.224.599 3.139 1.578.921.984 1.72 2.463 2.398 4.53.676 2.067 1.226 4.707 1.657 8 .861 6.587 1.244 15.76 1.228 28.129-.061 49.472-6.474 140.536-24.579 219.21-9.053 39.34-21.025 75.563-36.578 101.938-15.557 26.382-34.655 42.847-57.945 42.818-93.547-.116-169.306-80.318-169.183-179.165.124-98.848 76.082-178.861 169.629-178.745Z"/><path stroke="url(#O)" stroke-width=".5" d="M190.649 93.515c43.392-1.945 71.1-25.715 88.751-40.857a672.144 672.144 0 0 1 4.087-3.487c4.347-3.667 7.969-6.503 10.997-7.94 1.511-.718 2.853-1.077 4.05-1.03 1.187.048 2.249.496 3.209 1.432.965.941 1.832 2.381 2.604 4.416.771 2.033 1.442 4.644 2.025 7.914 1.165 6.541 1.971 15.686 2.527 28.043 2.225 49.423.027 140.684-14.423 220.108-7.226 39.714-17.511 76.449-31.829 103.512-14.321 27.07-32.638 44.397-55.904 45.44-93.454 4.188-172.838-72.442-177.282-171.19-4.445-98.748 67.735-182.172 161.188-186.36Z"/><path stroke="url(#P)" stroke-width=".5" d="M183.59 92.843c43.259-3.896 69.865-28.89 86.812-44.811 1.371-1.288 2.678-2.516 3.926-3.668 4.176-3.859 7.667-6.855 10.626-8.428 1.477-.785 2.802-1.204 4-1.21 1.188-.006 2.269.394 3.27 1.285 1.007.897 1.938 2.297 2.801 4.294.863 1.997 1.651 4.575 2.381 7.816 1.46 6.481 2.678 15.581 3.793 27.9 4.457 49.272 6.388 140.54-4.456 220.534-5.422 39.998-14.037 77.159-27.116 104.839-13.082 27.687-30.597 45.821-53.792 47.911-93.169 8.392-175.938-64.586-184.843-163.033-8.905-98.447 59.429-185.036 152.598-193.429Z"/><path stroke="url(#Q)" stroke-width=".5" d="M177.479 92.52c43.074-5.575 68.685-31.584 84.998-48.151a650.326 650.326 0 0 1 3.78-3.818c4.022-4.018 7.393-7.147 10.289-8.834 1.446-.842 2.753-1.312 3.949-1.365 1.187-.052 2.283.306 3.318 1.158 1.042.857 2.027 2.22 2.967 4.182.94 1.96 1.828 4.507 2.684 7.717 1.711 6.42 3.284 15.465 4.878 27.731 6.376 49.062 11.867 140.186 4.152 220.54-3.858 40.179-11.016 77.647-23.005 105.814-11.992 28.174-28.786 46.975-51.883 49.964-92.77 12.006-178.323-57.701-191.063-155.728-12.74-98.026 52.165-187.205 144.936-199.21Z"/><path stroke="url(#R)" stroke-width=".5" d="M172.35 92.434c42.869-6.974 67.615-33.803 83.378-50.893 1.275-1.382 2.491-2.7 3.653-3.94 3.889-4.146 7.155-7.384 9.994-9.164 1.417-.888 2.709-1.4 3.903-1.492 1.185-.091 2.292.23 3.354 1.048 1.069.823 2.098 2.152 3.102 4.084 1.003 1.929 1.975 4.445 2.935 7.625 1.92 6.36 3.788 15.35 5.783 27.558 7.977 48.828 16.446 139.724 11.364 220.287-2.541 40.283-8.47 77.964-19.531 106.506-11.064 28.55-27.235 47.888-50.221 51.628-92.328 15.022-180.116-51.861-196.055-149.42-15.94-97.56 46.012-188.805 138.341-203.827Z"/><path stroke="url(#S)" stroke-width=".5" d="M166.823 92.528c42.597-8.475 66.381-36.156 81.532-53.79a672.658 672.658 0 0 1 3.511-4.064c3.741-4.28 6.891-7.631 9.666-9.51 1.385-.937 2.657-1.495 3.847-1.629 1.181-.132 2.299.15 3.389.93 1.097.785 2.172 2.078 3.244 3.972 1.071 1.893 2.13 4.374 3.202 7.518 2.144 6.29 4.327 15.208 6.751 27.338 9.694 48.517 21.363 139.06 19.125 219.751-1.12 40.348-5.716 78.213-15.764 107.127-10.05 28.921-25.529 48.814-48.369 53.359-91.742 18.254-181.833-45.505-201.203-142.444-19.37-96.939 39.327-190.303 131.069-208.558Z"/><path stroke="url(#T)" stroke-width=".5" d="M161.312 92.815c42.272-9.963 65.067-38.46 79.588-56.614a683.988 683.988 0 0 1 3.366-4.185c3.588-4.41 6.619-7.868 9.325-9.842 1.351-.986 2.604-1.588 3.788-1.763 1.175-.174 2.302.07 3.42.81 1.124.747 2.244 2 3.381 3.856 1.137 1.855 2.283 4.296 3.465 7.401 2.364 6.21 4.86 15.047 7.709 27.085 11.396 48.147 26.244 138.225 26.846 218.945.302 40.362-2.959 78.365-11.983 107.613-9.027 29.255-23.796 49.679-46.462 55.021-91.043 21.459-183.322-39.104-206.091-135.304-22.77-96.201 32.605-191.565 123.648-213.023Z"/><path stroke="url(#U)" stroke-width=".5" d="M155.427 93.337c41.867-11.542 63.573-40.875 77.4-59.56a672.644 672.644 0 0 1 3.206-4.308c3.419-4.54 6.317-8.11 8.948-10.186 1.313-1.035 2.541-1.684 3.718-1.903 1.168-.218 2.304-.017 3.448.682 1.151.703 2.318 1.914 3.525 3.726 1.205 1.81 2.443 4.207 3.741 7.266 2.596 6.117 5.423 14.854 8.723 26.776 13.202 47.686 31.432 137.143 35.075 217.783 1.822 40.323-.005 78.421-7.921 107.987-7.918 29.573-21.907 50.536-44.356 56.725-90.17 24.858-184.666-32.2-211.043-127.478-26.377-95.279 25.366-192.652 115.536-217.51Z"/><path stroke="url(#V)" stroke-width=".5" d="M14.094 250.886c-7.801-42.64-35.151-66.821-52.573-82.224-1.408-1.246-2.752-2.434-4.016-3.57-4.228-3.801-7.534-6.999-9.37-9.798-.918-1.397-1.456-2.676-1.57-3.864-.114-1.18.188-2.291.987-3.366.804-1.082 2.117-2.134 4.032-3.173 1.915-1.037 4.417-2.054 7.585-3.073 6.337-2.036 15.308-4.07 27.501-6.292 48.77-8.885 139.681-19.058 220.495-15.514 40.408 1.772 78.274 6.972 107.081 17.467 28.815 10.498 48.496 26.265 52.679 49.128 16.8 91.832-48.546 180.689-145.991 198.442-97.446 17.752-190.04-42.33-206.84-134.163Z"/><path stroke="url(#W)" stroke-width=".5" d="M14.328 257.061c-9.478-42.301-37.761-65.388-55.777-80.094-1.457-1.19-2.847-2.324-4.154-3.409-4.375-3.633-7.804-6.698-9.75-9.423-.972-1.359-1.56-2.616-1.721-3.799-.16-1.175.097-2.297.853-3.402.76-1.113 2.031-2.216 3.904-3.329 1.872-1.112 4.332-2.227 7.458-3.369 6.251-2.284 15.135-4.669 27.231-7.368 48.382-10.795 138.82-24.534 219.711-24.17 40.447.182 78.489 3.89 107.688 13.245 29.207 9.357 49.495 24.338 54.577 47.018 20.413 91.101-41.375 182.457-138.044 204.027-96.669 21.569-191.563-34.826-211.976-125.927Z"/><path stroke="url(#X)" stroke-width=".5" d="M14.935 264.481c-11.48-41.804-40.83-63.525-59.525-77.361-1.512-1.119-2.954-2.186-4.311-3.208-4.543-3.421-8.115-6.321-10.188-8.95-1.035-1.312-1.682-2.539-1.9-3.714-.215-1.166-.012-2.298.69-3.439.708-1.147 1.924-2.309 3.742-3.509 1.817-1.2 4.221-2.43 7.289-3.719 6.135-2.578 14.896-5.381 26.85-8.65 47.814-13.076 137.496-31.084 218.313-34.553 40.41-1.735 78.585.166 108.197 8.126 29.619 7.963 50.597 21.966 56.752 44.38 24.725 90.031-32.646 184.212-128.18 210.337-95.533 26.126-193.004-25.709-217.728-115.74Z"/><path stroke="url(#Y)" stroke-width=".5" d="M16.056 272.254c-12.805-41.418-42.831-62.198-61.958-75.435a629.903 629.903 0 0 1-4.41-3.07c-4.65-3.275-8.312-6.06-10.469-8.622-1.076-1.279-1.762-2.485-2.016-3.652-.253-1.158-.086-2.296.58-3.459.67-1.169 1.849-2.369 3.628-3.626 1.778-1.257 4.142-2.562 7.167-3.948 6.05-2.771 14.717-5.85 26.561-9.497 47.373-14.584 136.437-35.426 217.103-41.456 40.335-3.014 78.551-2.324 108.401 4.694 29.857 7.019 51.271 20.35 58.136 42.558 27.578 89.202-26.766 185.153-121.42 214.294-94.654 29.141-193.725-19.579-221.303-108.781Z"/><path stroke="url(#Z)" stroke-width=".5" d="M17.122 278.91c-14.577-40.831-45.47-60.304-65.15-72.708-1.59-1.003-3.109-1.959-4.539-2.878-4.786-3.072-8.565-5.698-10.829-8.165-1.13-1.231-1.867-2.407-2.172-3.562-.303-1.146-.184-2.291.43-3.48.62-1.197 1.746-2.447 3.469-3.779 1.722-1.332 4.028-2.737 6.99-4.251 5.925-3.028 14.452-6.477 26.128-10.628 46.701-16.603 134.785-41.246 215.116-50.729 40.168-4.742 78.379-5.692 108.503.039 30.133 5.733 52.1 18.133 59.916 40.026 31.394 87.936-18.767 186.13-112.078 219.304-93.311 33.174-194.39-11.252-225.784-99.189Z"/><path stroke="url(#aa)" stroke-width=".5" d="M18.327 284.86c-16.15-40.237-47.776-58.502-67.921-70.136-1.63-.941-3.183-1.838-4.648-2.7-4.902-2.886-8.78-5.363-11.138-7.741-1.177-1.187-1.96-2.333-2.309-3.476-.347-1.134-.273-2.282.296-3.494.572-1.22 1.649-2.512 3.319-3.91 1.669-1.397 3.918-2.891 6.82-4.518 5.803-3.255 14.19-7.03 25.696-11.629 46.022-18.395 133.083-46.422 212.987-59.002 39.953-6.29 78.099-8.715 108.423-4.152 30.332 4.564 52.764 16.106 61.424 37.68 34.782 86.658-11.532 186.716-103.487 223.47-91.954 36.754-194.68-3.734-229.462-90.392Z"/><path stroke="url(#ab)" stroke-width=".5" d="M19.81 290.946c-17.747-39.562-50.078-56.551-70.673-67.374a659.002 659.002 0 0 1-4.752-2.513c-5.014-2.688-8.987-5.008-11.44-7.29-1.223-1.139-2.05-2.254-2.445-3.381-.392-1.119-.364-2.27.155-3.504.523-1.242 1.547-2.575 3.16-4.039 1.612-1.462 3.8-3.045 6.634-4.786 5.668-3.483 13.897-7.59 25.21-12.644 45.249-20.214 131.12-51.689 210.456-67.443 39.67-7.878 77.687-11.821 108.17-8.47 30.491 3.351 53.367 13.99 62.883 35.202 38.223 85.203-4.05 187.027-94.46 227.416-90.41 40.389-194.674 4.028-232.897-81.174Z"/><path stroke="url(#ac)" stroke-width=".5" d="M21.23 295.958c-19.055-38.951-51.934-54.86-72.878-64.993-1.693-.82-3.309-1.601-4.833-2.355-5.1-2.52-9.149-4.708-11.675-6.907-1.261-1.098-2.125-2.184-2.557-3.298-.43-1.105-.44-2.256.039-3.507.48-1.258 1.46-2.625 3.023-4.141 1.562-1.515 3.696-3.169 6.47-5.004 5.55-3.669 13.638-8.046 24.776-13.472 44.551-21.703 129.327-56.007 208.095-74.382 39.386-9.188 77.251-14.389 107.829-12.051 30.585 2.34 53.803 12.214 64.019 33.099 41.038 83.889 2.178 187.058-86.838 230.422-89.015 43.363-194.433 10.478-235.47-73.411Z"/><path stroke="url(#ad)" stroke-width=".5" d="M23.51 302.931c-20.86-38.019-54.448-52.376-75.844-61.522-1.73-.739-3.38-1.445-4.938-2.126-5.213-2.279-9.36-4.276-11.986-6.355-1.312-1.038-2.226-2.082-2.71-3.175-.48-1.084-.544-2.233-.125-3.505.422-1.279 1.336-2.69 2.827-4.278 1.489-1.586 3.543-3.338 6.229-5.3 5.371-3.924 13.245-8.674 24.117-14.614 43.485-23.758 126.56-61.979 204.381-84.01 38.913-11.015 76.493-17.978 107.146-17.069 30.662.91 54.317 9.691 65.501 30.076 44.924 81.882 10.94 186.751-75.946 234.221-86.887 47.47-193.73 19.539-238.653-62.343Z"/><path stroke="url(#ae)" stroke-width=".5" d="M25.94 309.367c-22.51-37.07-56.696-49.943-78.473-58.144-1.761-.663-3.441-1.295-5.027-1.908-5.308-2.049-9.538-3.862-12.254-5.824-1.356-.979-2.315-1.983-2.846-3.053-.527-1.063-.642-2.208-.28-3.496.366-1.297 1.217-2.747 2.636-4.398 1.418-1.65 3.394-3.49 5.99-5.568 5.194-4.155 12.851-9.245 23.452-15.655 42.4-25.638 123.715-67.458 200.493-92.873 38.391-12.709 75.629-21.309 106.293-21.742 30.672-.433 54.69 7.304 66.759 27.18 48.479 79.837 19.137 186.093-65.58 237.32-84.716 51.226-192.683 27.998-241.162-51.839Z"/><path stroke="url(#af)" stroke-width=".5" d="M28.734 315.87c-24.163-36.019-58.897-47.34-81.023-54.551-1.789-.583-3.496-1.14-5.108-1.68-5.395-1.808-9.703-3.429-12.504-5.267-1.399-.917-2.402-1.876-2.982-2.922-.575-1.037-.74-2.176-.437-3.48.306-1.312 1.091-2.798 2.434-4.512 1.342-1.712 3.233-3.639 5.733-5.831 5-4.385 12.42-9.814 22.72-16.695 41.197-27.521 120.539-72.96 196.089-101.806 37.777-14.424 74.589-24.692 105.202-26.505 30.621-1.814 54.965 4.834 67.92 24.146 52.04 77.573 27.531 185.042-54.783 240.031-82.314 54.988-191.221 36.645-243.26-40.928Z"/><path stroke="url(#ag)" stroke-width=".5" d="M31.801 322.201c-25.757-34.901-60.965-44.656-83.393-50.87a622.786 622.786 0 0 1-5.178-1.449c-5.471-1.565-9.848-2.991-12.73-4.702-1.438-.854-2.483-1.767-3.109-2.786-.62-1.01-.838-2.14-.593-3.456.247-1.325.964-2.845 2.229-4.617 1.264-1.77 3.065-3.78 5.465-6.082 4.798-4.604 11.966-10.36 21.946-17.695 39.919-29.337 117.139-78.282 191.317-110.48 37.09-16.1 73.403-28.006 103.904-31.188 30.509-3.182 55.127 2.37 68.937 21.082 55.474 75.167 35.821 183.624-43.939 242.242-79.76 58.617-189.382 45.167-244.856-29.999Z"/><path stroke="url(#ah)" stroke-width=".5" d="M35.16 328.412c-27.305-33.71-62.917-41.874-85.602-47.074-1.835-.421-3.584-.822-5.239-1.216-5.536-1.317-9.972-2.546-12.928-4.125-1.475-.789-2.56-1.655-3.232-2.644-.666-.982-.934-2.101-.748-3.427.187-1.334.835-2.884 2.018-4.711 1.183-1.826 2.892-3.914 5.185-6.321 4.586-4.816 11.487-10.888 21.127-18.663 38.555-31.1 113.49-83.462 186.142-118.958C178.21 103.524 213.949 90 244.276 85.453c30.334-4.55 55.177-.11 69.818 17.965 58.806 72.6 44.062 181.83-32.974 243.969-77.036 62.139-187.154 53.624-245.96-18.975Z"/><path stroke="url(#ai)" stroke-width=".5" d="M38.676 334.272c-28.75-32.49-64.685-39.099-87.575-43.308-1.851-.341-3.617-.665-5.287-.987-5.588-1.076-10.074-2.11-13.096-3.56-1.508-.723-2.63-1.541-3.344-2.5-.708-.952-1.025-2.058-.897-3.391.128-1.341.708-2.918 1.81-4.795 1.103-1.875 2.719-4.036 4.905-6.54 4.371-5.011 11-11.376 20.291-19.564 37.162-32.746 109.74-88.315 180.774-126.935 35.518-19.311 70.633-34.376 100.732-40.237 30.107-5.864 55.121-2.507 70.536 14.914 61.919 69.974 51.957 179.742-22.294 245.17-74.25 65.428-184.635 61.708-246.555-8.267Z"/><path stroke="url(#aj)" stroke-width=".5" d="M41.605 338.751C11.76 307.257-24.38 301.876-47.4 298.448c-1.862-.278-3.637-.542-5.317-.806-5.622-.885-10.14-1.766-13.21-3.112-1.532-.672-2.682-1.451-3.428-2.385-.74-.928-1.094-2.023-1.013-3.359.083-1.345.608-2.941 1.646-4.854 1.037-1.911 2.58-4.126 4.678-6.703 4.198-5.156 10.605-11.744 19.611-20.243 36.021-33.992 106.658-91.999 176.33-133.014 34.837-20.509 69.417-36.76 99.298-43.642 29.889-6.885 55.003-4.382 71.005 12.504 64.275 67.827 58.07 177.869-13.901 245.787-71.971 67.917-182.419 67.956-246.694.13Z"/><path stroke="url(#ak)" stroke-width=".5" d="M45.723 344.536c-31.24-30.114-67.588-33.858-90.74-36.244-1.873-.193-3.659-.377-5.349-.565-5.656-.63-10.21-1.306-13.337-2.512-1.561-.602-2.745-1.329-3.533-2.228-.781-.893-1.185-1.971-1.163-3.31.021-1.347.473-2.965 1.424-4.923.949-1.956 2.389-4.238 4.368-6.908 3.96-5.34 10.063-12.21 18.674-21.107 34.443-35.583 102.378-96.72 170.119-140.838 33.872-22.061 67.68-39.856 97.218-48.08 29.547-8.227 54.748-6.86 71.499 9.286 67.284 64.855 66.074 175.065-2.744 246.162-68.819 71.097-179.152 76.122-246.436 11.267Z"/><path stroke="url(#al)" stroke-width=".5" d="M49.425 349.296c-32.378-28.894-68.842-31.242-92.07-32.738-1.878-.12-3.67-.236-5.365-.359-5.677-.413-10.253-.914-13.425-1.999-1.583-.542-2.794-1.222-3.615-2.091-.816-.863-1.26-1.924-1.29-3.263-.031-1.346.358-2.981 1.233-4.974.873-1.991 2.224-4.326 4.1-7.07 3.75-5.488 9.584-12.587 17.846-21.807 33.048-36.878 98.578-100.575 164.57-147.258 32.998-23.343 66.095-42.422 95.295-51.773 29.208-9.353 54.444-8.954 71.804 6.538 69.732 62.228 72.767 172.403 6.737 246.086-66.03 73.683-176.088 82.935-245.82 20.708Z"/><path stroke="url(#am)" stroke-width=".5" d="M53.691 354.35c-33.569-27.506-70.1-28.319-93.37-28.836-1.882-.042-3.677-.082-5.376-.134-5.689-.174-10.283-.482-13.497-1.433-1.605-.475-2.843-1.103-3.701-1.937-.851-.827-1.34-1.869-1.427-3.205-.087-1.344.233-2.994 1.022-5.022.789-2.026 2.04-4.416 3.798-7.236 3.516-5.641 9.044-12.979 16.91-22.539 31.46-38.234 94.243-104.63 158.205-154.047 31.982-24.71 64.245-45.164 93.024-55.734 28.787-10.574 54.017-11.236 72.016 3.512 72.298 59.24 79.983 169.19 17.123 245.584S125.989 413.59 53.691 354.35Z"/><path stroke="url(#an)" stroke-width=".5" d="M58.86 359.939c-34.866-25.85-71.393-24.894-94.661-24.285-1.882.049-3.677.096-5.377.126-5.69.102-10.294.016-13.55-.778-1.626-.396-2.894-.965-3.791-1.756-.89-.785-1.43-1.802-1.581-3.132-.152-1.339.087-3.001.777-5.065.69-2.062 1.822-4.51 3.441-7.412 3.238-5.804 8.404-13.401 15.796-23.33 29.566-39.712 89.049-109.067 150.535-161.52 30.744-26.229 61.975-48.219 90.207-60.17 28.239-11.953 53.407-13.835 72.102.025 75.091 55.673 88.108 165.121 29.034 244.467-59.074 79.345-167.841 98.502-242.932 42.83Z"/><path stroke="url(#ao)" stroke-width=".5" d="M64.367 365.338c-36.097-24.11-72.533-21.365-95.743-19.616-1.877.141-3.667.276-5.364.39-5.678.38-10.28.52-13.572-.113-1.644-.317-2.938-.822-3.873-1.568-.928-.741-1.516-1.73-1.733-3.051-.218-1.33-.06-3.002.527-5.097.587-2.094 1.598-4.594 3.072-7.572 2.948-5.956 7.734-13.797 14.628-24.076 27.576-41.113 83.573-113.3 142.403-168.704 29.416-27.704 59.527-51.198 87.137-64.518 27.617-13.323 52.662-16.437 72.016-3.51 77.74 51.925 96.129 160.603 41.032 242.749-55.097 82.145-162.79 106.61-240.53 54.686Z"/><path stroke="url(#ap)" stroke-width=".5" d="M70.719 370.955C33.37 348.826-2.864 353.53-25.945 356.526a635.04 635.04 0 0 1-5.335.679c-5.65.686-10.238 1.074-13.56.618-1.657-.227-2.977-.662-3.95-1.357-.968-.689-1.609-1.646-1.897-2.953-.29-1.316-.223-2.994.25-5.118.473-2.122 1.348-4.673 2.659-7.726 2.621-6.106 6.975-14.194 13.304-24.829 25.31-42.539 77.32-117.638 133.067-176.131 27.874-29.248 56.67-54.33 83.518-69.119 26.856-14.792 51.696-19.25 71.721-7.385 80.437 47.66 104.679 155.189 54.107 240.184-50.572 84.994-156.784 115.226-237.22 67.566Z"/><path stroke="url(#aq)" stroke-width=".5" d="M77.09 376.015c-38.448-20.169-74.39-13.597-97.284-9.412-1.851.339-3.617.662-5.293.954-5.606.977-10.167 1.601-13.508 1.318-1.668-.141-3.008-.507-4.017-1.15-1.001-.639-1.691-1.561-2.047-2.852-.357-1.299-.378-2.978-.016-5.124.362-2.143 1.104-4.736 2.254-7.853 2.301-6.233 6.23-14.535 11.997-25.483 23.069-43.791 71.11-121.478 123.744-182.774 26.318-30.65 53.773-57.188 79.818-73.344 26.051-16.161 50.627-21.898 71.241-11.084 82.803 43.438 112.596 149.569 66.504 237.064-46.091 87.495-150.591 123.178-233.394 79.74Z"/><path stroke="url(#ar)" stroke-width=".5" d="M83.059 380.293c-39.35-18.352-74.944-10.111-97.618-4.861-1.833.424-3.582.829-5.242 1.199-5.554 1.237-10.082 2.074-13.432 1.948-1.672-.064-3.029-.367-4.066-.962-1.03-.592-1.763-1.481-2.178-2.753-.419-1.281-.518-2.958-.256-5.118.26-2.158.88-4.782 1.883-7.949 2.006-6.335 5.541-14.811 10.79-26.016 20.99-44.819 65.339-124.663 115.043-188.349 24.853-31.844 51.035-59.634 76.294-76.988 25.265-17.358 49.545-24.236 70.644-14.395 84.748 39.526 119.481 144.151 77.54 233.7-41.941 89.55-144.654 130.071-229.402 90.544Z"/><path stroke="url(#as)" stroke-width=".5" d="M88.47 383.822c-40.073-16.722-75.298-7.026-97.736-.851-1.814.5-3.545.976-5.188 1.414-5.499 1.464-9.988 2.486-13.34 2.497-1.674.006-3.042-.242-4.103-.794-1.054-.549-1.822-1.407-2.29-2.661-.47-1.263-.639-2.934-.467-5.103.172-2.167.683-4.815 1.554-8.02 1.744-6.411 4.927-15.025 9.709-26.437C-4.265 298.225 36.754 216.628 83.79 150.956c23.52-32.837 48.534-61.678 73.056-80.054 24.529-18.382 48.504-26.25 69.991-17.284 86.306 36.015 125.322 139.125 87.108 230.321-38.215 91.195-139.171 135.897-225.476 99.883Z"/><path stroke="url(#at)" stroke-width=".5" d="M94.865 387.601c-40.82-14.811-75.546-3.464-97.666 3.764-1.789.584-3.495 1.142-5.115 1.657-5.424 1.722-9.859 2.955-13.207 3.124-1.672.084-3.05-.098-4.136-.6-1.079-.498-1.887-1.319-2.413-2.55-.53-1.239-.777-2.901-.709-5.075.07-2.173.454-4.841 1.172-8.084 1.438-6.487 4.21-15.241 8.445-26.866 16.94-46.494 54.047-129.935 97.918-197.754 21.937-33.911 45.555-63.9 69.179-83.414 23.63-19.518 47.206-28.51 69.094-20.567 87.916 31.9 131.776 133.053 97.927 225.95-33.848 92.898-132.572 142.315-220.488 110.415Z"/><path stroke="url(#au)" stroke-width=".5" d="M100.75 390.73c-41.413-13.069-75.625-.262-97.418 7.896-1.762.66-3.444 1.289-5.04 1.872-5.346 1.951-9.725 3.37-13.063 3.681-1.666.155-3.05.031-4.157-.424-1.1-.452-1.942-1.238-2.52-2.446-.582-1.215-.9-2.865-.923-5.04-.024-2.174.246-4.857.827-8.127 1.16-6.542 3.557-15.405 7.294-27.199C.7 313.774 34.223 228.836 75.172 159.221c20.475-34.81 42.797-65.772 65.57-86.268 22.778-20.502 45.951-30.483 68.156-23.475 89.194 28.149 137.316 127.354 107.448 221.601-29.869 94.247-126.402 147.8-215.596 119.651Z"/><path stroke="url(#av)" stroke-width=".5" d="M106.677 393.57c-41.925-11.329-75.57 2.895-97.002 11.956a649.41 649.41 0 0 1-4.958 2.081c-5.258 2.171-9.574 3.772-12.896 4.222-1.659.225-3.047.159-4.172-.25-1.117-.406-1.991-1.156-2.62-2.338-.632-1.19-1.019-2.825-1.134-4.998-.114-2.17.043-4.862.486-8.154.886-6.584 2.908-15.54 6.148-27.479C3.487 320.857 33.42 234.595 71.415 163.331c18.998-35.634 40.003-67.5 61.896-88.93 21.9-21.434 44.634-32.374 67.114-26.3 90.295 24.401 142.534 121.511 116.643 216.922-25.892 95.411-120.096 152.948-210.391 128.547Z"/><path stroke="url(#aw)" stroke-width=".5" d="M112.414 396.037c-42.344-9.658-75.396 5.89-96.45 15.794a622.804 622.804 0 0 1-4.87 2.275c-5.168 2.379-9.417 4.15-12.719 4.731-1.648.29-3.038.28-4.178-.084-1.132-.362-2.036-1.076-2.711-2.233-.68-1.164-1.13-2.782-1.332-4.948-.2-2.165-.15-4.861.16-8.167.623-6.614 2.287-15.644 5.05-27.702 11.045-48.229 37.52-135.61 72.646-208.325 17.563-36.359 37.282-69.034 58.305-91.314 21.028-22.286 43.308-34.119 66.013-28.94 91.195 20.8 147.261 115.76 125.19 212.123-22.071 96.363-113.908 157.59-205.104 136.79Z"/><path stroke="url(#ax)" stroke-width=".5" d="M117.977 398.177c-42.68-8.048-75.118 8.74-95.78 19.433-1.67.865-3.264 1.69-4.78 2.459-5.074 2.572-9.253 4.503-12.53 5.208-1.636.353-3.025.395-4.178.074-1.145-.318-2.076-.998-2.794-2.128-.724-1.137-1.236-2.738-1.52-4.895-.282-2.155-.335-4.851-.15-8.167.371-6.633 1.691-15.718 3.992-27.872 9.205-48.613 32.339-136.934 64.675-210.926 16.169-36.997 34.631-70.395 54.792-93.455 20.166-23.066 41.98-35.734 64.865-31.419C276.49 63.822 336.125 156.592 317.733 253.72c-18.391 97.129-107.835 161.789-199.756 144.457Z"/><path stroke="url(#ay)" stroke-width=".5" d="M122.198 399.643c-42.893-6.833-74.838 10.868-95.187 22.144-1.646.912-3.215 1.782-4.709 2.593-4.998 2.716-9.12 4.764-12.376 5.562-1.625.399-3.012.48-4.174.193-1.154-.286-2.103-.939-2.854-2.048-.755-1.117-1.313-2.702-1.658-4.85-.344-2.146-.473-4.839-.382-8.16.181-6.64 1.241-15.76 3.195-27.974 7.816-48.854 28.423-137.796 58.637-212.676 15.108-37.441 32.61-71.35 52.106-94.973 19.5-23.629 40.944-36.91 63.943-33.247 92.378 14.717 154.633 105.757 139.017 203.368-15.615 97.612-103.18 164.784-195.558 150.068Z"/><path stroke="url(#az)" stroke-width=".5" d="M127.009 401.15c-43.09-5.456-74.45 13.259-94.426 25.181-1.615.964-3.156 1.884-4.623 2.742-4.908 2.875-8.962 5.054-12.19 5.956-1.612.451-2.996.576-4.167.326-1.162-.248-2.132-.871-2.918-1.955-.79-1.092-1.399-2.658-1.812-4.794-.414-2.135-.63-4.822-.645-8.144-.033-6.643.734-15.792 2.294-28.062 6.24-49.079 23.976-138.635 51.767-214.444 13.896-37.906 30.299-72.358 49.025-96.593 18.73-24.241 39.736-38.203 62.841-35.277 92.803 11.75 157.954 100.749 145.485 198.811-12.468 98.061-97.828 168.003-190.631 156.253Z"/><path stroke="url(#aA)" stroke-width=".5" d="M132.257 402.605c-43.253-3.962-73.944 15.828-93.493 28.433a631.542 631.542 0 0 1-4.525 2.901c-4.806 3.043-8.781 5.361-11.976 6.374-1.595.506-2.974.68-4.153.47-1.17-.208-2.161-.796-2.984-1.853-.828-1.064-1.49-2.608-1.978-4.729-.488-2.118-.796-4.797-.928-8.116-.263-6.638.185-15.808 1.318-28.125 4.531-49.265 19.145-139.381 44.285-216.106 12.57-38.364 27.766-73.362 45.639-98.23 17.877-24.876 38.385-39.556 61.577-37.432 93.156 8.533 161.36 95.224 152.306 193.658-9.053 98.434-91.931 171.287-185.088 162.755Z"/><path stroke="url(#aB)" stroke-width=".5" d="M136.729 403.695c-43.351-2.696-73.448 17.981-92.62 31.153a675.459 675.459 0 0 1-4.437 3.032c-4.714 3.181-8.62 5.615-11.784 6.721-1.58.553-2.953.766-4.137.591-1.175-.174-2.183-.733-3.037-1.765-.86-1.039-1.567-2.564-2.116-4.669-.55-2.103-.937-4.772-1.166-8.085-.457-6.628-.279-15.807.492-28.151 3.084-49.377 15.047-139.881 37.924-217.308 11.439-38.715 25.602-74.143 42.736-99.523 17.14-25.387 37.208-40.66 60.453-39.214 93.366 5.806 164.085 90.467 157.924 189.123-6.161 98.656-86.865 173.901-180.232 168.095Z"/><path stroke="url(#aC)" stroke-width=".5" d="M141.411 404.685c-43.414-1.377-72.865 20.206-91.626 33.954-1.517 1.112-2.964 2.173-4.343 3.166-4.615 3.323-8.444 5.874-11.573 7.076-1.562.6-2.928.856-4.117.717-1.18-.138-2.205-.667-3.09-1.673-.89-1.012-1.644-2.514-2.258-4.602-.613-2.086-1.082-4.741-1.412-8.046-.66-6.61-.76-15.791-.367-28.153 1.575-49.448 10.77-140.274 31.273-218.36 10.252-39.045 23.327-74.886 39.679-100.775 16.356-25.896 35.95-41.772 59.227-41.034 93.501 2.966 166.771 85.438 163.624 184.236-3.147 98.797-81.517 176.46-175.017 173.494Z"/><path stroke="url(#aD)" stroke-width=".5" d="M145.801 405.484c-43.435-.146-72.26 22.262-90.622 36.537-1.485 1.154-2.901 2.255-4.252 3.287-4.518 3.453-8.273 6.111-11.367 7.401-1.544.644-2.902.938-4.095.833-1.184-.104-2.223-.603-3.136-1.584-.919-.987-1.715-2.467-2.388-4.536-.672-2.068-1.216-4.709-1.64-8.003-.847-6.589-1.21-15.763-1.168-28.132.167-49.472 6.773-140.522 25.046-219.157 9.137-39.32 21.187-75.517 36.796-101.86 15.613-26.348 34.746-42.773 58.036-42.695 93.547.315 169.134 80.678 168.8 179.525-.334 98.846-76.463 178.699-170.01 178.384Z"/><path stroke="url(#aE)" stroke-width=".5" d="M150.492 406.192c-43.419 1.163-71.553 24.43-89.475 39.252-1.45 1.198-2.832 2.341-4.15 3.413-4.412 3.588-8.085 6.358-11.138 7.741-1.524.69-2.873 1.025-4.068.956-1.186-.069-2.24-.536-3.183-1.489-.948-.959-1.788-2.414-2.523-4.462-.735-2.047-1.359-4.67-1.882-7.95-1.047-6.56-1.687-15.719-2.02-28.083-1.33-49.455 2.519-140.662 18.404-219.813C58.4 156.18 69.348 119.636 84.153 92.835c14.808-26.807 33.436-43.801 56.717-44.424 93.514-2.505 171.499 75.543 174.156 174.355 2.658 98.812-71.02 180.922-164.534 183.426Z"/><path stroke="url(#aF)" stroke-width=".5" d="M155.997 406.843c-43.352 2.691-70.646 26.934-88.032 42.377-1.406 1.248-2.747 2.44-4.027 3.557-4.282 3.741-7.855 6.639-10.858 8.128-1.498.744-2.834 1.126-4.031 1.099-1.188-.027-2.258-.457-3.233-1.376-.982-.925-1.874-2.35-2.68-4.371-.807-2.019-1.523-4.619-2.162-7.878-1.278-6.52-2.241-15.65-3.01-27.995-3.078-49.377-2.456-140.663 10.62-220.324 6.54-39.832 16.19-76.739 30.037-104.044 13.852-27.312 31.867-44.95 55.112-46.394 93.367-5.794 174.063 69.46 180.211 168.117 6.149 98.657-64.58 183.309-157.947 189.104Z"/><path stroke="url(#aG)" stroke-width=".5" d="M161.864 407.32c-43.22 4.31-69.585 29.556-86.38 45.638-1.357 1.3-2.653 2.541-3.89 3.705-4.139 3.898-7.6 6.928-10.544 8.528-1.47.799-2.79 1.231-3.988 1.249-1.188.017-2.273-.373-3.283-1.254-1.015-.888-1.96-2.278-2.842-4.268-.881-1.987-1.695-4.559-2.455-7.792-1.522-6.467-2.828-15.555-4.06-27.863-4.928-49.227-7.734-140.472 2.344-220.566 5.04-40.048 13.297-77.29 26.11-105.093 12.817-27.81 30.158-46.11 53.332-48.421 93.085-9.28 176.548 62.905 186.395 161.262 9.848 98.358-57.654 185.595-150.739 194.875Z"/><path stroke="url(#aH)" stroke-width=".5" d="M168.277 407.591c-43.007 6.067-68.317 32.367-84.44 49.12-1.303 1.354-2.547 2.647-3.735 3.861-3.976 4.063-7.31 7.231-10.187 8.951-1.436.858-2.738 1.343-3.933 1.41-1.186.065-2.287-.28-3.331-1.12-1.051-.845-2.052-2.196-3.015-4.148-.962-1.95-1.88-4.486-2.772-7.685-1.785-6.4-3.462-15.427-5.197-27.674-6.94-48.986-13.477-140.041-6.686-220.478 3.396-40.22 10.123-77.767 21.788-106.07 11.667-28.31 28.244-47.301 51.305-50.554 92.626-13.067 178.975 55.656 192.84 153.53 13.865 97.875-50.01 187.79-142.637 200.857Z"/><path stroke="url(#aI)" stroke-width=".5" d="M174.388 407.604c-42.739 7.732-67.004 34.994-82.462 52.36-1.25 1.404-2.442 2.744-3.582 4.003-3.814 4.215-7.023 7.51-9.83 9.339-1.401.914-2.684 1.449-3.876 1.562-1.183.112-2.295-.191-3.372-.989-1.083-.804-2.136-2.115-3.174-4.028-1.037-1.912-2.053-4.41-3.07-7.573-2.033-6.325-4.06-15.28-6.27-27.451-8.844-48.679-18.925-139.411-15.273-220.051 1.826-40.322 7.084-78.102 17.637-106.835 10.556-28.742 26.38-48.362 49.297-52.508 92.047-16.651 181.008 48.67 198.677 145.932 17.668 97.262-42.655 189.588-134.702 206.239Z"/><path stroke="url(#aJ)" stroke-width=".5" d="M181.631 407.316c-42.336 9.69-65.316 38.04-79.955 56.099a627.434 627.434 0 0 1-3.393 4.163c-3.616 4.386-6.669 7.825-9.389 9.782-1.357.977-2.613 1.571-3.798 1.738-1.177.166-2.303-.085-3.415-.833-1.119-.753-2.23-2.014-3.356-3.877-1.125-1.862-2.255-4.311-3.417-7.423-2.323-6.226-4.762-15.078-7.533-27.134-11.083-48.22-25.346-138.392-25.425-219.114-.04-40.363 3.468-78.345 12.682-107.533 9.216-29.197 24.117-49.525 46.817-54.72 91.18-20.87 183.065 40.287 205.21 136.633 22.144 96.346-33.848 191.35-125.028 212.219Z"/><path stroke="url(#aK)" stroke-width=".5" d="M188.695 406.71c-41.855 11.586-63.529 40.942-77.336 59.642-1.117 1.512-2.182 2.954-3.202 4.312-3.414 4.544-6.308 8.117-8.936 10.194-1.312 1.037-2.54 1.687-3.717 1.908-1.168.219-2.304.019-3.449-.679-1.152-.701-2.32-1.911-3.528-3.722-1.208-1.809-2.448-4.204-3.749-7.261-2.602-6.115-5.439-14.849-8.752-26.767-13.252-47.672-31.578-137.11-35.307-217.747-1.864-40.32-.078-78.421 7.806-107.994 7.887-29.582 21.854-50.56 44.296-56.773 90.143-24.953 184.7 32.004 211.178 127.255 26.479 95.25-25.161 192.678-115.304 217.632Z"/><path stroke="url(#aL)" stroke-width=".5" d="M194.763 405.93c-41.371 13.204-61.884 43.379-74.951 62.601a611.534 611.534 0 0 1-3.031 4.433c-3.234 4.673-5.987 8.356-8.532 10.534-1.27 1.087-2.472 1.784-3.639 2.051-1.158.264-2.301.108-3.472-.544-1.179-.657-2.393-1.82-3.672-3.583-1.277-1.76-2.61-4.106-4.029-7.11-2.839-6.009-6.014-14.626-9.79-26.407-15.102-47.121-36.903-135.779-43.775-216.209-3.436-40.217-3.138-78.359 3.587-108.216 6.727-29.866 19.864-51.37 42.047-58.45 89.102-28.438 185.809 24.803 215.983 118.953 30.175 94.149-17.624 193.51-106.726 221.947Z"/><path stroke="url(#aM)" stroke-width=".5" d="M199.826 405.097c-40.917 14.544-60.432 45.372-72.863 65.009a614.598 614.598 0 0 1-2.885 4.53c-3.079 4.776-5.71 8.546-8.183 10.806-1.234 1.128-2.412 1.864-3.57 2.168-1.149.302-2.296.183-3.488-.43-1.2-.618-2.451-1.742-3.786-3.461-1.335-1.719-2.743-4.019-4.26-6.976-3.034-5.913-6.49-14.422-10.649-26.073-16.635-46.604-41.325-134.505-50.825-214.668-4.75-40.084-5.7-78.215.045-108.276 5.746-30.069 18.173-51.99 40.113-59.789 88.123-31.324 186.521 18.738 219.759 111.854 33.239 93.116-11.285 193.981-99.408 225.306Z"/><path stroke="url(#aN)" stroke-width=".5" d="M205.245 404.014c-40.378 15.972-58.794 47.466-70.525 67.527a676.699 676.699 0 0 1-2.723 4.629c-2.909 4.881-5.405 8.741-7.797 11.087-1.193 1.17-2.345 1.947-3.491 2.291-1.138.342-2.289.264-3.502-.307-1.22-.576-2.511-1.654-3.906-3.326-1.394-1.67-2.882-3.92-4.503-6.822-3.24-5.803-6.993-14.185-11.56-25.683-18.27-45.991-46.044-132.97-58.364-212.751-6.16-39.892-8.454-77.966-3.773-108.21 4.682-30.252 16.329-52.596 37.98-61.16 86.964-34.4 187.066 12.176 223.567 104.068 36.501 91.892-4.438 194.257-91.403 228.657Z"/><path stroke="url(#aO)" stroke-width=".5" d="M210.616 402.741c-39.791 17.378-57.088 49.498-68.105 69.958-.891 1.654-1.741 3.233-2.558 4.721-2.736 4.98-5.095 8.925-7.402 11.353-1.152 1.212-2.275 2.028-3.409 2.413-1.125.381-2.278.344-3.51-.185-1.24-.532-2.568-1.565-4.021-3.187-1.452-1.62-3.019-3.817-4.74-6.66-3.443-5.685-7.489-13.931-12.458-25.262-19.876-45.323-50.694-131.275-65.814-210.574-7.56-39.652-11.192-77.622-7.579-108.011 3.615-30.397 14.468-53.136 35.804-62.453 85.7-37.426 187.379 5.613 227.092 96.168 39.712 90.556 2.401 194.293-83.3 231.719Z"/><path stroke="url(#aP)" stroke-width=".5" d="M216.31 401.176c-39.109 18.858-55.183 51.604-65.422 72.463a669.546 669.546 0 0 1-2.378 4.813c-2.546 5.08-4.755 9.111-6.969 11.623-1.106 1.255-2.197 2.113-3.316 2.539-1.11.424-2.263.43-3.514-.053-1.259-.485-2.625-1.467-4.138-3.033-1.512-1.565-3.161-3.701-4.988-6.477-3.654-5.553-8.008-13.641-13.401-24.778-21.569-44.545-55.603-129.28-73.7-207.956-9.048-39.34-14.108-77.147-11.642-107.65 2.468-30.512 12.456-53.642 33.426-63.753 84.23-40.614 187.458-1.42 230.554 87.582 43.096 89.003 9.718 194.066-74.512 234.68Z"/><defs><radialGradient id="a" cx="0" cy="0" r="1" gradientTransform="matrix(0 143.975 -203.857 0 172.253 252.097)" gradientUnits="userSpaceOnUse"><stop stop-color="#008243"/><stop offset="1" stop-color="#008243" stop-opacity=".44"/></radialGradient><radialGradient id="b" cx="0" cy="0" r="1" gradientTransform="matrix(5.68357 143.86277 -203.6971 8.04743 172.253 252.092)" gradientUnits="userSpaceOnUse"><stop stop-color="#008243"/><stop offset="1" stop-color="#008243" stop-opacity=".44"/></radialGradient><radialGradient id="c" cx="0" cy="0" r="1" gradientTransform="rotate(85.01 -51.404 220.02) scale(143.977 203.853)" gradientUnits="userSpaceOnUse"><stop stop-color="#008243"/><stop offset="1" stop-color="#008243" stop-opacity=".44"/></radialGradient><radialGradient id="d" cx="0" cy="0" r="1" gradientTransform="matrix(17.08162 142.96213 -202.41128 24.18481 172.253 249.219)" gradientUnits="userSpaceOnUse"><stop stop-color="#008243"/><stop offset="1" stop-color="#008243" stop-opacity=".44"/></radialGradient><radialGradient id="e" cx="0" cy="0" r="1" gradientTransform="rotate(80.718 -60.501 225.954) scale(143.983 203.846)" gradientUnits="userSpaceOnUse"><stop stop-color="#008243"/><stop offset="1" stop-color="#008243" stop-opacity=".44"/></radialGradient><radialGradient id="f" cx="0" cy="0" r="1" gradientTransform="rotate(78.495 -66.403 230.035) scale(143.987 203.84)" gradientUnits="userSpaceOnUse"><stop stop-color="#008243"/><stop offset="1" stop-color="#008243" stop-opacity=".44"/></radialGradient><radialGradient id="g" cx="0" cy="0" r="1" gradientTransform="rotate(76.202 -72.79 234.45) scale(143.992 203.832)" gradientUnits="userSpaceOnUse"><stop stop-color="#008243"/><stop offset="1" stop-color="#008243" stop-opacity=".44"/></radialGradient><radialGradient id="h" cx="0" cy="0" r="1" gradientTransform="matrix(38.978 138.62125 -196.21573 55.1726 172.253 249.22)" gradientUnits="userSpaceOnUse"><stop stop-color="#008243"/><stop offset="1" stop-color="#008243" stop-opacity=".44"/></radialGradient><radialGradient id="i" cx="0" cy="0" r="1" gradientTransform="matrix(45.43071 136.65098 -193.40567 64.29926 172.253 249.221)" gradientUnits="userSpaceOnUse"><stop stop-color="#008243"/><stop offset="1" stop-color="#008243" stop-opacity=".44"/></radialGradient><radialGradient id="j" cx="0" cy="0" r="1" gradientTransform="rotate(69.093 -94.868 249.709) scale(144.013 203.802)" gradientUnits="userSpaceOnUse"><stop stop-color="#008243"/><stop offset="1" stop-color="#008243" stop-opacity=".44"/></radialGradient><radialGradient id="k" cx="0" cy="0" r="1" gradientTransform="matrix(57.42281 132.08045 -186.89058 81.25187 172.253 249.221)" gradientUnits="userSpaceOnUse"><stop stop-color="#008243"/><stop offset="1" stop-color="#008243" stop-opacity=".44"/></radialGradient><radialGradient id="l" cx="0" cy="0" r="1" gradientTransform="rotate(63.928 -113.571 262.635) scale(144.033 203.774)" gradientUnits="userSpaceOnUse"><stop stop-color="#008243"/><stop offset="1" stop-color="#008243" stop-opacity=".44"/></radialGradient><radialGradient id="m" cx="0" cy="0" r="1" gradientTransform="rotate(61.347 -123.968 269.821) scale(144.044 203.759)" gradientUnits="userSpaceOnUse"><stop stop-color="#008243"/><stop offset="1" stop-color="#008243" stop-opacity=".44"/></radialGradient><radialGradient id="n" cx="0" cy="0" r="1" gradientTransform="rotate(58.848 -134.81 277.313) scale(144.056 203.742)" gradientUnits="userSpaceOnUse"><stop stop-color="#008243"/><stop offset="1" stop-color="#008243" stop-opacity=".44"/></radialGradient><radialGradient id="o" cx="0" cy="0" r="1" gradientTransform="rotate(56.891 -143.902 283.598) scale(144.065 203.729)" gradientUnits="userSpaceOnUse"><stop stop-color="#008243"/><stop offset="1" stop-color="#008243" stop-opacity=".44"/></radialGradient><radialGradient id="p" cx="0" cy="0" r="1" gradientTransform="rotate(54.297 -156.881 292.57) scale(144.078 203.711)" gradientUnits="userSpaceOnUse"><stop stop-color="#008243"/><stop offset="1" stop-color="#008243" stop-opacity=".44"/></radialGradient><radialGradient id="q" cx="0" cy="0" r="1" gradientTransform="matrix(88.52563 113.68752 -160.71798 125.14707 172.254 249.224)" gradientUnits="userSpaceOnUse"><stop stop-color="#008243"/><stop offset="1" stop-color="#008243" stop-opacity=".44"/></radialGradient><radialGradient id="r" cx="0" cy="0" r="1" gradientTransform="rotate(49.677 -183.086 310.681) scale(144.101 203.678)" gradientUnits="userSpaceOnUse"><stop stop-color="#008243"/><stop offset="1" stop-color="#008243" stop-opacity=".44"/></radialGradient><radialGradient id="s" cx="0" cy="0" r="1" gradientTransform="rotate(46.897 -201.166 323.176) scale(144.116 203.657)" gradientUnits="userSpaceOnUse"><stop stop-color="#008243"/><stop offset="1" stop-color="#008243" stop-opacity=".44"/></radialGradient><radialGradient id="t" cx="0" cy="0" r="1" gradientTransform="rotate(44.082 -221.668 337.347) scale(144.131 203.636)" gradientUnits="userSpaceOnUse"><stop stop-color="#008243"/><stop offset="1" stop-color="#008243" stop-opacity=".44"/></radialGradient><radialGradient id="u" cx="0" cy="0" r="1" gradientTransform="matrix(108.81058 94.54425 -133.54728 153.69899 172.254 249.225)" gradientUnits="userSpaceOnUse"><stop stop-color="#008243"/><stop offset="1" stop-color="#008243" stop-opacity=".44"/></radialGradient><radialGradient id="v" cx="0" cy="0" r="1" gradientTransform="rotate(38.018 -275.587 374.614) scale(144.162 203.592)" gradientUnits="userSpaceOnUse"><stop stop-color="#008243"/><stop offset="1" stop-color="#008243" stop-opacity=".44"/></radialGradient><radialGradient id="w" cx="0" cy="0" r="1" gradientTransform="rotate(35.34 -305.043 394.974) scale(144.176 203.573)" gradientUnits="userSpaceOnUse"><stop stop-color="#008243"/><stop offset="1" stop-color="#008243" stop-opacity=".44"/></radialGradient><radialGradient id="x" cx="0" cy="0" r="1" gradientTransform="matrix(120.94704 78.49652 -110.81746 170.747 172.254 249.225)" gradientUnits="userSpaceOnUse"><stop stop-color="#008243"/><stop offset="1" stop-color="#008243" stop-opacity=".44"/></radialGradient><radialGradient id="y" cx="0" cy="0" r="1" gradientTransform="rotate(30.276 -374.503 442.978) scale(144.2 203.538)" gradientUnits="userSpaceOnUse"><stop stop-color="#008243"/><stop offset="1" stop-color="#008243" stop-opacity=".44"/></radialGradient><radialGradient id="z" cx="0" cy="0" r="1" gradientTransform="rotate(27.846 -416.534 472.03) scale(144.211 203.523)" gradientUnits="userSpaceOnUse"><stop stop-color="#008243"/><stop offset="1" stop-color="#008243" stop-opacity=".44"/></radialGradient><radialGradient id="A" cx="0" cy="0" r="1" gradientTransform="rotate(25.452 -465.659 505.987) scale(144.221 203.509)" gradientUnits="userSpaceOnUse"><stop stop-color="#008243"/><stop offset="1" stop-color="#008243" stop-opacity=".44"/></radialGradient><radialGradient id="B" cx="0" cy="0" r="1" gradientTransform="matrix(132.58969 56.76502 -80.09051 187.07253 172.253 249.224)" gradientUnits="userSpaceOnUse"><stop stop-color="#008243"/><stop offset="1" stop-color="#008243" stop-opacity=".44"/></radialGradient><radialGradient id="C" cx="0" cy="0" r="1" gradientTransform="rotate(21.006 -586.028 589.175) scale(144.238 203.485)" gradientUnits="userSpaceOnUse"><stop stop-color="#008243"/><stop offset="1" stop-color="#008243" stop-opacity=".44"/></radialGradient><radialGradient id="D" cx="0" cy="0" r="1" gradientTransform="rotate(19.379 -643.695 629.035) scale(144.244 203.477)" gradientUnits="userSpaceOnUse"><stop stop-color="#008243"/><stop offset="1" stop-color="#008243" stop-opacity=".44"/></radialGradient><radialGradient id="E" cx="0" cy="0" r="1" gradientTransform="rotate(17.543 -721.48 682.795) scale(144.25 203.469)" gradientUnits="userSpaceOnUse"><stop stop-color="#008243"/><stop offset="1" stop-color="#008243" stop-opacity=".44"/></radialGradient><radialGradient id="F" cx="0" cy="0" r="1" gradientTransform="matrix(138.96854 38.69432 -54.5752 196.00387 172.253 249.225)" gradientUnits="userSpaceOnUse"><stop stop-color="#008243"/><stop offset="1" stop-color="#008243" stop-opacity=".44"/></radialGradient><radialGradient id="G" cx="0" cy="0" r="1" gradientTransform="rotate(13.884 -937.31 831.965) scale(144.26 203.454)" gradientUnits="userSpaceOnUse"><stop stop-color="#008243"/><stop offset="1" stop-color="#008243" stop-opacity=".44"/></radialGradient><radialGradient id="H" cx="0" cy="0" r="1" gradientTransform="matrix(141.03672 30.3438 -42.7925 198.8977 172.254 249.226)" gradientUnits="userSpaceOnUse"><stop stop-color="#008243"/><stop offset="1" stop-color="#008243" stop-opacity=".44"/></radialGradient><radialGradient id="I" cx="0" cy="0" r="1" gradientTransform="matrix(141.84302 26.33489 -37.13722 200.02572 172.254 249.226)" gradientUnits="userSpaceOnUse"><stop stop-color="#008243"/><stop offset="1" stop-color="#008243" stop-opacity=".44"/></radialGradient><radialGradient id="J" cx="0" cy="0" r="1" gradientTransform="rotate(8.791 -1535.05 1245.1) scale(144.27 203.44)" gradientUnits="userSpaceOnUse"><stop stop-color="#008243"/><stop offset="1" stop-color="#008243" stop-opacity=".44"/></radialGradient><radialGradient id="K" cx="0" cy="0" r="1" gradientTransform="matrix(143.26606 17.01574 -23.9935 202.01613 172.254 249.225)" gradientUnits="userSpaceOnUse"><stop stop-color="#008243"/><stop offset="1" stop-color="#008243" stop-opacity=".44"/></radialGradient><radialGradient id="L" cx="0" cy="0" r="1" gradientTransform="rotate(4.631 -2995.557 2254.54) scale(144.275 203.433)" gradientUnits="userSpaceOnUse"><stop stop-color="#008243"/><stop offset="1" stop-color="#008243" stop-opacity=".44"/></radialGradient><radialGradient id="M" cx="0" cy="0" r="1" gradientTransform="rotate(2.295 -6134.846 4424.292) scale(144.277 203.43)" gradientUnits="userSpaceOnUse"><stop stop-color="#008243"/><stop offset="1" stop-color="#008243" stop-opacity=".44"/></radialGradient><radialGradient id="N" cx="0" cy="0" r="1" gradientTransform="matrix(144.27689 .17915 -.2526 203.42984 172.255 249.226)" gradientUnits="userSpaceOnUse"><stop stop-color="#008243"/><stop offset="1" stop-color="#008243" stop-opacity=".44"/></radialGradient><radialGradient id="O" cx="0" cy="0" r="1" gradientTransform="matrix(144.13229 -6.46034 9.1091 203.22696 172.253 249.227)" gradientUnits="userSpaceOnUse"><stop stop-color="#008243"/><stop offset="1" stop-color="#008243" stop-opacity=".44"/></radialGradient><radialGradient id="P" cx="0" cy="0" r="1" gradientTransform="matrix(143.6932 -12.94378 18.2512 202.61263 172.254 249.225)" gradientUnits="userSpaceOnUse"><stop stop-color="#008243"/><stop offset="1" stop-color="#008243" stop-opacity=".44"/></radialGradient><radialGradient id="Q" cx="0" cy="0" r="1" gradientTransform="rotate(-7.374 2019.914 -1211.938) scale(144.272 203.437)" gradientUnits="userSpaceOnUse"><stop stop-color="#008243"/><stop offset="1" stop-color="#008243" stop-opacity=".44"/></radialGradient><radialGradient id="R" cx="0" cy="0" r="1" gradientTransform="rotate(-9.241 1628.005 -941.069) scale(144.269 203.441)" gradientUnits="userSpaceOnUse"><stop stop-color="#008243"/><stop offset="1" stop-color="#008243" stop-opacity=".44"/></radialGradient><radialGradient id="S" cx="0" cy="0" r="1" gradientTransform="matrix(141.49225 -28.15354 39.70253 199.53442 172.254 249.225)" gradientUnits="userSpaceOnUse"><stop stop-color="#008243"/><stop offset="1" stop-color="#008243" stop-opacity=".44"/></radialGradient><radialGradient id="T" cx="0" cy="0" r="1" gradientTransform="rotate(-13.262 1158.025 -616.24) scale(144.261 203.452)" gradientUnits="userSpaceOnUse"><stop stop-color="#008243"/><stop offset="1" stop-color="#008243" stop-opacity=".44"/></radialGradient><radialGradient id="U" cx="0" cy="0" r="1" gradientTransform="matrix(139.06812 -38.33865 54.07318 196.14296 172.254 249.225)" gradientUnits="userSpaceOnUse"><stop stop-color="#008243"/><stop offset="1" stop-color="#008243" stop-opacity=".44"/></radialGradient><radialGradient id="V" cx="0" cy="0" r="1" gradientTransform="matrix(-25.91048 -141.63449 200.51532 -36.68208 171.187 248.011)" gradientUnits="userSpaceOnUse"><stop stop-color="#008243"/><stop offset="1" stop-color="#008243" stop-opacity=".44"/></radialGradient><radialGradient id="W" cx="0" cy="0" r="1" gradientTransform="rotate(-102.629 184.889 55.469) scale(143.989 203.836)" gradientUnits="userSpaceOnUse"><stop stop-color="#008243"/><stop offset="1" stop-color="#008243" stop-opacity=".44"/></radialGradient><radialGradient id="X" cx="0" cy="0" r="1" gradientTransform="rotate(-105.356 180.135 58.749) scale(143.996 203.827)" gradientUnits="userSpaceOnUse"><stop stop-color="#008243"/><stop offset="1" stop-color="#008243" stop-opacity=".44"/></radialGradient><radialGradient id="Y" cx="0" cy="0" r="1" gradientTransform="rotate(-107.18 178.353 62.101) scale(144.001 203.819)" gradientUnits="userSpaceOnUse"><stop stop-color="#008243"/><stop offset="1" stop-color="#008243" stop-opacity=".44"/></radialGradient><radialGradient id="Z" cx="0" cy="0" r="1" gradientTransform="rotate(-109.647 174.248 64.91) scale(144.009 203.808)" gradientUnits="userSpaceOnUse"><stop stop-color="#008243"/><stop offset="1" stop-color="#008243" stop-opacity=".44"/></radialGradient><radialGradient id="aa" cx="0" cy="0" r="1" gradientTransform="rotate(-111.869 170.656 67.369) scale(144.017 203.797)" gradientUnits="userSpaceOnUse"><stop stop-color="#008243"/><stop offset="1" stop-color="#008243" stop-opacity=".44"/></radialGradient><radialGradient id="ab" cx="0" cy="0" r="1" gradientTransform="matrix(-58.95203 -131.40723 185.93176 -83.41287 171.703 250.838)" gradientUnits="userSpaceOnUse"><stop stop-color="#008243"/><stop offset="1" stop-color="#008243" stop-opacity=".44"/></radialGradient><radialGradient id="ac" cx="0" cy="0" r="1" gradientTransform="rotate(-116.068 164.119 71.844) scale(144.033 203.774)" gradientUnits="userSpaceOnUse"><stop stop-color="#008243"/><stop offset="1" stop-color="#008243" stop-opacity=".44"/></radialGradient><radialGradient id="ad" cx="0" cy="0" r="1" gradientTransform="rotate(-118.751 160.097 74.597) scale(144.045 203.758)" gradientUnits="userSpaceOnUse"><stop stop-color="#008243"/><stop offset="1" stop-color="#008243" stop-opacity=".44"/></radialGradient><radialGradient id="ae" cx="0" cy="0" r="1" gradientTransform="matrix(-74.76894 -123.133 174.15009 -105.74758 171.703 250.84)" gradientUnits="userSpaceOnUse"><stop stop-color="#008243"/><stop offset="1" stop-color="#008243" stop-opacity=".44"/></radialGradient><radialGradient id="af" cx="0" cy="0" r="1" gradientTransform="matrix(-80.25984 -119.64211 169.18261 -113.49322 171.702 250.84)" gradientUnits="userSpaceOnUse"><stop stop-color="#008243"/><stop offset="1" stop-color="#008243" stop-opacity=".44"/></radialGradient><radialGradient id="ag" cx="0" cy="0" r="1" gradientTransform="matrix(-85.55705 -115.9281 163.9026 -120.9631 171.702 250.837)" gradientUnits="userSpaceOnUse"><stop stop-color="#008243"/><stop offset="1" stop-color="#008243" stop-opacity=".44"/></radialGradient><radialGradient id="ah" cx="0" cy="0" r="1" gradientTransform="matrix(-90.69693 -111.9694 158.2774 -128.20711 171.702 250.839)" gradientUnits="userSpaceOnUse"><stop stop-color="#008243"/><stop offset="1" stop-color="#008243" stop-opacity=".44"/></radialGradient><radialGradient id="ai" cx="0" cy="0" r="1" gradientTransform="matrix(-95.4976 -107.92143 152.52729 -134.96847 171.703 250.839)" gradientUnits="userSpaceOnUse"><stop stop-color="#008243"/><stop offset="1" stop-color="#008243" stop-opacity=".44"/></radialGradient><radialGradient id="aj" cx="0" cy="0" r="1" gradientTransform="matrix(-99.13128 -104.60874 147.82395 -140.08368 171.702 250.838)" gradientUnits="userSpaceOnUse"><stop stop-color="#008243"/><stop offset="1" stop-color="#008243" stop-opacity=".44"/></radialGradient><radialGradient id="ak" cx="0" cy="0" r="1" gradientTransform="matrix(-103.77174 -100.02586 141.3212 -146.61355 171.702 250.84)" gradientUnits="userSpaceOnUse"><stop stop-color="#008243"/><stop offset="1" stop-color="#008243" stop-opacity=".44"/></radialGradient><radialGradient id="al" cx="0" cy="0" r="1" gradientTransform="rotate(-138.255 133.675 92.683) scale(144.143 203.619)" gradientUnits="userSpaceOnUse"><stop stop-color="#008243"/><stop offset="1" stop-color="#008243" stop-opacity=".44"/></radialGradient><radialGradient id="am" cx="0" cy="0" r="1" gradientTransform="rotate(-140.669 130.672 94.738) scale(144.156 203.601)" gradientUnits="userSpaceOnUse"><stop stop-color="#008243"/><stop offset="1" stop-color="#008243" stop-opacity=".44"/></radialGradient><radialGradient id="an" cx="0" cy="0" r="1" gradientTransform="matrix(-115.81267 -85.86277 121.24595 -163.5379 171.704 250.839)" gradientUnits="userSpaceOnUse"><stop stop-color="#008243"/><stop offset="1" stop-color="#008243" stop-opacity=".44"/></radialGradient><radialGradient id="ao" cx="0" cy="0" r="1" gradientTransform="rotate(-146.26 123.886 99.385) scale(144.184 203.562)" gradientUnits="userSpaceOnUse"><stop stop-color="#008243"/><stop offset="1" stop-color="#008243" stop-opacity=".44"/></radialGradient><radialGradient id="ap" cx="0" cy="0" r="1" gradientTransform="rotate(-149.352 120.22 101.894) scale(144.198 203.541)" gradientUnits="userSpaceOnUse"><stop stop-color="#008243"/><stop offset="1" stop-color="#008243" stop-opacity=".44"/></radialGradient><radialGradient id="aq" cx="0" cy="0" r="1" gradientTransform="matrix(-127.7066 -66.99346 94.54582 -180.22844 171.703 250.84)" gradientUnits="userSpaceOnUse"><stop stop-color="#008243"/><stop offset="1" stop-color="#008243" stop-opacity=".44"/></radialGradient><radialGradient id="ar" cx="0" cy="0" r="1" gradientTransform="matrix(-130.70617 -60.9604 86.01823 -184.43307 171.703 250.84)" gradientUnits="userSpaceOnUse"><stop stop-color="#008243"/><stop offset="1" stop-color="#008243" stop-opacity=".44"/></radialGradient><radialGradient id="as" cx="0" cy="0" r="1" gradientTransform="rotate(-157.35 110.97 108.226) scale(144.232 203.493)" gradientUnits="userSpaceOnUse"><stop stop-color="#008243"/><stop offset="1" stop-color="#008243" stop-opacity=".44"/></radialGradient><radialGradient id="at" cx="0" cy="0" r="1" gradientTransform="rotate(-160.057 107.902 110.326) scale(144.242 203.479)" gradientUnits="userSpaceOnUse"><stop stop-color="#008243"/><stop offset="1" stop-color="#008243" stop-opacity=".44"/></radialGradient><radialGradient id="au" cx="0" cy="0" r="1" gradientTransform="matrix(-137.5623 -43.41283 61.2348 -194.03486 171.702 250.838)" gradientUnits="userSpaceOnUse"><stop stop-color="#008243"/><stop offset="1" stop-color="#008243" stop-opacity=".44"/></radialGradient><radialGradient id="av" cx="0" cy="0" r="1" gradientTransform="matrix(-139.26078 -37.63281 53.0774 -196.41373 171.702 250.838)" gradientUnits="userSpaceOnUse"><stop stop-color="#008243"/><stop offset="1" stop-color="#008243" stop-opacity=".44"/></radialGradient><radialGradient id="aw" cx="0" cy="0" r="1" gradientTransform="matrix(-140.65017 -32.07887 45.24045 -198.35728 171.703 250.839)" gradientUnits="userSpaceOnUse"><stop stop-color="#008243"/><stop offset="1" stop-color="#008243" stop-opacity=".44"/></radialGradient><radialGradient id="ax" cx="0" cy="0" r="1" gradientTransform="matrix(-141.76887 -26.73113 37.696 -199.92117 171.703 250.838)" gradientUnits="userSpaceOnUse"><stop stop-color="#008243"/><stop offset="1" stop-color="#008243" stop-opacity=".44"/></radialGradient><radialGradient id="ay" cx="0" cy="0" r="1" gradientTransform="rotate(-170.948 95.78 118.624) scale(144.27 203.44)" gradientUnits="userSpaceOnUse"><stop stop-color="#008243"/><stop offset="1" stop-color="#008243" stop-opacity=".44"/></radialGradient><radialGradient id="az" cx="0" cy="0" r="1" gradientTransform="rotate(-172.784 93.76 120.005) scale(144.272 203.436)" gradientUnits="userSpaceOnUse"><stop stop-color="#008243"/><stop offset="1" stop-color="#008243" stop-opacity=".44"/></radialGradient><radialGradient id="aA" cx="0" cy="0" r="1" gradientTransform="rotate(-174.767 91.582 121.495) scale(144.275 203.433)" gradientUnits="userSpaceOnUse"><stop stop-color="#008243"/><stop offset="1" stop-color="#008243" stop-opacity=".44"/></radialGradient><radialGradient id="aB" cx="0" cy="0" r="1" gradientTransform="matrix(-143.9979 -8.95361 12.6247 -203.03888 171.703 250.838)" gradientUnits="userSpaceOnUse"><stop stop-color="#008243"/><stop offset="1" stop-color="#008243" stop-opacity=".44"/></radialGradient><radialGradient id="aC" cx="0" cy="0" r="1" gradientTransform="matrix(-144.20446 -4.57464 6.45022 -203.32771 171.703 250.837)" gradientUnits="userSpaceOnUse"><stop stop-color="#008243"/><stop offset="1" stop-color="#008243" stop-opacity=".44"/></radialGradient><radialGradient id="aD" cx="0" cy="0" r="1" gradientTransform="matrix(-144.27618 -.486 .68525 -203.42885 171.703 250.839)" gradientUnits="userSpaceOnUse"><stop stop-color="#008243"/><stop offset="1" stop-color="#008243" stop-opacity=".44"/></radialGradient><radialGradient id="aE" cx="0" cy="0" r="1" gradientTransform="rotate(178.466 84.172 126.568) scale(144.277 203.43)" gradientUnits="userSpaceOnUse"><stop stop-color="#008243"/><stop offset="1" stop-color="#008243" stop-opacity=".44"/></radialGradient><radialGradient id="aF" cx="0" cy="0" r="1" gradientTransform="rotate(176.449 81.963 128.08) scale(144.276 203.431)" gradientUnits="userSpaceOnUse"><stop stop-color="#008243"/><stop offset="1" stop-color="#008243" stop-opacity=".44"/></radialGradient><radialGradient id="aG" cx="0" cy="0" r="1" gradientTransform="matrix(-143.56215 14.31422 -20.18382 -202.43025 171.703 250.838)" gradientUnits="userSpaceOnUse"><stop stop-color="#008243"/><stop offset="1" stop-color="#008243" stop-opacity=".44"/></radialGradient><radialGradient id="aH" cx="0" cy="0" r="1" gradientTransform="rotate(171.97 77.048 131.445) scale(144.271 203.438)" gradientUnits="userSpaceOnUse"><stop stop-color="#008243"/><stop offset="1" stop-color="#008243" stop-opacity=".44"/></radialGradient><radialGradient id="aI" cx="0" cy="0" r="1" gradientTransform="rotate(169.746 74.598 133.121) scale(144.268 203.443)" gradientUnits="userSpaceOnUse"><stop stop-color="#008243"/><stop offset="1" stop-color="#008243" stop-opacity=".44"/></radialGradient><radialGradient id="aJ" cx="0" cy="0" r="1" gradientTransform="matrix(-140.6255 32.18687 -45.39277 -198.32248 171.704 250.839)" gradientUnits="userSpaceOnUse"><stop stop-color="#008243"/><stop offset="1" stop-color="#008243" stop-opacity=".44"/></radialGradient><radialGradient id="aK" cx="0" cy="0" r="1" gradientTransform="matrix(-139.02763 38.48523 -54.27992 -196.08585 171.702 250.84)" gradientUnits="userSpaceOnUse"><stop stop-color="#008243"/><stop offset="1" stop-color="#008243" stop-opacity=".44"/></radialGradient><radialGradient id="aL" cx="0" cy="0" r="1" gradientTransform="rotate(162.299 66.322 138.787) scale(144.249 203.469)" gradientUnits="userSpaceOnUse"><stop stop-color="#008243"/><stop offset="1" stop-color="#008243" stop-opacity=".44"/></radialGradient><radialGradient id="aM" cx="0" cy="0" r="1" gradientTransform="rotate(160.432 64.224 140.224) scale(144.243 203.478)" gradientUnits="userSpaceOnUse"><stop stop-color="#008243"/><stop offset="1" stop-color="#008243" stop-opacity=".44"/></radialGradient><radialGradient id="aN" cx="0" cy="0" r="1" gradientTransform="rotate(158.418 61.946 141.782) scale(144.236 203.488)" gradientUnits="userSpaceOnUse"><stop stop-color="#008243"/><stop offset="1" stop-color="#008243" stop-opacity=".44"/></radialGradient><radialGradient id="aO" cx="0" cy="0" r="1" gradientTransform="rotate(156.409 59.66 143.346) scale(144.229 203.498)" gradientUnits="userSpaceOnUse"><stop stop-color="#008243"/><stop offset="1" stop-color="#008243" stop-opacity=".44"/></radialGradient><radialGradient id="aP" cx="0" cy="0" r="1" gradientTransform="rotate(154.257 57.192 145.037) scale(144.22 203.51)" gradientUnits="userSpaceOnUse"><stop stop-color="#008243"/><stop offset="1" stop-color="#008243" stop-opacity=".44"/></radialGradient></defs></svg>