<svg xmlns="http://www.w3.org/2000/svg" width="344" height="200" fill="none"><path stroke="url(#a)" stroke-width=".5" d="m26.015 264.224-48.026 22.984 11.655-30.885.02-.055-.005-.058-3.302-33.361 22.368-24.971.04-.044.015-.056 8.973-32.301 29.878-15.205.052-.027.035-.047 20.036-26.878 33.353-3.386.058-.006.05-.031 28.392-17.825 32.325 8.891.056.016.057-.012 32.915-6.365 26.93 19.967.047.035.057.011 33.1 5.973.08.015.074-.036 51.241-24.767 28.496 17.399 6.449 32.898.011.057.036.047 20.37 26.626-5.871 33.005-.011.058.017.056 9.375 32.186-17.398 28.656-.03.05-.005.059-2.885 33.399-26.575 20.436-.046.036-.026.053-14.756 30.102-32.163 9.456-.056.017-.043.039-24.634 22.739-33.408-2.8-.058-.005-.054.021-31.185 12.305-30.14-14.679-.053-.025h-.058l-33.524.209-22.802-24.575-.04-.043-.054-.021-31.337-11.915-12.384-31.153-.021-.054-.044-.039-24.915-22.43-.294-33.522-.004-.393-.354.169Z"/><path stroke="url(#b)" stroke-width=".5" d="m27.283 273.889-46.393 26.123 9.577-31.591.017-.056-.01-.058-5.51-33.068 20.66-26.402.036-.046.011-.057 6.808-32.826 28.802-17.156.05-.03.032-.049 18.206-28.15 33.055-5.593.058-.01.047-.034 27.146-19.673 32.843 6.725.057.012.057-.015 32.419-8.538 28.197 18.134.049.032.058.006 33.424 3.762.081.009.07-.04 49.483-28.116 29.59 15.468 8.619 32.396.015.057.039.044 22.093 25.214-3.665 33.323-.006.058.02.055 11.493 31.492-15.456 29.749-.027.052-.002.058-.659 33.517-25.159 22.157-.044.038-.022.055-12.724 31.015-31.464 11.572-.055.02-.04.043-23.069 24.325-33.52-.575-.058-.001-.053.025-30.299 14.349-31.048-12.645-.054-.022-.059.005-33.436 2.435-24.384-23.006-.042-.041-.056-.017-32.059-9.807-14.426-30.261-.025-.053-.046-.036-26.35-20.725-2.52-33.429-.03-.392-.342.193Z"/><path stroke="url(#c)" stroke-width=".5" d="m28.762 281.569-44.934 28.559 7.88-32.057.014-.057-.013-.057-7.265-32.727 19.222-27.465.034-.048.009-.058 5.047-33.142 27.847-18.667.048-.033.03-.05 16.679-29.081 32.71-7.348.057-.012.045-.037 26.058-21.092 33.156 4.965.058.008.055-.018 31.918-10.254 29.123 16.606.051.029.058.003 33.577 1.975.081.005.069-.044 47.913-30.714 30.372 13.868 10.335 31.891.018.056.041.042 23.406 24-1.884 33.471-.003.058.023.054 13.156 30.835-13.848 30.53-.024.053.002.059 1.128 33.505-23.942 23.466-.042.041-.019.055-11.052 31.65-30.803 13.233-.054.023-.037.044-21.74 25.521-33.502 1.212-.059.002-.051.028-29.491 15.944-31.678-10.971-.056-.02-.058.008-33.258 4.214-25.576-21.674-.045-.037-.057-.014-32.535-8.085-16.019-29.449-.028-.051-.048-.034-27.418-19.291-4.298-33.247-.05-.39-.332.211Z"/><path stroke="url(#d)" stroke-width=".5" d="m30.394 288.229-43.55 30.627 6.373-32.39.011-.057-.015-.057-8.787-32.351 17.917-28.335.032-.049.006-.058 3.493-33.341 26.944-19.949.047-.035.026-.052 15.303-29.828 32.33-8.868.056-.015.044-.039 25.044-22.286 33.351 3.409.059.006.054-.021 31.404-11.734 29.868 15.226.052.027.058.001 33.633.403.081.001.066-.047 46.426-32.92 30.987 12.434 11.814 31.373.02.055.043.04 24.503 22.88-.318 33.523v.058l.025.053 14.582 30.186-12.406 31.144-.021.055.004.058 2.693 33.415-22.819 24.56-.04.043-.017.056-9.56 32.131-30.151 14.658-.052.026-.036.046-20.523 26.508-33.409 2.777-.059.005-.05.03-28.713 17.305-32.156-9.479-.057-.017-.057.011-33.026 5.764-26.56-20.455-.047-.036-.057-.011-32.878-6.555-17.378-28.669-.03-.05-.05-.031-28.289-17.989-5.848-33.01-.068-.386-.322.226Z"/><path stroke="url(#e)" stroke-width=".5" d="M32.693 295.91-9.12 328.872l4.594-32.69.008-.058-.018-.055-10.542-31.824 16.342-29.271.029-.051.003-.058 1.666-33.483 25.813-21.391.045-.038.024-.053 13.65-30.62 31.797-10.622.055-.019.042-.041 23.788-23.622 33.488 1.582.058.003.054-.024 30.715-13.433 30.655 13.571.053.024.059-.003 33.604-1.435.081-.004.064-.05 44.557-35.408 31.62 10.721 13.51 30.681.024.054.045.037 25.716 21.507 1.514 33.49.003.059.028.051 16.21 29.344-10.685 31.776-.019.055.008.058 4.514 33.219-21.443 25.77-.037.045-.014.057-7.79 32.606-29.304 16.284-.051.029-.034.048-19.043 27.59-33.208 4.599-.058.008-.048.033-27.724 18.849-32.627-7.708-.057-.013-.057.013-32.661 7.56-27.638-18.973-.048-.033-.058-.008-33.187-4.748-18.918-27.676-.033-.048-.051-.029-29.23-16.415-7.643-32.642-.09-.382-.308.243Z"/><path stroke="url(#f)" stroke-width=".5" d="m35.179 302.859-40.101 35.023 2.944-32.88.005-.058-.021-.055-12.13-31.253L.727 243.58l.026-.052v-.059l-.02-33.524 24.705-22.662.043-.04.021-.054 12.092-31.268 31.223-12.208.055-.021.04-.043 22.57-24.789 33.524-.104h.059l.052-.027 30.001-14.961 31.299 12.013.054.021.058-.006 33.49-3.123.081-.008.061-.053 42.72-37.604 32.119 9.117 15.036 29.963.026.052.047.036 26.765 20.186 3.197 33.372.006.058.031.049 17.665 28.493-9.074 32.272-.016.057.011.057 6.179 32.95-20.12 26.816-.035.046-.01.058-6.141 32.957-28.448 17.737-.05.031-.031.05-17.631 28.513-32.935 6.263-.057.011-.047.035-26.741 20.219-32.973-6.057-.057-.01-.057.016-32.239 9.193-28.558-17.559-.05-.03-.058-.006-33.383-3.073-20.286-26.689-.036-.047-.052-.026-30.019-14.925-9.275-32.215-.108-.378-.296.259Z"/><path stroke="url(#g)" stroke-width=".5" d="M38 309.647-.298 346.635l1.293-32.986.002-.058-.024-.054-13.68-30.606L.62 252.169l.023-.054-.003-.058-1.699-33.481 23.538-23.872.041-.041.019-.056 10.51-31.834 30.572-13.757.053-.024.038-.045 21.3-25.888 33.477-1.784.058-.003.051-.029 29.214-16.445 31.861 10.429.055.018.058-.008 33.291-4.798.08-.011.059-.057 40.782-39.697 32.536 7.497 16.518 29.172.029.051.049.033 27.742 18.82 4.865 33.169.009.058.033.048 19.071 27.572-7.446 32.686-.013.057.014.057 7.822 32.599-18.751 27.79-.033.049-.007.058-4.482 33.223-27.524 19.14-.048.033-.028.052-16.181 29.361-32.579 7.905-.057.013-.045.038-25.695 21.533-33.234-4.397-.058-.008-.056.019-31.738 10.797-29.402-16.106-.051-.028-.058-.002-33.496-1.397-21.598-25.64-.037-.045-.054-.023-30.729-13.402-10.877-31.711-.127-.371-.283.273Z"/><path stroke="url(#h)" stroke-width=".5" d="M40.677 315.332 4.001 353.928l-.121-33.012v-.058l-.027-.052-14.978-29.992L.87 259.509l.021-.055-.005-.058-3.133-33.378 22.494-24.858.04-.043.015-.056 9.137-32.256 29.955-15.054.052-.026.035-.047 20.172-26.776 33.37-3.217.058-.006.049-.031 28.483-17.681 32.278 9.055.057.015.057-.01 33.055-6.22.079-.015.056-.059 39.044-41.408 32.827 6.096 17.754 28.438.03.049.05.031 28.524 17.615 6.282 32.93.01.058.036.046 20.234 26.729-6.038 32.976-.011.058.016.056 9.212 32.233-17.543 28.568-.031.05-.005.059-3.054 33.384-26.679 20.302-.046.035-.026.053-14.908 30.027-32.211 9.294-.056.016-.043.039-24.749 22.615-33.392-2.97-.059-.005-.054.021-31.247 12.147-30.064-14.831-.053-.026h-.058l-33.525.039-22.676-24.691-.04-.043-.054-.021-31.275-12.073-12.226-31.215-.143-.366-.27.284Z"/><path stroke="url(#i)" stroke-width=".5" d="M43.288 320.335 8.123 360.313l-1.391-32.982-.002-.059-.029-.051-16.12-29.394 10.782-31.743.018-.055-.007-.058-4.414-33.233 21.52-25.704.038-.045.014-.057 7.89-32.583 29.353-16.195.05-.028.034-.048 19.127-27.533 33.221-4.498.058-.008.049-.033 27.781-18.764 32.603 7.807.057.013.057-.013 32.79-7.486.08-.018.053-.061 37.423-42.88 33.037 4.83 18.834 27.733.033.049.05.029 29.18 16.504 7.544 32.664.013.057.037.046 21.248 25.931-4.766 33.183-.008.058.018.056 10.445 31.855-16.431 29.222-.029.051-.003.058-1.767 33.478-25.878 21.313-.045.037-.024.053-13.742 30.579-31.83 10.525-.055.019-.042.041-23.86 23.549-33.482-1.683-.059-.003-.053.024-30.756 13.34-30.613-13.665-.054-.023-.058.002-33.498 1.329-23.61-23.8-.04-.042-.056-.019-31.716-10.861-13.418-30.722-.157-.361-.26.295Z"/><path stroke="url(#j)" stroke-width=".5" d="m46.408 325.766-33.425 41.443-2.799-32.893-.004-.058-.03-.05-17.362-28.679 9.417-32.175.016-.056-.01-.057-5.829-33.014 20.404-26.6.036-.047.011-.057 6.491-32.89 28.635-17.434.05-.03.031-.049 17.934-28.325 32.999-5.912.058-.01.047-.035 26.954-19.933 32.907 6.407.057.011.056-.015 32.442-8.879.078-.022.051-.063 35.557-44.438 33.213 3.414 20.001 26.904.035.047.052.027 29.858 15.243 8.932 32.313.016.056.039.044 22.335 25-3.345 33.357-.005.058.02.055 11.796 31.38-15.169 29.897-.026.052-.001.058-.336 33.523-24.945 22.398-.043.039-.022.055-12.424 31.137-31.35 11.875-.055.021-.04.043-22.833 24.546-33.523-.252h-.059l-.052.026-30.159 14.641-31.168-12.345-.055-.022-.058.005-33.411 2.758-24.604-22.771-.043-.039-.056-.017-32.15-9.497-14.718-30.122-.172-.353-.247.306Z"/><path stroke="url(#k)" stroke-width=".5" d="m49.944 331.342-31.526 42.905-4.276-32.733-.007-.058-.033-.049-18.634-27.868 7.96-32.566.013-.057-.012-.057-7.309-32.718 19.186-27.492.034-.047.008-.058 5.004-33.149 27.822-18.705.048-.032.03-.051 16.64-29.103 32.7-7.391.057-.013.045-.037 26.031-21.126 33.161 4.921.058.008.055-.018 32.009-10.33.077-.025.048-.066 33.522-45.992 33.333 1.916 21.192 25.976.037.046.053.024 30.514 13.884 10.376 31.878.018.056.041.042 23.438 23.97-1.84 33.473-.003.059.023.053 13.196 30.818-13.808 30.549-.024.053.002.059 1.172 33.504-23.911 23.498-.041.041-.02.055-11.01 31.665-30.784 13.274-.054.023-.038.044-21.705 25.55-33.501 1.257-.058.002-.052.028-29.469 15.983-31.692-10.93-.055-.019-.058.008-33.253 4.258-25.604-21.64-.045-.038-.057-.014-32.545-8.041-16.058-29.428-.188-.345-.233.316Z"/><path stroke="url(#l)" stroke-width=".5" d="m53.788 336.833-29.532 44.3-5.767-32.504-.01-.058-.035-.047-19.888-26.988 6.463-32.895.011-.058-.015-.056-8.796-32.35 17.91-28.339.031-.05.006-.058 3.485-33.343 26.937-19.956.047-.035.027-.052 15.294-29.832 32.328-8.878.056-.015.043-.039 25.038-22.293 33.352 3.4.058.006.055-.021 31.503-11.782.076-.028.045-.068 31.385-47.476 33.386.391 22.356 24.981.039.044.055.022 31.116 12.476 11.822 31.37.021.055.043.04 24.508 22.874-.308 33.523-.001.058.025.053 14.591 30.183-12.398 31.147-.021.055.004.058 2.702 33.415-22.812 24.566-.04.043-.017.056-9.551 32.135-30.147 14.666-.052.026-.036.046-20.515 26.515-33.409 2.786-.058.005-.05.03-28.708 17.313-32.159-9.471-.056-.016-.057.01-33.024 5.774-26.566-20.449-.046-.035-.057-.012-32.88-6.545-17.385-28.664-.203-.336-.218.327Z"/><path stroke="url(#m)" stroke-width=".5" d="m58.257 342.608-27.292 45.715-7.378-32.177-.013-.057-.037-.046-21.206-25.964 4.818-33.177.008-.057-.018-.056-10.394-31.872 16.477-29.196.029-.051.003-.058 1.82-33.475 25.912-21.272.045-.037.024-.053 13.79-30.557 31.846-10.475.056-.018.041-.041 23.898-23.512 33.479 1.736.059.003.053-.023 30.878-13.335.075-.032.041-.07 28.984-48.979 33.364-1.27 23.572 23.837.041.042.055.019 31.699 10.912 13.368 30.743.024.054.044.038 25.617 21.626 1.36 33.496.002.059.028.051 16.075 29.419-10.833 31.727-.018.055.007.058 4.361 33.239-21.561 25.671-.038.045-.013.057-7.941 32.57-29.379 16.148-.051.029-.034.048-19.17 27.502-33.228 4.445-.058.008-.049.033-27.811 18.72-32.59-7.859-.057-.013-.057.013-32.695 7.409-27.551-19.101-.048-.033-.057-.008-33.164-4.902-18.79-27.763-.221-.326-.201.338Z"/><path stroke="url(#n)" stroke-width=".5" d="m62.162 347.208-25.389 46.799-8.695-31.846-.015-.057-.039-.044-22.256-25.07 3.45-33.347.006-.058-.02-.055-11.698-31.417 15.263-29.849.027-.052v-.058l.443-33.522 25.014-22.319.044-.039.022-.054 12.522-31.098 31.388-11.776.055-.021.04-.042 22.91-24.475 33.522.358.059.001.052-.026 30.304-14.593.073-.036.039-.071 26.944-50.13 33.284-2.642 24.532 22.849.043.04.056.016 32.12 9.6 14.622 30.167.026.053.046.036 26.484 20.554 2.737 33.412.004.059.03.05 17.271 28.733-9.518 32.145-.017.056.01.058 5.725 33.032-20.488 26.535-.035.047-.012.057-6.594 32.869-28.69 17.343-.05.031-.031.049-18.023 28.267-33.018 5.808-.057.01-.048.035-27.017 19.848-32.886-6.511-.057-.012-.057.016-32.362 8.748-28.313-17.952-.05-.031-.058-.007-33.337-3.533-19.917-26.967-.233-.316-.187.345Z"/><path stroke="url(#o)" stroke-width=".5" d="m65.833 351.204-23.64 47.706-9.867-31.503-.017-.056-.04-.042-23.17-24.23 2.214-33.451.004-.059-.022-.054-12.851-30.963 14.148-30.393.024-.053-.001-.058-.798-33.515 24.171-23.23.043-.04.02-.055 11.362-31.54 30.931-12.929.054-.023.038-.044 21.99-25.305 33.512-.883.059-.001.051-.027 29.743-15.705.072-.038.036-.073 25.072-51.092 33.163-3.871 25.36 21.925.044.038.057.015 32.454 8.404 15.728 29.606.027.052.048.034 27.226 19.561 3.971 33.288.007.058.032.049 18.322 28.075-8.323 32.475-.014.056.012.057 6.942 32.798-19.491 27.276-.034.047-.01.058-5.374 33.091-28.028 18.392-.049.032-.03.051-16.964 28.915-32.78 7.025-.058.012-.045.037-26.265 20.833-33.104-5.29-.058-.009-.056.017-32.017 9.939-28.957-16.892-.051-.029-.058-.004-33.446-2.298-20.9-26.212-.245-.307-.174.352Z"/><path stroke="url(#p)" stroke-width=".5" d="m71.202 356.553-21.144 48.863-11.481-30.951-.02-.055-.043-.04-24.39-23.001.483-33.521.001-.059-.025-.052L.15 287.478l12.56-31.082.021-.055-.004-.058-2.528-33.429 22.94-24.447.04-.042.016-.056 9.719-32.085 30.222-14.509.052-.026.036-.046 20.653-26.407 33.422-2.612.059-.005.05-.03L156.3 105.37l.07-.042.032-.075 22.399-52.319 32.919-5.578 26.459 20.586.046.036.057.011 32.845 6.717 17.236 28.754.03.051.049.031 28.201 18.128 5.685 33.039.01.058.034.047 19.747 27.091-6.633 32.861-.012.058.015.056 8.628 32.395-18.057 28.246-.032.049-.006.059-3.658 33.324-27.041 19.815-.047.035-.027.052-15.449 29.752-32.373 8.709-.056.016-.044.038-25.154 22.163-33.333-3.574-.058-.006-.055.02-31.461 11.58-29.791-15.374-.052-.027-.059-.001-33.52-.567-22.226-25.098-.26-.294-.156.361Z"/><path stroke="url(#q)" stroke-width=".5" d="m77.84 362.461-18.146 50.054-13.334-30.199-.024-.053-.045-.038-25.737-21.482-1.548-33.488-.003-.059-.029-.051-16.239-29.328L13.39 266.03l.019-.055-.008-.058-4.548-33.215 21.416-25.791.038-.045.013-.057 7.758-32.614 29.288-16.313.05-.028.034-.049 19.015-27.609 33.203-4.631.058-.009.048-.032 27.796-18.938.068-.046.027-.077 19.19-53.579 32.52-7.562 27.657 18.946.049.033.058.008 33.191 4.716 18.946 27.657.033.049.051.028 29.246 16.387 7.676 32.634.013.057.037.045 21.352 25.845-4.631 33.203-.008.058.018.056 10.574 31.813-16.313 29.287-.029.051-.003.059-1.632 33.484-25.792 21.417-.045.037-.023.054-13.619 30.633-31.786 10.654-.056.019-.041.041-23.765 23.645-33.489-1.548-.058-.003-.054.023-30.702 13.464-30.667-13.541-.054-.024-.058.003-33.493 1.463-23.705-23.705-.278-.278-.134.369Z"/><path stroke="url(#r)" stroke-width=".5" d="m81.789 365.654-16.403 50.652-14.371-29.719-.026-.053-.046-.036-26.465-20.578-2.707-33.415-.005-.058-.03-.05-17.244-28.749 9.547-32.137.016-.056-.01-.057-5.694-33.037 20.51-26.517.037-.047.011-.057 6.624-32.863L64.24 161.56l.05-.03.031-.049 18.049-28.252 33.022-5.777.058-.01.047-.035 27.124-19.889.066-.048.024-.077 17.324-54.212 32.239-8.682 28.297 17.977.049.031.058.006 33.335 3.564 19.892 26.986.034.047.052.026 29.796 15.365 8.801 32.349.015.056.039.044 22.234 25.091-3.48 33.343-.006.058.02.055 11.669 31.429-15.29 29.834-.026.052-.001.059-.473 33.52-25.034 22.297-.044.039-.022.054-12.55 31.087-31.399 11.747-.054.021-.04.042-22.933 24.454-33.522-.389h-.058l-.053.025-30.218 14.518-31.118-12.472-.054-.021-.058.004-33.422 2.622-24.512-22.871-.287-.268-.121.374Z"/><path stroke="url(#s)" stroke-width=".5" d="m95.025 374.851-10.747 52.145-17.545-27.963-.031-.049-.05-.031-28.564-17.55-6.356-32.916-.011-.057-.036-.047L11.39 321.7l5.964-32.989.01-.057-.016-.056-9.285-32.213 17.478-28.607.03-.05.005-.058 2.979-33.391 26.633-20.362.046-.036.026-.052 14.84-30.061 32.19-9.366.056-.016.043-.04 24.778-22.744.06-.055.016-.08 11.271-55.784 31.093-12.168 30.098 14.764.053.026h.058l33.525-.116 22.733 24.64.039.043.055.02 31.302 12.003 12.297 31.187.022.055.043.039 24.853 22.5.199 33.523.001.058.026.053 15.046 29.957-11.924 31.332-.02.055.005.058 3.208 33.37-22.437 24.908-.039.044-.016.056-9.064 32.276-29.92 15.121-.053.026-.035.047-20.111 26.822-33.363 3.292-.058.006-.049.031-28.443 17.746-32.299-8.982-.056-.016-.058.011-32.932 6.274-26.874-20.043-.315-.235-.08.385Z"/><path stroke="url(#t)" stroke-width=".5" d="m102.712 379.275-7.576 52.699-19.203-26.851-.034-.048-.052-.027-29.572-15.792-8.334-32.471-.015-.057-.038-.044-21.87-25.408 3.958-33.289.007-.058-.02-.055-11.215-31.593 15.718-29.611.027-.052.002-.058.955-33.51 25.353-21.934.044-.039.023-.053 12.996-30.903 31.565-11.294.055-.02.04-.042 23.359-24.2.056-.059.012-.08 7.879-56.364 30.3-14.025 30.936 12.918.054.023.058-.004 33.456-2.141 24.181 23.22.042.04.056.018 31.97 10.09 14.159 30.386.025.053.046.037 26.167 20.956 2.225 33.45.004.059.03.05 16.829 28.994-10.008 31.995-.018.056.009.057 5.219 33.116-20.891 26.219-.036.045-.013.058-7.096 32.764-28.952 16.902-.05.029-.033.049-18.453 27.988-33.103 5.303-.057.009-.048.034-27.318 19.432-32.783-7.013-.057-.012-.057.014-32.493 8.252-28.036-18.382-.328-.215-.056.389Z"/><path stroke="url(#u)" stroke-width=".5" d="m109.301 382.596-4.915 53.014-20.53-25.851-.036-.046-.053-.025-30.33-14.284-9.956-32.012-.017-.055-.04-.043-23.122-24.275 2.28-33.447.004-.058-.022-.054-12.79-30.988 14.208-30.365.025-.053-.002-.058-.731-33.516 24.218-23.181.042-.041.02-.055 11.425-31.516 30.957-12.868.054-.023.038-.044 22.112-25.344.054-.061.007-.081 5.034-56.689 29.556-15.53 31.547 11.345.055.02.058-.007 33.306-3.82 25.318 21.974.044.038.057.015 32.437 8.469 15.67 29.636.027.052.048.034 27.188 19.614 3.905 33.296.006.058.032.049 18.267 28.11-8.387 32.458-.015.057.012.057 6.878 32.811-19.546 27.236-.034.048-.009.057-5.44 33.08-28.065 18.337-.049.032-.029.05-17.023 28.881-32.794 6.961-.057.012-.046.036-26.306 20.782-33.094-5.356-.058-.009-.056.017-32.037 9.876-28.925-16.949-.339-.199-.036.391Z"/><path stroke="url(#v)" stroke-width=".5" d="m117.654 386.231-1.615 53.217-22.095-24.527-.04-.044-.053-.021-31.158-12.374-11.925-31.331-.02-.055-.044-.04-24.583-22.793.199-33.524v-.058l-.026-.053-14.689-30.134 12.296-31.188.021-.054-.005-.058-2.81-33.406 22.732-24.64.04-.043.016-.056 9.446-32.166 30.098-14.764.053-.026.036-.047 20.495-26.668.05-.064.002-.081 1.505-56.892 28.535-17.336 32.19 9.365.056.017.058-.01 33.005-5.882 26.633 20.361.046.036.058.01 32.901 6.44 17.479 28.606.03.05.05.031 28.353 17.888 5.965 32.989.01.058.035.047 19.976 26.922-6.355 32.916-.011.057.015.057 8.902 32.32-17.817 28.398-.031.049-.006.058-3.376 33.354-26.872 20.043-.047.035-.027.053-15.196 29.882-32.299 8.982-.056.016-.044.039-24.965 22.375-33.363-3.291-.058-.006-.055.021-31.362 11.845-29.921-15.12-.351-.177-.011.392Z"/><path stroke="url(#w)" stroke-width=".5" d="m126.359 389.391 1.748 53.212-23.599-23.084-.042-.041-.056-.018-31.876-10.383-13.878-30.517-.024-.053-.046-.037-25.973-21.197-1.917-33.469-.003-.058-.029-.051-16.562-29.147 10.303-31.902.018-.055-.008-.058-4.914-33.162 21.132-26.025.037-.046.013-.057 7.398-32.697 29.106-16.635.051-.029.033-.048 18.772-27.909.045-.067-.003-.081-2.088-56.874 27.384-19.101 32.717 7.315.057.013.057-.014 32.568-7.952 27.865 18.64.048.032.058.008 33.242 4.349 19.25 27.447.033.047.051.028 29.426 16.064 8.035 32.547.014.056.037.045 21.636 25.608-4.266 33.252-.007.058.019.055 10.924 31.694-15.99 29.465-.028.052-.002.058-1.264 33.5-25.554 21.7-.045.038-.023.053-13.28 30.782-31.668 11.003-.055.019-.041.042-23.504 23.905-33.504-1.179-.058-.002-.053.024-30.553 13.801-30.815-13.203-.361-.154.012.393Z"/><path stroke="url(#x)" stroke-width=".5" d="m133.553 391.542 4.469 53.054-24.75-21.846-.044-.039-.056-.015-32.366-8.739-15.422-29.766-.027-.052-.047-.034-27.024-19.84-3.627-33.327-.006-.058-.032-.05-18.031-28.261 8.657-32.387.015-.057-.012-.057-6.604-32.867 19.772-27.073.034-.047.01-.058 5.715-33.033 28.217-18.102.05-.032.03-.05 17.319-28.832.042-.07-.008-.081-4.996-56.692 26.371-20.478 33.049 5.632.057.01.056-.017 32.118-9.609 28.783 17.19.05.03.058.004 33.421 2.643 20.629 26.425.036.046.053.026 30.209 14.536 9.69 32.093.016.056.04.043 22.918 24.467-2.558 33.426-.005.059.022.054 12.532 31.094-14.461 30.245-.025.052v.059l.453 33.521-24.41 22.978-.043.04-.02.055-11.688 31.421-31.063 12.609-.054.022-.039.044-22.249 25.077-33.521.537-.058.001-.052.026-29.806 15.347-31.451-11.608-.369-.136.033.391Z"/><path stroke="url(#y)" stroke-width=".5" d="m140.197 393.183 6.939 52.787-25.742-20.668-.045-.036-.058-.013-32.738-7.219L71.76 389.02l-.029-.051-.049-.032-27.92-18.558-5.177-33.122-.01-.057-.033-.048-19.33-27.39 7.136-32.756.013-.057-.014-.056-8.13-32.523 18.487-27.966.032-.049.008-.058 4.167-33.264 27.342-19.398.048-.034.028-.052 15.955-29.608.038-.072-.01-.081-7.635-56.397 25.386-21.686 33.275 4.084.058.007.056-.019 31.635-11.096 29.553 15.828.051.028.059.001 33.507 1.081 21.839 25.435.038.044.054.023 30.855 13.112 11.176 31.606.019.055.042.041 24.034 23.371-.996 33.509-.002.059.025.053 13.968 30.475-13.034 30.887-.023.054.004.058 2.015 33.463-23.312 24.093-.04.042-.018.055-10.209 31.932-30.441 14.044-.054.025-.036.045-21.055 26.088-33.459 2.1-.059.003-.05.03-29.058 16.72-31.958-10.129-.375-.119.051.39Z"/><path stroke="url(#z)" stroke-width=".5" d="m147.45 394.603 9.588 52.371-26.75-19.345-.047-.035-.058-.009-33.06-5.561-18.234-28.132-.031-.049-.05-.03-28.82-17.128-6.84-32.819-.012-.057-.036-.046-20.685-26.382 5.478-33.073.01-.058-.017-.056-9.759-32.072 17.056-28.861.03-.05.004-.059 2.487-33.431 26.33-20.751.046-.037.026-.052 14.443-30.375.035-.074-.015-.079-10.466-55.941 24.262-22.937 33.439 2.402.058.005.054-.023 31.036-12.675 30.313 14.32.053.025.058-.002 33.52-.608 23.092 24.303.041.042.055.02 31.475 11.541 12.754 31.003.022.054.044.039 25.181 22.132.693 33.516.001.059.027.051 15.486 29.734-11.462 31.503-.02.055.006.058 3.698 33.32-22.068 25.236-.039.044-.015.056-8.588 32.405-29.695 15.56-.051.027-.035.048-19.714 27.114-33.311 3.783-.058.006-.049.032-28.179 18.162-32.427-8.506-.381-.099.071.386Z"/><path stroke="url(#A)" stroke-width=".5" d="m154.529 395.627 12.13 51.841-27.661-18.018-.049-.032-.058-.007-33.292-3.943-19.584-27.209-.034-.047-.052-.028-29.62-15.702-8.431-32.446-.015-.057-.038-.044-21.947-25.342 3.858-33.301.007-.058-.02-.055-11.31-31.558 15.628-29.659.028-.052.001-.058.854-33.513 25.287-22.01.044-.039.023-.054 12.945-31.043.031-.075-.018-.079-13.182-55.364L83.17 63.583l33.516.77h.059l.053-.024 30.381-14.174 30.975 12.825.054.022.058-.004 33.45-2.241 24.25 23.147.042.04.056.018 32.001 9.993 14.251 30.344.024.053.046.036 26.23 20.878 2.326 33.443.004.058.03.051 16.917 28.943-9.913 32.025-.017.056.009.057 5.319 33.1-20.812 26.281-.036.046-.012.057-6.998 32.786-28.901 16.989-.051.03-.032.049-18.369 28.043-33.086 5.402-.058.01-.048.034-27.259 19.514-32.804-6.915-.384-.081.089.383Z"/><path stroke="url(#B)" stroke-width=".5" d="m161.287 396.281 14.517 51.223-28.466-16.718-.05-.03-.058-.004-33.439-2.398-20.822-26.273-.037-.046-.053-.025-30.314-14.315-9.925-32.022-.017-.055-.04-.043-23.097-24.299 2.314-33.444.004-.058-.022-.054-12.76-31.001 14.24-30.35.025-.053-.002-.058-.697-33.517 24.241-23.157.042-.04.02-.055 11.495-31.609.028-.076-.023-.078-15.729-54.695 21.976-25.137 33.515-.782.059-.001.052-.028 29.692-15.564 31.535 11.378.055.02.058-.007 33.311-3.787 25.295 22 .044.038.057.015 32.429 8.501 15.639 29.653.028.052.047.034 27.168 19.641 3.871 33.3.007.058.032.049 18.238 28.129-8.42 32.449-.014.057.012.057 6.844 32.818-19.573 27.217-.034.047-.01.058-5.473 33.074-28.083 18.308-.049.032-.03.051-17.052 28.863-32.801 6.928-.057.012-.046.036-26.327 20.755-33.089-5.389-.388-.064.107.379Z"/><path stroke="url(#C)" stroke-width=".5" d="m169.846 396.656 17.482 50.289-29.393-15.028-.052-.027-.058-.001-33.522-.441-22.321-25.013-.039-.044-.054-.022-31.099-12.521-11.777-31.387-.02-.055-.043-.04-24.476-22.909.357-33.522.001-.058-.025-.053-14.547-30.203 12.442-31.13.022-.054-.005-.058-2.653-33.419 22.848-24.532.04-.043.017-.056 9.63-32.226.023-.078-.027-.077L43.7 100.265l20.47-26.377 33.413-2.737.058-.005.05-.03 28.734-17.271 32.145 9.517.056.016.058-.01 33.032-5.725 26.537 20.486.046.036.058.011 32.87 6.593 17.344 28.689.03.05.049.032 28.269 18.022 5.809 33.016.01.058.035.047 19.849 27.016-6.511 32.886-.011.057.015.057 8.749 32.362-17.951 28.313-.031.049-.006.058-3.533 33.338-26.967 19.916-.047.035-.027.052-15.337 29.81-32.341 8.831-.056.015-.044.039-25.07 22.256-33.347-3.448-.391-.04.129.371Z"/><path stroke="url(#D)" stroke-width=".5" d="m175.932 396.619 19.554 49.521-29.991-13.796-.053-.025-.059.002-33.511.95-23.339-24.066-.041-.042-.055-.02-31.591-11.22-13.07-30.872-.022-.053-.045-.039-25.405-21.874-1.034-33.508-.001-.058-.028-.052-15.787-29.574 11.14-31.618.02-.055-.007-.058-4.038-33.28 21.81-25.46.039-.044.014-.057 8.285-32.597.02-.079-.03-.076L37.6 105.716l19.358-27.203 33.271-4.121.058-.007.049-.032 27.992-18.449 32.513 8.176.056.014.058-.012 32.766-7.091 27.364 19.367.047.034.058.01 33.115 5.224 18.52 27.944.032.049.051.029 28.991 16.834 7.174 32.747.013.057.036.046 20.953 26.17-5.141 33.127-.009.058.018.056 10.084 31.971-16.761 29.033-.029.051-.004.058-2.146 33.455-26.118 21.018-.046.037-.024.053-14.087 30.421-31.947 10.164-.056.018-.042.04-24.125 23.278-33.462-2.062-.392-.024.144.365Z"/><path stroke="url(#E)" stroke-width=".5" d="m184.161 396.166 22.304 48.344-30.719-12.09-.054-.021-.059.005-33.405 2.83-24.654-22.717-.043-.04-.056-.016-32.171-9.428-14.783-30.089-.025-.053-.047-.035-26.593-20.413-2.915-33.397-.005-.058-.03-.05-17.423-28.641 9.347-32.195.016-.056-.01-.057-5.9-33.001 20.346-26.644.035-.046.011-.058 6.44-33.011.017-.08-.035-.074-24.041-51.584 17.8-28.247 32.986-5.984.057-.01.047-.035 26.912-19.991 32.921 6.336.057.011.056-.015 32.317-8.92 28.408 17.8.05.031.058.006 33.356 3.356 20.06 26.861.035.047.052.026 29.892 15.179 9.001 32.293.016.056.039.044 22.39 24.951-3.273 33.364-.005.058.02.055 11.864 31.354-15.103 29.929-.027.052v.059l-.264 33.523-24.896 22.452-.044.039-.021.054-12.357 31.164-31.325 11.942-.055.021-.039.043-22.78 24.596-33.525-.18-.393-.002.165.357Z"/><path stroke="url(#F)" stroke-width=".5" d="m193.414 395.1 25.327 46.831-31.424-10.116-.056-.018-.057.009-33.159 4.944-26.046-21.106-.045-.037-.057-.013-32.705-7.367-16.663-29.09-.029-.051-.048-.032-27.836-18.684-5.028-33.145-.009-.058-.033-.048-19.207-27.477 7.285-32.722.013-.058-.014-.056-7.983-32.56 18.614-27.882.032-.048.008-.058 4.332-33.354.01-.08-.038-.072-27.268-49.954 15.971-29.32 32.54-8.065.057-.014.045-.038L95.53 63.702l33.257 4.234.058.008.055-.02 31.685-10.953 29.481 15.962.052.028.058.002 33.502 1.232 21.724 25.533.038.045.054.023 30.795 13.251 11.033 31.656.019.055.042.041 23.928 23.481-1.148 33.504-.002.058.024.053 13.83 30.539-13.173 30.827-.023.054.003.058 1.864 33.472-23.42 23.987-.041.042-.018.055-10.354 31.885-30.504 13.907-.053.024-.037.046-21.173 25.991-33.468 1.949-.392.023.187.346Z"/><path stroke="url(#G)" stroke-width=".5" d="m201.973 393.577 28.057 45.248-31.968-8.236-.056-.014-.058.012-32.807 6.9-27.25-19.527-.048-.034-.058-.009-33.084-5.417-18.357-28.051-.032-.049-.05-.03-28.894-17.002-6.983-32.788-.012-.057-.036-.046-20.8-26.291 5.332-33.097.01-.058-.018-.056-9.898-32.029 16.93-28.936.03-.05.003-.058 2.349-33.552.006-.081-.044-.069-30.179-48.251 14.206-30.215 32.005-9.979.056-.017.042-.04 24.26-23.137 33.45 2.256.058.004.054-.022 30.98-12.811 30.375 14.186.053.025.059-.001 33.516-.755 23.199 24.201.04.042.055.02 31.526 11.404 12.889 30.947.023.054.044.038 25.277 22.021.84 33.514.001.058.027.052 15.615 29.665-11.324 31.554-.019.055.006.058 3.844 33.303-21.958 25.332-.038.044-.015.057-8.446 32.442-29.627 15.69-.051.027-.035.047-19.595 27.201-33.294 3.928-.39.046.207.334Z"/><path stroke="url(#H)" stroke-width=".5" d="m247.693 375.631 41.423 33.449-32.895 2.779-.058.005-.05.03-28.689 17.344-32.17-9.436-.056-.016-.058.01-33.017 5.809-26.589-20.419-.046-.035-.058-.012-32.886-6.51-17.417-28.645-.03-.05-.05-.031-28.314-17.95-5.892-33.002-.01-.058-.035-.047-19.918-26.966 6.428-32.902.01-.057-.015-.057-8.86-32.446-.02-.078-.064-.051-44.417-35.583 3.434-33.21 26.916-19.985.047-.035.027-.052 15.261-29.849 32.319-8.912.056-.016.044-.038 25.014-22.32 33.356 3.363.058.006.054-.02 31.388-11.777 29.888 15.186.053.026h.058l33.523.357 22.384 24.957.039.044.054.021 31.13 12.442 11.857 31.358.021.054.042.04 24.534 22.847-.272 33.523-.001.059.026.052 14.623 30.167-12.364 31.161-.021.054.004.058 2.738 33.412-22.785 24.59-.04.043-.017.056-9.517 32.145-30.13 14.699-.353.172.305.247Z"/><path stroke="url(#I)" stroke-width=".5" d="m255.238 370.765 43.392 30.852-32.664 4.787-.058.008-.048.033-27.574 19.067-32.687-7.45-.057-.013-.057.014-32.6 7.818-27.788-18.754-.049-.033-.058-.008-33.223-4.486-19.136-27.525-.034-.049-.051-.028-29.36-16.184-7.9-32.58-.014-.057-.037-.044-21.53-25.697 4.402-33.234.008-.058-.019-.055-10.828-31.843-.027-.077-.066-.047-46.51-32.799 1.395-33.359L7.703 147.37l.045-.037.023-.054 13.407-30.726 31.713-10.873.055-.019.041-.042L76.59 81.811l33.499 1.317.058.002.054-.024 30.608-13.675 30.761 13.329.054.023.058-.003 33.482-1.695 23.869 23.541.042.041.055.018 31.834 10.515 13.752 30.573.024.053.045.037 25.886 21.304 1.779 33.476.003.059.029.051 16.442 29.215-10.435 31.859-.018.056.008.057 4.777 33.182-21.238 25.938-.037.046-.013.057-7.533 32.666-29.175 16.515-.342.194.321.227Z"/><path stroke="url(#J)" stroke-width=".5" d="m261.449 366.24 44.948 28.537-32.368 6.49-.057.012-.046.036-26.538 20.484-33.032-5.728-.058-.01-.056.017-32.146 9.515-28.732-17.273-.05-.03-.059-.005-33.412-2.74-20.552-26.485-.036-.047-.053-.025-30.166-14.625-9.597-32.121-.016-.056-.04-.043-22.847-24.534 2.656-33.418.005-.058-.022-.055-12.482-31.232-.03-.075-.069-.044-48.165-30.318-.353-33.385 24.477-22.908.043-.04.02-.055 11.78-31.386 31.1-12.519.053-.022.04-.043L67.91 87.039l33.521-.44h.059l.052-.027 29.85-15.26 31.417 11.7.055.02.058-.006 33.348-3.446 25.068 22.258.044.039.057.016 32.34 8.832 15.335 29.811.027.052.047.035 26.966 19.918 3.53 33.338.006.058.032.049 17.949 28.314-8.752 32.362-.015.056.012.058 6.508 32.886-19.851 27.015-.034.047-.011.058-5.811 33.016-28.269 18.02-.332.211.332.211Z"/><path stroke="url(#K)" stroke-width=".5" d="m267.733 361.121 46.456 26.011-31.959 8.269-.057.014-.044.038-25.366 21.92-33.298-3.895-.058-.007-.055.02-31.572 11.276-29.642-15.66-.052-.027-.058-.001-33.513-.891-21.984-25.31-.038-.044-.054-.022-30.929-12.936-11.356-31.542-.02-.055-.042-.041-24.166-23.234.805-33.515.002-.058-.025-.053-14.188-30.495-.034-.074-.071-.039-49.766-27.612-2.197-33.315 23.174-24.224.04-.043.018-.056 10.027-31.989 30.361-14.217.053-.025.036-.046 20.907-26.206 33.446-2.29.059-.005.05-.03 28.962-16.884 32.015 9.946.056.018.058-.01L186.82 78.5l26.26 20.84.046.035.057.013 32.779 7.032 16.958 28.919.03.05.049.032 28.025 18.399 5.366 33.092.01.057.034.048 19.485 27.279-6.95 32.796-.012.057.014.057 8.316 32.476-18.329 28.07-.032.049-.007.058-3.978 33.287L267.71 360.7l-.319.229.342.192Z"/><path stroke="url(#L)" stroke-width=".5" d="m273.221 356.147 47.71 23.632-31.502 9.871-.056.018-.042.04-24.227 23.172-33.452-2.209-.059-.003-.054.022-30.962 12.855-30.395-14.143-.053-.025-.058.002-33.515.803-23.234-24.168-.04-.042-.055-.02-31.542-11.358-12.934-30.929-.023-.054-.044-.038-25.309-21.985-.887-33.512-.002-.059-.027-.051-15.71-29.741-.037-.071-.073-.036-51.097-25.064-3.876-33.162 21.922-25.363.038-.045.015-.056 8.4-32.455 29.604-15.732.051-.027.034-.048 19.557-27.228 33.288-3.976.058-.007.05-.032 28.072-18.326 32.477 8.318.056.014.057-.012 32.797-6.947 27.279 19.487.048.034.057.01 33.093 5.369 18.396 28.025.032.049.051.029 28.918 16.961 7.03 32.778.012.057.037.046 20.838 26.261-5.286 33.105-.009.058.017.055 9.944 32.016-16.888 28.959-.029.051-.004.058-2.293 33.445-26.209 20.904-.307.245.352.175Z"/><path stroke="url(#M)" stroke-width=".5" d="m279.328 349.97 49.025 20.767-30.862 11.718-.055.021-.039.043-22.813 24.565-33.524-.224-.059-.001-.052.026-30.147 14.665-31.179-12.319-.055-.021-.058.005L146.101 412l-24.623-22.75-.043-.04-.056-.017-32.16-9.471-14.741-30.108-.026-.053-.046-.036-26.566-20.448-2.87-33.401-.005-.058-.03-.05-17.442-28.758-.042-.07-.076-.031-52.49-21.996-5.833-32.874 20.382-26.616.036-.047.011-.057 6.464-32.895 28.621-17.457.05-.03.031-.05 17.91-28.338 32.995-5.94.058-.01.047-.035 26.938-19.955 32.912 6.38.058.012.056-.016 32.328-8.876 28.385 17.838.049.031.058.006 33.352 3.401 20.024 26.887.035.047.052.027 29.871 15.219 8.959 32.305.015.056.039.044 22.356 24.981-3.316 33.36-.006.058.02.054 11.822 31.371-15.144 29.908-.026.053-.001.058-.309 33.522-24.926 22.419-.292.263.362.153Z"/><path stroke="url(#N)" stroke-width=".5" d="m284.436 344.189 50.049 18.16-30.203 13.325-.054.024-.037.045-21.49 25.73-33.489 1.539-.059.003-.051.028-29.334 16.23-31.784-10.663-.055-.018-.058.008-33.216 4.538-25.786-21.424-.045-.038-.056-.013-32.613-7.767-16.305-29.292-.028-.051-.048-.034-27.605-19.023-4.622-33.204-.008-.058-.033-.048-18.93-27.801-.046-.067-.076-.028-53.575-19.205-7.553-32.522 18.954-27.651.034-.049.008-.057 4.725-33.19 27.663-18.937.049-.033.028-.051 16.396-29.241 32.636-7.666.057-.013.045-.038 25.852-21.344 33.202 4.642.058.008.056-.019 31.817-10.564 29.283 16.322.051.028.058.003 33.485 1.642 21.41 25.798.037.045.053.023 30.63 13.628 10.645 31.789.019.055.041.042 23.639 23.771-1.558 33.488-.003.058.023.054 13.455 30.705-13.55 30.664-.024.053.003.059 1.454 33.492-23.713 23.698-.278.278.37.134Z"/><path stroke="url(#O)" stroke-width=".5" d="m289.442 337.868 50.971 15.383-29.425 14.964-.052.027-.035.047-20.044 26.872-33.354 3.376-.058.006-.05.031-28.398 17.818-32.321-8.901-.057-.015-.057.011-32.917 6.356-26.923-19.975-.047-.035-.058-.01-32.99-5.964-17.89-28.351-.03-.05-.05-.03-28.609-17.478-6.44-32.9-.01-.057-.036-.047-20.43-26.719-.049-.064-.077-.024-54.55-16.232-9.328-32.058 17.406-28.651.03-.05.006-.058 2.894-33.399 26.581-20.429.047-.036.025-.052 14.765-30.098 32.166-9.447.056-.017.043-.039 24.64-22.732 33.407 2.81.058.004.054-.021 31.189-12.296 30.135 14.688.053.025h.059l33.524-.2 22.795 24.582.039.043.055.021 31.333 11.924 12.375 31.156.021.054.044.039 24.909 22.437.284 33.523.001.058.026.052 15.122 29.92-11.845 31.362-.021.054.006.059 3.292 33.361-22.374 24.966-.263.292.377.114Z"/><path stroke="url(#P)" stroke-width=".5" d="m294.049 331.347 51.733 12.587-28.567 16.543-.05.029-.033.049-18.551 27.924-33.121 5.186-.058.009-.048.034-27.386 19.336-32.758-7.128-.057-.012-.057.014-32.522 8.138-27.971-18.48-.048-.032-.058-.007-33.266-4.16-19.406-27.336-.034-.048-.052-.027-29.517-15.895-8.22-32.501-.015-.057-.038-.044-21.852-25.568-.053-.062-.08-.018-55.351-13.24-11.06-31.503 15.822-29.556.027-.051.002-.059 1.073-33.507 25.43-21.845.044-.038.023-.054 13.104-30.856 31.604-11.184.055-.02.04-.042 23.367-24.04 33.51.989.059.001.053-.024 30.473-13.975 30.89 13.026.054.022.059-.003 33.463-2.024 24.099 23.305.042.041.056.017 31.935 10.201 14.053 30.437.024.053.046.037 26.093 21.048 2.109 33.457.003.058.03.051 16.727 29.052-10.12 31.96-.018.056.009.058 5.103 33.133-20.983 26.146-.246.306.382.093Z"/><path stroke="url(#Q)" stroke-width=".5" d="m297.993 325.096 52.301 9.964-27.697 17.962-.049.032-.03.05-17.121 28.822-32.818 6.849-.057.012-.046.036-26.377 20.691-33.076-5.469-.058-.009-.056.017-32.07 9.766-28.867-17.048-.05-.03-.058-.004-33.434-2.478-20.758-26.325-.036-.045-.053-.026-30.28-14.388-9.847-32.045-.018-.056-.04-.042-23.113-24.434-.056-.06-.08-.014-55.948-10.435-12.633-30.906 14.313-30.315.024-.053v-.059l-.617-33.518L3.585 168.44l.042-.04.02-.055 11.533-31.478 31.001-12.762.054-.022.039-.044 22.125-25.186 33.518-.701.058-.001.052-.027 29.73-15.493 31.508 11.453.055.02.058-.006 33.319-3.707 25.242 22.061.045.039.056.015 32.408 8.579 15.569 29.69.027.052.047.034 27.121 19.707 3.791 33.309.006.058.032.049 18.17 28.173-8.498 32.429-.014.057.011.057 6.766 32.834-19.639 27.17-.23.318.386.074Z"/><path stroke="url(#R)" stroke-width=".5" d="m301.851 318.207 52.762 7.136-26.691 19.426-.047.034-.028.052-15.545 29.702-32.402 8.604-.056.015-.044.038-25.226 22.081-33.322-3.681-.058-.007-.055.02-31.499 11.478-29.741-15.47-.052-.027-.059-.001-33.518-.676-22.145-25.169-.038-.044-.055-.022-31.01-12.738-11.557-31.469-.02-.055-.043-.04-24.394-23.156-.06-.056-.08-.01-56.429-7.409-14.277-30.182 12.66-31.041.023-.054-.005-.059-2.42-33.436 23.02-24.372.04-.043.017-.056 9.823-32.052 30.269-14.412.053-.025.036-.046 20.738-26.34 33.431-2.503.059-.005.05-.03 28.853-17.07 32.079 9.742.056.017.057-.01 33.072-5.494 26.393 20.672.046.036.057.012 32.823 6.823 17.143 28.809.03.05.049.032 28.142 18.219 5.578 33.057.01.057.034.048 19.66 27.154-6.741 32.839-.012.058.015.056 8.523 32.423-18.149 28.187-.213.33.39.053Z"/><path stroke="url(#S)" stroke-width=".5" d="m305.24 311.324 53.064 4.367-25.639 20.795-.045.037-.025.053-13.971 30.474-31.907 10.287-.056.018-.042.041-24.036 23.369-33.469-1.934-.058-.003-.054.023-30.855 13.109-30.511-13.893-.053-.025-.058.002-33.508 1.078-23.431-23.976-.041-.042-.055-.02-31.634-11.098-13.187-30.822-.023-.054-.045-.038-25.572-21.848-.062-.052-.08-.007-56.74-4.448-15.835-29.393 11.019-31.661.02-.056-.008-.058-4.165-33.264 21.713-25.542.038-.045.014-.057 8.133-32.522 29.474-15.975.051-.027.034-.048 19.333-27.388 33.254-4.249.058-.008.049-.032 27.921-18.555 32.544 8.05.056.014.058-.012 32.738-7.216 27.438 19.262.048.034.058.009 33.135 5.097 18.626 27.874.033.048.05.029 29.056 16.723 7.3 32.72.012.057.037.045 21.053 26.089-5.014 33.147-.009.058.018.056 10.207 31.932-16.65 29.097-.195.342.391.032Z"/><path stroke="url(#T)" stroke-width=".5" d="m318.102 237.035 48.222-22.569-11.921 30.784-.021.054.005.059 3.014 33.388-22.582 24.777-.039.044-.016.056-9.251 32.222-30.008 14.947-.052.027-.036.046-20.266 26.705-33.382 3.098-.058.005-.05.031-28.545 17.58-32.246-9.169-.057-.016-.057.01-32.969 6.082-26.756-20.198-.047-.036-.057-.01-33.048-6.259-.08-.015-.073.035-51.453 24.324-28.345-17.643-6.165-32.952-.011-.058-.035-.047-20.14-26.8 6.155-32.954.011-.058-.016-.056-9.098-32.266 17.644-28.505.031-.05.006-.058 3.172-33.373 26.75-20.207.047-.035.026-.052 15.015-29.974 32.244-9.179.056-.016.043-.039 24.829-22.526 33.382 3.088.058.005.055-.021 31.289-12.036 30.013 14.938.052.027h.059l33.524.079 22.59 24.771.039.043.055.022 31.232 12.184 12.115 31.258.021.055.043.039 24.722 22.644.005 33.524v.393l.356-.167Z"/><path stroke="url(#U)" stroke-width=".5" d="m317.236 229.499 46.99-25.032-10.313 31.359-.018.055.008.058 4.736 33.188-21.27 25.912-.037.045-.013.057-7.573 32.658-29.195 16.478-.051.029-.033.048-18.859 27.717-33.176 4.82-.058.008-.048.033-27.598 19.033-32.678-7.49-.057-.013-.057.013-32.61 7.779-27.765-18.789-.048-.033-.058-.007-33.327-4.542-.08-.011-.072.038-50.126 26.952-29.22-16.154-7.86-32.589-.014-.057-.038-.045-21.498-25.724 4.443-33.228.008-.058-.019-.055-10.754-31.752 16.147-29.379.028-.052.003-.058 1.442-33.493 25.67-21.562.045-.038.023-.054 13.445-30.71 31.726-10.833.055-.019.042-.042 23.63-23.779 33.498 1.358.058.002.054-.023 30.625-13.638 30.745 13.367.053.023.059-.003 33.484-1.653 23.84 23.57.041.041.056.018 31.82 10.554 13.715 30.59.024.053.045.037 25.859 21.335 1.738 33.479.021.393.347-.185Z"/><path stroke="url(#V)" stroke-width=".5" d="m316.236 223.361 45.887-27.001-8.974 31.768-.016.056.011.057 6.138 32.957-20.153 26.791-.035.047-.011.057-6.181 32.949-28.47 17.701-.05.031-.031.05-17.667 28.491-32.942 6.222-.058.011-.046.035-26.767 20.185-32.965-6.098-.058-.011-.056.016-32.251 9.154-28.537-17.595-.049-.031-.059-.005-33.489-3.125-.08-.008-.07.042-48.94 29.052-29.878-14.901-9.235-32.227-.016-.056-.04-.043-22.569-24.79 3.031-33.386.005-.058-.02-.055-12.091-31.268 14.887-30.037.026-.052v-.059l.022-33.524 24.732-22.631.044-.039.02-.055 12.132-31.252 31.238-12.169.054-.021.04-.043 22.601-24.76 33.525-.063h.059l.052-.026 30.02-14.923 31.283 12.051.055.021.058-.005 33.384-3.072 24.817 22.539.044.039.056.016 32.239 9.195 14.999 29.982.027.052.046.035 26.741 20.22 3.155 33.375.037.391.339-.199Z"/><path stroke="url(#W)" stroke-width=".5" d="m314.573 215.554 44.351-29.458-7.233 32.209-.013.057.014.057 7.923 32.574-18.666 27.847-.033.049-.007.058-4.38 33.236-27.465 19.224-.048.034-.028.051-16.091 29.41-32.555 8.005-.057.014-.044.038-25.629 21.611-33.248-4.295-.058-.008-.056.019-31.705 10.894-29.451-16.016-.052-.028-.058-.002-33.61-1.298-.081-.003-.068.045L58.94 411.55l-30.645-13.254-10.975-31.677-.019-.055-.042-.041-23.884-23.524 1.21-33.503.002-.058-.024-.053-13.774-30.564 13.23-30.803.024-.053-.003-.059-1.803-33.475 23.465-23.943.041-.042.018-.056 10.413-31.866 30.53-13.85.053-.024.037-.045 21.221-25.953 33.472-1.887.058-.003.051-.029 29.163-16.534 31.893 10.332.056.018.058-.009 33.167-4.883 26.007 21.155.045.037.057.013 32.692 7.427 16.609 29.121.029.051.048.032 27.801 18.736 4.967 33.154.058.388.327-.217Z"/><path stroke="url(#X)" stroke-width=".5" d="m312.437 207.677 42.643-31.879-5.43 32.562-.01.057.017.056 9.723 32.084-17.088 28.842-.03.05-.004.058-2.524 33.429-26.353 20.722-.046.036-.025.053-14.43 30.26-32.06 9.803-.056.017-.042.04-24.387 23.004-33.436-2.44-.058-.004-.054.022-31.05 12.641-30.297-14.353-.053-.026-.058.001-33.63.573-.082.002-.065.049-45.45 34.253-31.335-11.529-12.72-31.017-.022-.054-.044-.039-25.156-22.159-.656-33.518v-.058l-.028-.052-15.452-29.751 11.497-31.49.02-.055-.007-.058-3.661-33.324 22.096-25.211.039-.044.015-.057 8.624-32.395 29.712-15.527.052-.027.034-.048 19.745-27.093 33.315-3.745.058-.007.049-.031 28.199-18.131 32.418 8.542.056.015.058-.012 32.844-6.721 27.143 19.676.048.034.057.01 33.055 5.598 18.202 28.152.032.049.05.03 28.8 17.159 6.804 32.827.079.384.315-.235Z"/><path stroke="url(#Y)" stroke-width=".5" d="m309.015 197.65 40.23-34.873-3.065 32.868-.005.058.021.055 12.013 31.297-14.961 30.001-.026.052-.001.059-.104 33.523-24.789 22.571-.043.039-.021.054-12.208 31.223-31.268 12.091-.055.021-.039.043-22.663 24.704-33.525-.019h-.058l-.052.025-30.057 14.85-31.254-12.129-.054-.021-.059.005-33.5 2.999-.081.007-.062.054-42.86 37.444-32.084-9.236-14.926-30.019-.026-.052-.046-.035-26.69-20.286-3.074-33.383-.006-.058-.03-.05-17.56-28.557 9.194-32.239.016-.056-.01-.058-6.058-32.972 20.219-26.74.035-.047.01-.057 6.264-32.934 28.513-17.631.05-.031.031-.05 17.737-28.447 32.958-6.141.057-.01.047-.035 26.816-20.12 32.951 6.18.057.011.057-.016 32.273-9.074 28.493 17.665.05.031.058.005 33.372 3.198 20.187 26.764.035.047.053.026 29.963 15.036 9.156 32.25.107.378.297-.258Z"/><path stroke="url(#Z)" stroke-width=".5" d="m305.385 188.993 37.917-37.376-.956 32.997-.002.059.025.053 13.991 30.465-13.012 30.896-.022.054.003.058 2.041 33.462-23.294 24.109-.041.042-.018.056-10.185 31.939-30.43 14.068-.054.024-.036.046-21.036 26.103-33.457 2.124-.059.004-.05.029-29.045 16.742-31.966-10.105-.056-.017-.058.009-33.24 5.136-.08.012-.058.057-40.376 40.11-32.61-7.165-16.816-29.002-.03-.051-.048-.032-27.933-18.537-5.203-33.118-.01-.058-.033-.047-19.35-27.376 7.111-32.761.013-.057-.014-.056-8.155-32.517 18.467-27.98.032-.049.008-.058 4.143-33.266L38.73 168.6l.048-.034.027-.052 15.881-29.524 32.498-8.236.056-.014.045-.038 25.474-21.794 33.278 4.059.058.007.055-.019 31.627-11.12 29.565 15.806.051.028.059.002 33.508 1.055 21.858 25.419.038.044.054.023 30.864 13.088 11.2 31.598.131.371.28-.276Z"/><path stroke="url(#aa)" stroke-width=".5" d="m300.768 179.77 35.196-39.948 1.365 32.983.003.058.028.052 16.097 29.406-10.808 31.734-.018.055.007.058 4.387 33.236-21.541 25.687-.038.045-.014.057-7.915 32.576-29.367 16.171-.051.028-.034.048-19.149 27.517-33.225 4.471-.058.007-.048.033-27.797 18.741-32.597-7.833-.057-.013-.057.013-32.797 7.459-.079.018-.054.061-37.457 42.848-33.034-4.856-18.812-27.748-.032-.049-.051-.028-29.167-16.528-7.518-32.671-.013-.057-.037-.045-21.227-25.948 4.792-33.179.009-.058-.019-.056-10.42-31.863 16.456-29.208.028-.051.003-.059 1.795-33.475 25.895-21.292.045-.037.024-.053 13.767-30.567 31.838-10.5.056-.018.041-.041 23.88-23.53 33.481 1.71.059.003.053-.023 30.767-13.315 30.603 13.689.053.024.059-.002 33.499-1.302 23.591 23.819.041.042.055.019 31.708 10.887 13.393 30.733.157.36.26-.295Z"/><path stroke="url(#ab)" stroke-width=".5" d="m297.008 173.276 33.107-41.696 3.05 32.87.006.058.03.05 17.581 28.544-9.171 32.246-.016.056.011.057 6.081 32.968-20.2 26.755-.035.047-.011.057-6.239 32.939-28.502 17.651-.049.031-.031.049-17.717 28.461-32.953 6.164-.058.01-.047.036-26.801 20.138-32.955-6.156-.058-.011-.056.016-32.373 9.127-.078.022-.05.064-35.217 44.707-33.239-3.16-20.206-26.75-.035-.047-.053-.026-29.974-15.015-9.179-32.243-.016-.056-.039-.043-22.526-24.829 3.09-33.381.005-.058-.021-.055-12.036-31.289 14.94-30.011.026-.052v-.059l.08-33.524 24.773-22.587.043-.04.021-.054 12.185-31.231 31.26-12.114.055-.021.039-.044 22.645-24.72 33.525-.004h.058l.053-.026 30.046-14.871 31.262 12.107.055.021.058-.006 33.389-3.013 24.778 22.582.043.04.056.016 32.223 9.251 14.947 30.008.175.351.245-.307Z"/><path stroke="url(#ac)" stroke-width=".5" d="m285.841 157.515 27.341-45.685 7.343 32.184.013.057.037.045 21.179 25.987-4.854 33.171-.008.058.018.055 10.361 31.883-16.509 29.178-.029.051-.003.058-1.857 33.472-25.934 21.244-.045.037-.024.053-13.824 30.542-31.857 10.441-.056.018-.041.041-23.923 23.485-33.478-1.772-.059-.003-.053.023-30.893 13.302-.075.032-.041.07-29.037 48.947-33.365 1.235-23.547-23.863-.041-.041-.055-.019-31.688-10.946-13.336-30.758-.023-.053-.045-.038-25.593-21.653-1.325-33.498-.002-.058-.028-.052-16.043-29.436 10.866-31.714.02-.055-.008-.058-4.326-33.244 21.59-25.647.037-.045.014-.056 7.975-32.562 29.397-16.116.051-.029.034-.047 19.2-27.482 33.233-4.409.058-.008.049-.033 27.831-18.69 32.582 7.893.057.014.057-.013 32.704-7.374 27.53 19.13.048.033.058.009 33.159 4.937 18.761 27.783.22.326.202-.337Z"/><path stroke="url(#ad)" stroke-width=".5" d="m281.407 152.311 25.183-46.91 8.835 31.807.015.057.039.043 22.367 24.972-3.302 33.361-.006.058.021.055 11.835 31.365-15.131 29.915-.026.052-.001.059-.294 33.522-24.917 22.429-.043.04-.022.054-12.385 31.152-31.336 11.914-.054.021-.04.043-22.803 24.575-33.524-.21h-.058l-.053.025-30.239 14.727-.073.036-.038.071-26.724 50.248-33.272 2.788-24.633-22.74-.043-.039-.056-.017-32.163-9.457-14.755-30.102-.026-.053-.046-.036-26.575-20.437L14.18 332.3l-.005-.058-.03-.05-17.398-28.657 9.376-32.186.017-.056-.01-.058L.26 238.23l20.37-26.626.035-.046.011-.058 6.45-32.897 28.613-17.469.05-.031.032-.049 17.898-28.347 32.992-5.953.057-.011.047-.034 26.93-19.967 32.915 6.366.057.011.057-.015 32.324-8.891 28.392 17.827.05.031.058.006 33.353 3.386 20.036 26.879.234.315.186-.346Z"/><path stroke="url(#ae)" stroke-width=".5" d="m277.216 147.81 23.193-47.924 10.161 31.408.018.056.041.042 23.394 24.012-1.901 33.47-.004.059.023.053 13.14 30.842-13.863 30.523-.025.053.002.059 1.111 33.505-23.954 23.454-.041.041-.02.055-11.068 31.644-30.809 13.218-.054.023-.038.044-21.752 25.509-33.503 1.196-.059.002-.051.028-29.595 15.981-.072.039-.035.073-24.594 51.323-33.125 4.181-25.565-21.687-.045-.038-.057-.014-32.53-8.101-16.005-29.457-.028-.051-.048-.034-27.408-19.305-4.282-33.249-.007-.058-.032-.049-18.584-27.902 8.019-32.551.014-.056-.013-.058-7.249-32.73 19.237-27.456.033-.048.01-.058 5.064-33.139 27.856-18.653.048-.033.03-.051 16.694-29.071 32.713-7.331.057-.013.046-.037 26.069-21.078 33.153 4.981.057.009.056-.018 31.923-10.238 29.115 16.62.051.029.058.004 33.466 1.985 21.144 26.015.248.305.172-.353Z"/><path stroke="url(#af)" stroke-width=".5" d="m216.573 110.265-2.154-53.197 23.774 22.903.042.04.056.018 31.955 10.139 14.111 30.409.025.053.046.037 26.134 20.997 2.173 33.453.004.059.029.05 16.784 29.02-10.058 31.98-.018.055.009.058 5.167 33.123-20.932 26.187-.036.045-.013.058-7.147 32.753-28.979 16.856-.05.03-.033.048-18.557 28.052-.045.067.003.082 2.524 56.855-27.238 19.311-32.772-7.065-.057-.012-.056.014-32.507 8.201-28.006-18.426-.049-.032-.058-.007-33.274-4.095-19.46-27.298-.033-.048-.052-.028-29.547-15.837-8.284-32.485-.014-.057-.038-.044-21.831-25.442 4.011-33.283.007-.058-.02-.055-11.165-31.61 15.764-29.586.027-.052.002-.058 1.007-33.509 25.388-21.895.044-.038.023-.054 13.044-30.882 31.583-11.245.055-.019.04-.042 23.32-24.085 33.512.923.059.002.053-.025 30.446-14.034 30.915 12.966.363.152-.016-.393Z"/><path stroke="url(#ag)" stroke-width=".5" d="m200.38 106.1-8.195-52.606 26.227 20.048.046.035.058.011 32.901 6.437 17.481 28.606.03.049.05.032 28.354 17.886 5.967 32.989.01.057.035.047 19.978 26.922-6.354 32.916-.011.057.016.057 8.903 32.32-17.815 28.398-.031.05-.006.058-3.374 33.353-26.871 20.046-.047.035-.026.052-15.245 29.981-.037.072.013.08 8.978 56.199-24.862 22.285-33.363-3.289-.059-.005-.054.02-31.362 11.848-29.922-15.119-.052-.026-.058-.001-33.524-.281-22.44-24.907-.039-.043-.054-.022-31.159-12.372-11.926-31.331-.021-.054-.043-.04-24.585-22.792.197-33.523v-.059l-.025-.052-14.691-30.134 12.294-31.188.021-.055-.005-.058-2.813-33.406 22.73-24.641.04-.043.017-.056 9.445-32.166 30.097-14.767.053-.025.035-.047 20.427-26.582 33.4-2.897.058-.005.05-.03 28.65-17.409 32.191 9.364.377.11-.06-.389Z"/><path stroke="url(#ah)" stroke-width=".5" d="m193.97 104.984-10.52-52.192 27.09 18.865.048.034.058.009 33.154 4.97 18.732 27.803.033.048.051.029 29.119 16.612 7.424 32.692.013.057.037.045 21.152 26.009-4.887 33.165-.009.058.018.056 10.328 31.893-16.538 29.161-.029.051-.003.058-1.891 33.47-25.956 21.218-.046.037-.024.053-13.9 30.627-.033.074.016.08 11.462 55.745-23.85 23.366-33.476-1.806-.058-.003-.054.023-30.805 13.226-30.563-13.777-.054-.024-.058.002-33.503 1.206-23.522-23.887-.042-.042-.055-.019-31.676-10.978-13.305-30.771-.023-.054-.044-.037-25.572-21.68-1.29-33.499-.002-.058-.028-.051-16.013-29.453 10.899-31.703.019-.055-.008-.058-4.292-33.248 21.616-25.625.038-.045.014-.057 8.009-32.553 29.413-16.087.05-.028.034-.048 19.228-27.461 33.238-4.376.058-.008.049-.032 27.85-18.662 32.574 7.927.382.093-.077-.385Z"/><path stroke="url(#ai)" stroke-width=".5" d="m174.713 103.354-17.29-50.356 29.335 15.14.052.027.059.001 33.52.57 22.225 25.098.038.044.055.022 31.05 12.639 11.658 31.432.02.055.042.04 24.388 23.002-.484 33.521-.001.058.025.053 14.431 30.259-12.561 31.081-.022.055.005.058 2.526 33.428-22.942 24.446-.04.042-.017.056-9.753 32.189-.023.078.027.077 18.69 53.755-20.57 26.298-33.423 2.61-.059.005-.05.03-28.799 17.161-32.109-9.64-.056-.016-.058.009-33.054 5.6-26.458-20.587-.046-.036-.057-.012-32.845-6.719-17.234-28.755-.03-.05-.05-.031-28.2-18.13-5.682-33.039-.01-.057-.035-.047-19.746-27.092 6.636-32.861.012-.057-.015-.057-8.625-32.395 18.058-28.244.032-.05.006-.058 3.66-33.323 27.043-19.814.047-.034.027-.052 15.45-29.751 32.375-8.707.056-.016.044-.038 25.155-22.161 33.334 3.575.391.042-.128-.371Z"/><path stroke="url(#aj)" stroke-width=".5" d="m168.964 103.361-19.251-49.639 29.906 13.98.053.024.059-.001 33.516-.745 23.192 24.208.04.042.055.02 31.523 11.413 12.88 30.951.022.053.045.039 25.27 22.029.83 33.513.001.059.027.052 15.607 29.669-11.334 31.55-.019.056.006.058 3.835 33.303-21.966 25.326-.038.044-.015.057-8.484 32.546-.02.079.029.076 20.784 52.981-19.524 27.084-33.295 3.918-.058.007-.049.032-28.105 18.277-32.462-8.374-.056-.015-.058.012-32.809 6.891-27.245-19.534-.047-.035-.058-.009-33.083-5.426-18.348-28.057-.032-.049-.05-.03-28.889-17.01-6.973-32.791-.013-.057-.036-.046-20.792-26.297 5.343-33.096.009-.057-.017-.056-9.89-32.032 16.939-28.931.03-.05.004-.059 2.35-33.441 26.246-20.858.045-.037.025-.053 14.273-30.334 32.008-9.969.056-.017.042-.04 24.268-23.13 33.448 2.266.392.027-.142-.367Z"/><path stroke="url(#ak)" stroke-width=".5" d="m152.533 104.627-24.698-47.166 31.286 10.535.055.019.058-.008 33.222-4.5 25.761 21.454.044.038.057.013 32.604 7.805 16.271 29.31.028.052.049.033 27.582 19.055 4.584 33.209.008.058.033.048 18.836 27.732-7.723 32.622-.013.057.013.057 7.546 32.664-18.986 27.629-.033.049-.008.058-4.779 33.292-.012.081.038.071 26.596 50.316-16.362 29.103-32.646 7.628-.057.014-.045.037-25.876 21.314-33.197-4.679-.058-.008-.055.018-31.829 10.527-29.265-16.355-.051-.028-.058-.003-33.483-1.681-21.38-25.822-.037-.045-.054-.024-30.614-13.662-10.608-31.802-.019-.055-.04-.042-23.612-23.798 1.596-33.486.003-.058-.023-.054-13.42-30.721 13.586-30.648.023-.053-.002-.059-1.416-33.494 23.74-23.67.042-.042.018-.055 10.78-31.743 30.688-13.497.053-.024.038-.045 21.519-25.706 33.492-1.499.392-.018-.182-.348Z"/><path stroke="url(#al)" stroke-width=".5" d="m143.719 106.082-27.523-45.576 31.869 8.612.056.015.057-.011 32.886-6.514 27.019 19.846.048.034.057.01 33.019 5.806 18.025 28.265.031.05.05.03 28.692 17.34 6.597 32.869.011.057.036.046 20.49 26.534-5.722 33.032-.01.058.016.056 9.521 32.143-17.269 28.735-.03.05-.004.058-2.744 33.522-.006.081.042.069 29.61 48.603-14.561 30.046-32.12 9.601-.056.017-.043.04-24.531 22.85-33.42-2.65-.058-.005-.054.022-31.129 12.446-30.206-14.543-.053-.026-.058.001-33.523.36-22.913-24.472-.039-.043-.055-.02-31.39-11.774-12.524-31.096-.022-.054-.043-.039-25.017-22.317-.445-33.521v-.059l-.028-.052-15.265-29.847 11.695-31.418.02-.055-.006-.058-3.452-33.345 22.255-25.073.039-.043.015-.057 8.827-32.341 29.81-15.339.051-.027.035-.047 19.914-26.969 33.338-3.536.391-.041-.203-.336Z"/><path stroke="url(#am)" stroke-width=".5" d="m136.032 107.808-29.931-44.032 32.285 6.889.057.012.057-.015 32.489-8.27 28.046 18.366.049.032.058.007 33.282 4.025 19.517 27.257.034.047.052.028 29.581 15.775 8.353 32.466.014.057.038.044 21.885 25.396-3.94 33.291-.007.058.02.055 11.233 31.586-15.701 29.62-.028.052-.001.059-.939 33.62-.003.082.046.067 32.177 46.943-12.926 30.784-31.558 11.312-.056.02-.04.042-23.269 24.134-33.514-.852-.058-.001-.053.024-30.416 14.099-30.943-12.9-.054-.022-.058.003-33.456 2.16-24.193-23.207-.042-.04-.056-.018-31.976-10.071-14.177-30.379-.024-.053-.046-.036-26.179-20.942-2.244-33.449-.004-.058-.03-.051-16.845-28.984 9.99-32.001.018-.055-.01-.058-5.237-33.112 20.877-26.231.036-.046.012-.057 7.078-32.768 28.943-16.919.05-.029.032-.049 18.438-27.999 33.1-5.32.388-.063-.221-.325Z"/><path stroke="url(#an)" stroke-width=".5" d="M129.306 109.68 97.314 67.122l32.576 5.344.058.01.056-.017 32.058-9.807 28.888 17.011.051.03.058.004 33.436 2.436 20.792 26.297.037.046.052.025 30.299 14.35 9.888 32.032.017.056.04.043 23.069 24.325-2.352 33.441-.004.059.022.054 12.723 31.016-14.273 30.333-.025.053.001.058.662 33.628.001.081.049.065 34.374 45.359-11.446 31.364-30.985 12.801-.054.022-.038.044-22.094 25.214-33.517.744-.058.001-.052.027-29.71 15.531-31.522-11.414-.055-.02-.058.007-33.315 3.749-25.27-22.029-.044-.039-.057-.014-32.42-8.539-15.605-29.67-.027-.052-.047-.034-27.146-19.672-3.833-33.304-.007-.058-.032-.049-18.206-28.15 8.457-32.44.015-.057-.012-.057-6.807-32.825 19.604-27.195.034-.047.01-.058 5.51-33.068 28.105-18.276.05-.032.029-.05 17.084-28.844 32.81-6.89.384-.081-.236-.314Z"/><path stroke="url(#ao)" stroke-width=".5" d="m121.603 112.258-34.3-40.721 32.823 3.532.058.007.055-.02 31.466-11.567 29.786 15.386.052.026.058.002 33.52.58 22.216 25.107.039.044.054.022 31.046 12.65 11.646 31.436.021.055.042.04 24.38 23.011-.497 33.52v.058l.025.053 14.421 30.264-12.573 31.077-.022.055.005.058 2.522 33.539.006.081.053.062 36.832 43.386-9.692 31.95-30.228 14.497-.053.025-.036.046-20.664 26.398-33.424 2.599-.058.004-.051.03-28.805 17.152-32.105-9.651-.056-.017-.058.01-33.056 5.588-26.451-20.597-.046-.036-.057-.012-32.843-6.73-17.224-28.761-.03-.05-.05-.032-28.192-18.139-5.672-33.041-.01-.057-.034-.048-19.736-27.099 6.647-32.858.012-.057-.015-.057-8.615-32.398 18.07-28.238.03-.049.007-.058 3.672-33.322 27.05-19.804.047-.035.026-.052L89.1 121.356l32.377-8.695.38-.102-.253-.301Z"/><path stroke="url(#ap)" stroke-width=".5" d="m106.692 118.671-38.59-36.683 33.013-.115h.058l.053-.027 29.995-14.972 31.303 12 .055.022.058-.006 33.379-3.126 24.854 22.498.043.04.057.015 32.254 9.143 15.048 29.957.026.052.047.035 26.773 20.176 3.21 33.37.006.058.031.05 17.676 28.485-9.061 32.276-.016.057.011.057 6.213 33.055.015.08.059.056 41.4 39.051-6.102 32.825-28.442 17.748-.049.031-.031.05-17.621 28.519-32.932 6.276-.057.011-.047.035-26.734 20.229-32.975-6.045-.057-.01-.057.016-32.236 9.206-28.565-17.548-.05-.031-.058-.005-33.385-3.061-20.296-26.681-.036-.047-.052-.026-30.025-14.913-9.287-32.212-.017-.056-.039-.043-22.61-24.753 2.976-33.391.006-.058-.022-.055-12.14-31.248 14.837-30.062.026-.052v-.058l-.033-33.524 24.696-22.672.043-.039.021-.055 12.08-31.272 31.218-12.219.366-.144-.284-.27Z"/><path stroke="url(#aq)" stroke-width=".5" d="M99.415 122.547 58.826 88.091l32.954-1.97.058-.004.05-.029 29.107-16.634 31.929 10.223.055.018.058-.009 33.15-4.997 26.079 21.066.046.037.057.013 32.717 7.316 16.708 29.064.029.05.048.033 27.865 18.64 5.08 33.137.009.057.034.048 19.249 27.447-7.233 32.735-.013.057.014.056 8.06 32.654.02.079.062.052 43.53 36.664-4.249 33.116-27.399 19.317-.048.034-.028.052-15.99 29.464-32.528 8.116-.056.014-.045.038-25.555 21.699-33.262-4.182-.058-.007-.056.019-31.667 11.003-29.506-15.916-.052-.027-.058-.002-33.504-1.18-21.764-25.499-.038-.045-.054-.023-30.816-13.202-11.082-31.639-.02-.056-.041-.04-23.965-23.443 1.095-33.506.002-.059-.024-.053-13.878-30.516 13.125-30.848.023-.054-.003-.058-1.917-33.469 23.383-24.024.04-.042.019-.055 10.303-31.901 30.483-13.955.357-.163-.3-.255Z"/><path stroke="url(#ar)" stroke-width=".5" d="M92.927 126.467 50.612 94.154l32.808-3.67.058-.007.05-.031 28.208-18.116 32.414 8.56.056.015.057-.012 32.848-6.702 27.133 19.69.047.035.058.01L237.4 99.54l18.187 28.162.032.049.05.03 28.79 17.176 6.786 32.83.012.057.036.046 20.641 26.416-5.533 33.064-.009.058.017.056 9.736 32.194.024.078.065.049 45.365 34.365-2.532 33.292-26.364 20.707-.046.036-.025.053-14.447 30.251-32.065 9.786-.056.017-.042.04-24.4 22.99-33.434-2.458-.059-.004-.054.022-31.057 12.624-30.289-14.37-.053-.025-.058.001-33.52.553-23.053-24.341-.04-.043-.055-.02-31.456-11.593-12.703-31.024-.022-.054-.044-.039-25.144-22.173-.637-33.518-.001-.059-.027-.052-15.436-29.758 11.514-31.485.02-.055-.006-.058-3.643-33.325 22.11-25.2.039-.044.015-.056 8.642-32.391 29.72-15.511.349-.181-.313-.239Z"/><path stroke="url(#as)" stroke-width=".5" d="m87.197 130.329-43.79-30.285 32.598-5.21.058-.01.048-.034 27.324-19.424 32.781 7.024.057.012.056-.014 32.496-8.242 28.03 18.39.049.033.058.007 33.279 4.053 19.493 27.274.034.048.052.027 29.567 15.801 8.324 32.474.015.057.038.044 21.863 25.414-3.97 33.289-.006.058.019.055 11.242 31.699.027.077.067.046 46.934 32.191-.961 33.373-25.36 21.926-.044.039-.023.053-13.006 30.899-31.568 11.285-.055.019-.041.042-23.289 24.114-33.514-.881-.058-.001-.053.024-30.428 14.073-30.932-12.927-.054-.023-.058.004-33.457 2.13-24.174-23.228-.042-.04-.055-.018L84.8 385.947l-14.15-30.391-.024-.053-.046-.037-26.16-20.964-2.216-33.451-.004-.058-.029-.051-16.82-28.999 10.018-31.992.018-.056-.01-.057-5.208-33.117 20.9-26.213.036-.045.012-.057 7.107-32.762 28.957-16.893.34-.198-.324-.224Z"/><path stroke="url(#at)" stroke-width=".5" d="m74.277 140.625-46.918-25.168 31.806-8.844.056-.016.044-.039L84.23 84.185l33.363 3.293.058.006.054-.021 31.363-11.844 29.921 15.122.052.026.058.001 33.524.285 22.437 24.909.039.044.054.021 31.157 12.376 11.923 31.332.021.055.043.039 24.582 22.795-.201 33.523v.059l.026.052 14.735 30.235.036.073.072.038 50.256 26.709 2.798 33.27-22.733 24.639-.04.043-.017.056-9.448 32.164-30.099 14.764-.053.025-.035.047-20.43 26.579-33.4 2.894-.058.005-.05.03-28.653 17.405-32.189-9.367-.056-.016-.058.01-33.005 5.88-26.632-20.363-.047-.035-.057-.012-32.9-6.44-17.478-28.607-.03-.05-.05-.031-28.352-17.89-5.963-32.99-.01-.057-.035-.047-19.975-26.924 6.357-32.915.011-.058-.015-.056-8.9-32.321 17.818-28.396.031-.05.006-.058 3.377-33.353 26.874-20.042.315-.235-.346-.186Z"/><path stroke="url(#au)" stroke-width=".5" d="m65.403 149.252-48.872-21.123 30.946-11.494.055-.02.04-.043 22.991-24.398 33.522.469h.058l.053-.025 30.253-14.445 31.088 12.546.055.022.058-.005 33.428-2.542 24.457 22.929.043.04.056.017 32.089 9.705 14.523 30.215.025.053.046.036 26.416 20.641 2.627 33.421.004.058.03.051 17.232 28.884.042.07.075.032 52.329 22.377 5.593 32.916-20.575 26.467-.036.046-.012.058-6.703 32.846-28.748 17.248-.05.03-.031.05-18.117 28.207-33.037 5.699-.057.01-.047.034-27.083 19.759-32.865-6.62-.057-.012-.057.015-32.392 8.641-28.254-18.045-.049-.031-.058-.006-33.326-3.644-19.828-27.032-.034-.047-.052-.027-29.76-15.436-8.723-32.37-.015-.056-.039-.044-22.173-25.144 3.56-33.334.006-.058-.02-.055-11.594-31.456 15.362-29.797.026-.052.001-.058.553-33.52 25.089-22.236.294-.261-.36-.156Z"/><path stroke="url(#av)" stroke-width=".5" d="m59.02 156.465-50.153-17.87 30.125-13.5.054-.024.037-.045 21.34-25.855 33.48-1.733.059-.002.05-.03 29.24-16.4 31.845 10.48.055.017.058-.008 33.19-4.73 25.909 21.274.045.037.057.013 32.657 7.578 16.475 29.197.028.051.049.033 27.714 18.863 4.815 33.176.008.058.033.048 19.091 27.691.046.067.077.027 53.685 18.894 7.741 32.477-18.793 27.761-.033.049-.008.058-4.532 33.216-27.553 19.097-.049.034-.028.051-16.226 29.336-32.591 7.855-.057.013-.045.038-25.728 21.493-33.228-4.448-.058-.008-.055.019-31.755 10.748-29.378-16.151-.051-.028-.058-.003-33.494-1.448-21.559-25.673-.037-.045-.054-.023-30.709-13.45-10.828-31.726-.02-.056-.04-.041-23.777-23.634 1.364-33.496.002-.059-.024-.053-13.632-30.627 13.372-30.741.023-.054-.003-.058-1.648-33.484 23.575-23.835.276-.279-.37-.132Z"/><path stroke="url(#aw)" stroke-width=".5" d="m53.167 164.024-51.21-14.565 29.181-15.434.052-.027.034-.048 19.61-27.19 33.297-3.909.058-.007.049-.032 28.109-18.27 32.46 8.382.056.014.057-.011 32.811-6.883 27.24 19.542.048.034.058.009 33.081 5.435 18.341 28.062.032.048.051.03 28.884 17.018 6.965 32.792.012.057.036.046 20.855 26.389.05.064.078.022 54.802 15.357 9.841 31.904-16.945 28.926-.03.051-.004.058-2.359 33.441-26.251 20.851-.046.037-.025.053-14.28 30.33-32.011 9.961-.056.018-.042.04-24.273 23.124-33.447-2.275-.059-.004-.054.022-30.987 12.794-30.367-14.203-.053-.025-.059.001-33.517.737-23.185-24.214-.04-.043-.055-.019-31.52-11.421-12.872-30.954-.023-.054-.044-.039-25.265-22.035-.821-33.514-.002-.058-.027-.052-15.599-29.674 11.342-31.547.02-.055-.007-.058-3.826-33.305 21.972-25.32.258-.297-.379-.107Z"/><path stroke="url(#ax)" stroke-width=".5" d="m48.758 170.472-51.914-11.818 28.319-16.965.05-.03.031-.049 18.136-28.196 33.04-5.677.058-.01.047-.034 27.096-19.74 32.861 6.641.057.012.056-.015 32.398-8.62 28.242 18.064.049.031.059.007 33.323 3.665 19.81 27.046.034.047.052.027 29.749 15.456 8.702 32.375.015.056.039.044 22.229 25.241.054.061.079.018 55.542 12.417 11.526 31.336-15.382 29.787-.026.052-.001.058-.576 33.519-25.103 22.22-.044.039-.022.054-12.645 31.047-31.435 11.652-.055.02-.04.043-23.007 24.383-33.521-.491-.059-.001-.053.025-30.262 14.426-31.08-12.567-.054-.022-.059.005-33.43 2.52-24.442-22.946-.042-.04-.056-.017-32.083-9.726-14.502-30.225-.026-.053-.046-.036-26.402-20.658-2.605-33.423-.004-.058-.03-.05-17.157-28.802 9.646-32.106.017-.056-.01-.058-5.594-33.053L48.9 170.87l.241-.311-.383-.087Z"/><path stroke="url(#ay)" stroke-width=".5" d="m43.842 178.665-52.573-8.414 27.154-18.773.048-.033.028-.051 16.261-29.316 32.601-7.816.057-.014.045-.037 25.754-21.463 33.222 4.488.058.008.056-.019 31.768-10.71 29.358 16.186.051.029.058.002 33.492 1.489 21.528 25.698.038.045.053.023 30.693 13.486 10.791 31.74.019.056.041.041 23.826 23.74.057.057.081.013 56.232 8.775 13.541 30.519-13.409 30.725-.023.054.003.058 1.608 33.485-23.603 23.807-.042.042-.018.055-10.597 31.805-30.61 13.673-.053.024-.037.045-21.371 25.83-33.482 1.692-.059.003-.051.029-29.259 16.365-31.832-10.517-.056-.018-.058.008-33.195 4.691-25.883-21.305-.046-.037-.057-.013-32.648-7.617-16.439-29.217-.029-.051-.048-.033-27.692-18.896-4.775-33.182-.008-.058-.033-.048-18.995-27.623 7.534-32.666.013-.057-.013-.057-7.734-32.62 18.827-27.738.22-.325-.388-.062Z"/><defs><linearGradient id="a" x1="149.754" x2="194.242" y1="98.831" y2="401.171" gradientUnits="userSpaceOnUse"><stop stop-color="#15B0DB" stop-opacity="0"/><stop offset="1" stop-color="#15B0DB"/></linearGradient><linearGradient id="b" x1="139.761" x2="204.234" y1="100.642" y2="399.359" gradientUnits="userSpaceOnUse"><stop stop-color="#15B0DB" stop-opacity="0"/><stop offset="1" stop-color="#15B0DB"/></linearGradient><linearGradient id="c" x1="131.845" x2="212.151" y1="102.572" y2="397.428" gradientUnits="userSpaceOnUse"><stop stop-color="#15B0DB" stop-opacity="0"/><stop offset="1" stop-color="#15B0DB"/></linearGradient><linearGradient id="d" x1="124.998" x2="218.996" y1="104.61" y2="395.391" gradientUnits="userSpaceOnUse"><stop stop-color="#15B0DB" stop-opacity="0"/><stop offset="1" stop-color="#15B0DB"/></linearGradient><linearGradient id="e" x1="117.121" x2="226.872" y1="107.394" y2="392.603" gradientUnits="userSpaceOnUse"><stop stop-color="#15B0DB" stop-opacity="0"/><stop offset="1" stop-color="#15B0DB"/></linearGradient><linearGradient id="f" x1="110.02" x2="233.975" y1="110.335" y2="389.663" gradientUnits="userSpaceOnUse"><stop stop-color="#15B0DB" stop-opacity="0"/><stop offset="1" stop-color="#15B0DB"/></linearGradient><linearGradient id="g" x1="103.1" x2="240.895" y1="113.615" y2="386.383" gradientUnits="userSpaceOnUse"><stop stop-color="#15B0DB" stop-opacity="0"/><stop offset="1" stop-color="#15B0DB"/></linearGradient><linearGradient id="h" x1="97.32" x2="246.674" y1="116.692" y2="383.306" gradientUnits="userSpaceOnUse"><stop stop-color="#15B0DB" stop-opacity="0"/><stop offset="1" stop-color="#15B0DB"/></linearGradient><linearGradient id="i" x1="92.247" x2="251.747" y1="119.663" y2="380.335" gradientUnits="userSpaceOnUse"><stop stop-color="#15B0DB" stop-opacity="0"/><stop offset="1" stop-color="#15B0DB"/></linearGradient><linearGradient id="j" x1="86.755" x2="257.239" y1="123.186" y2="376.811" gradientUnits="userSpaceOnUse"><stop stop-color="#15B0DB" stop-opacity="0"/><stop offset="1" stop-color="#15B0DB"/></linearGradient><linearGradient id="k" x1="81.133" x2="262.859" y1="127.152" y2="372.848" gradientUnits="userSpaceOnUse"><stop stop-color="#15B0DB" stop-opacity="0"/><stop offset="1" stop-color="#15B0DB"/></linearGradient><linearGradient id="l" x1="75.616" x2="268.377" y1="131.43" y2="368.567" gradientUnits="userSpaceOnUse"><stop stop-color="#15B0DB" stop-opacity="0"/><stop offset="1" stop-color="#15B0DB"/></linearGradient><linearGradient id="m" x1="69.835" x2="274.158" y1="136.374" y2="363.625" gradientUnits="userSpaceOnUse"><stop stop-color="#15B0DB" stop-opacity="0"/><stop offset="1" stop-color="#15B0DB"/></linearGradient><linearGradient id="n" x1="65.248" x2="278.745" y1="140.673" y2="359.328" gradientUnits="userSpaceOnUse"><stop stop-color="#15B0DB" stop-opacity="0"/><stop offset="1" stop-color="#15B0DB"/></linearGradient><linearGradient id="o" x1="61.276" x2="282.716" y1="144.696" y2="355.304" gradientUnits="userSpaceOnUse"><stop stop-color="#15B0DB" stop-opacity="0"/><stop offset="1" stop-color="#15B0DB"/></linearGradient><linearGradient id="p" x1="55.985" x2="288.008" y1="150.556" y2="349.445" gradientUnits="userSpaceOnUse"><stop stop-color="#15B0DB" stop-opacity="0"/><stop offset="1" stop-color="#15B0DB"/></linearGradient><linearGradient id="q" x1="50.175" x2="293.818" y1="157.764" y2="342.237" gradientUnits="userSpaceOnUse"><stop stop-color="#15B0DB" stop-opacity="0"/><stop offset="1" stop-color="#15B0DB"/></linearGradient><linearGradient id="r" x1="47.056" x2="296.937" y1="162.037" y2="337.967" gradientUnits="userSpaceOnUse"><stop stop-color="#15B0DB" stop-opacity="0"/><stop offset="1" stop-color="#15B0DB"/></linearGradient><linearGradient id="s" x1="38.16" x2="305.835" y1="176.276" y2="323.731" gradientUnits="userSpaceOnUse"><stop stop-color="#15B0DB" stop-opacity="0"/><stop offset="1" stop-color="#15B0DB"/></linearGradient><linearGradient id="t" x1="33.949" x2="310.047" y1="184.5" y2="315.507" gradientUnits="userSpaceOnUse"><stop stop-color="#15B0DB" stop-opacity="0"/><stop offset="1" stop-color="#15B0DB"/></linearGradient><linearGradient id="u" x1="30.829" x2="313.167" y1="191.526" y2="308.482" gradientUnits="userSpaceOnUse"><stop stop-color="#15B0DB" stop-opacity="0"/><stop offset="1" stop-color="#15B0DB"/></linearGradient><linearGradient id="v" x1="27.471" x2="316.525" y1="200.401" y2="299.603" gradientUnits="userSpaceOnUse"><stop stop-color="#15B0DB" stop-opacity="0"/><stop offset="1" stop-color="#15B0DB"/></linearGradient><linearGradient id="w" x1="24.63" x2="319.369" y1="209.621" y2="290.384" gradientUnits="userSpaceOnUse"><stop stop-color="#15B0DB" stop-opacity="0"/><stop offset="1" stop-color="#15B0DB"/></linearGradient><linearGradient id="x" x1="22.757" x2="321.243" y1="217.215" y2="282.788" gradientUnits="userSpaceOnUse"><stop stop-color="#15B0DB" stop-opacity="0"/><stop offset="1" stop-color="#15B0DB"/></linearGradient><linearGradient id="y" x1="21.39" x2="322.61" y1="224.213" y2="275.792" gradientUnits="userSpaceOnUse"><stop stop-color="#15B0DB" stop-opacity="0"/><stop offset="1" stop-color="#15B0DB"/></linearGradient><linearGradient id="z" x1="20.282" x2="323.718" y1="231.832" y2="268.173" gradientUnits="userSpaceOnUse"><stop stop-color="#15B0DB" stop-opacity="0"/><stop offset="1" stop-color="#15B0DB"/></linearGradient><linearGradient id="A" x1="19.576" x2="324.423" y1="239.249" y2="260.752" gradientUnits="userSpaceOnUse"><stop stop-color="#15B0DB" stop-opacity="0"/><stop offset="1" stop-color="#15B0DB"/></linearGradient><linearGradient id="B" x1="19.242" x2="324.757" y1="246.315" y2="253.687" gradientUnits="userSpaceOnUse"><stop stop-color="#15B0DB" stop-opacity="0"/><stop offset="1" stop-color="#15B0DB"/></linearGradient><linearGradient id="C" x1="19.287" x2="324.712" y1="255.239" y2="244.761" gradientUnits="userSpaceOnUse"><stop stop-color="#15B0DB" stop-opacity="0"/><stop offset="1" stop-color="#15B0DB"/></linearGradient><linearGradient id="D" x1="19.637" x2="324.364" y1="261.57" y2="238.43" gradientUnits="userSpaceOnUse"><stop stop-color="#15B0DB" stop-opacity="0"/><stop offset="1" stop-color="#15B0DB"/></linearGradient><linearGradient id="E" x1="20.527" x2="323.473" y1="270.108" y2="229.889" gradientUnits="userSpaceOnUse"><stop stop-color="#15B0DB" stop-opacity="0"/><stop offset="1" stop-color="#15B0DB"/></linearGradient><linearGradient id="F" x1="22.108" x2="321.89" y1="279.681" y2="220.315" gradientUnits="userSpaceOnUse"><stop stop-color="#15B0DB" stop-opacity="0"/><stop offset="1" stop-color="#15B0DB"/></linearGradient><linearGradient id="G" x1="24.13" x2="319.868" y1="288.511" y2="211.487" gradientUnits="userSpaceOnUse"><stop stop-color="#15B0DB" stop-opacity="0"/><stop offset="1" stop-color="#15B0DB"/></linearGradient><linearGradient id="H" x1="45.134" x2="298.861" y1="335.165" y2="164.827" gradientUnits="userSpaceOnUse"><stop stop-color="#15B0DB" stop-opacity="0"/><stop offset="1" stop-color="#15B0DB"/></linearGradient><linearGradient id="I" x1="50.582" x2="293.412" y1="342.768" y2="157.225" gradientUnits="userSpaceOnUse"><stop stop-color="#15B0DB" stop-opacity="0"/><stop offset="1" stop-color="#15B0DB"/></linearGradient><linearGradient id="J" x1="55.608" x2="288.386" y1="348.999" y2="150.994" gradientUnits="userSpaceOnUse"><stop stop-color="#15B0DB" stop-opacity="0"/><stop offset="1" stop-color="#15B0DB"/></linearGradient><linearGradient id="K" x1="61.254" x2="282.739" y1="355.277" y2="144.716" gradientUnits="userSpaceOnUse"><stop stop-color="#15B0DB" stop-opacity="0"/><stop offset="1" stop-color="#15B0DB"/></linearGradient><linearGradient id="L" x1="66.71" x2="277.282" y1="360.733" y2="139.26" gradientUnits="userSpaceOnUse"><stop stop-color="#15B0DB" stop-opacity="0"/><stop offset="1" stop-color="#15B0DB"/></linearGradient><linearGradient id="M" x1="73.451" x2="270.543" y1="366.772" y2="133.223" gradientUnits="userSpaceOnUse"><stop stop-color="#15B0DB" stop-opacity="0"/><stop offset="1" stop-color="#15B0DB"/></linearGradient><linearGradient id="N" x1="79.727" x2="264.266" y1="371.793" y2="128.204" gradientUnits="userSpaceOnUse"><stop stop-color="#15B0DB" stop-opacity="0"/><stop offset="1" stop-color="#15B0DB"/></linearGradient><linearGradient id="O" x1="86.559" x2="257.435" y1="376.677" y2="123.317" gradientUnits="userSpaceOnUse"><stop stop-color="#15B0DB" stop-opacity="0"/><stop offset="1" stop-color="#15B0DB"/></linearGradient><linearGradient id="P" x1="93.579" x2="250.414" y1="381.141" y2="118.857" gradientUnits="userSpaceOnUse"><stop stop-color="#15B0DB" stop-opacity="0"/><stop offset="1" stop-color="#15B0DB"/></linearGradient><linearGradient id="Q" x1="100.286" x2="243.709" y1="384.924" y2="115.073" gradientUnits="userSpaceOnUse"><stop stop-color="#15B0DB" stop-opacity="0"/><stop offset="1" stop-color="#15B0DB"/></linearGradient><linearGradient id="R" x1="107.649" x2="236.345" y1="388.586" y2="111.409" gradientUnits="userSpaceOnUse"><stop stop-color="#15B0DB" stop-opacity="0"/><stop offset="1" stop-color="#15B0DB"/></linearGradient><linearGradient id="S" x1="114.986" x2="229.01" y1="391.763" y2="108.235" gradientUnits="userSpaceOnUse"><stop stop-color="#15B0DB" stop-opacity="0"/><stop offset="1" stop-color="#15B0DB"/></linearGradient><linearGradient id="T" x1="192.943" x2="151.06" y1="401.356" y2="98.644" gradientUnits="userSpaceOnUse"><stop stop-color="#15B0DB" stop-opacity="0"/><stop offset="1" stop-color="#15B0DB"/></linearGradient><linearGradient id="U" x1="200.74" x2="143.264" y1="400.071" y2="99.929" gradientUnits="userSpaceOnUse"><stop stop-color="#15B0DB" stop-opacity="0"/><stop offset="1" stop-color="#15B0DB"/></linearGradient><linearGradient id="V" x1="207.075" x2="136.929" y1="398.717" y2="101.281" gradientUnits="userSpaceOnUse"><stop stop-color="#15B0DB" stop-opacity="0"/><stop offset="1" stop-color="#15B0DB"/></linearGradient><linearGradient id="W" x1="215.115" x2="128.89" y1="396.589" y2="103.41" gradientUnits="userSpaceOnUse"><stop stop-color="#15B0DB" stop-opacity="0"/><stop offset="1" stop-color="#15B0DB"/></linearGradient><linearGradient id="X" x1="223.203" x2="120.804" y1="393.965" y2="106.035" gradientUnits="userSpaceOnUse"><stop stop-color="#15B0DB" stop-opacity="0"/><stop offset="1" stop-color="#15B0DB"/></linearGradient><linearGradient id="Y" x1="233.461" x2="110.545" y1="389.893" y2="110.105" gradientUnits="userSpaceOnUse"><stop stop-color="#15B0DB" stop-opacity="0"/><stop offset="1" stop-color="#15B0DB"/></linearGradient><linearGradient id="Z" x1="242.285" x2="101.722" y1="385.675" y2="114.323" gradientUnits="userSpaceOnUse"><stop stop-color="#15B0DB" stop-opacity="0"/><stop offset="1" stop-color="#15B0DB"/></linearGradient><linearGradient id="aa" x1="251.646" x2="92.361" y1="380.4" y2="119.597" gradientUnits="userSpaceOnUse"><stop stop-color="#15B0DB" stop-opacity="0"/><stop offset="1" stop-color="#15B0DB"/></linearGradient><linearGradient id="ab" x1="258.211" x2="85.797" y1="376.155" y2="123.839" gradientUnits="userSpaceOnUse"><stop stop-color="#15B0DB" stop-opacity="0"/><stop offset="1" stop-color="#15B0DB"/></linearGradient><linearGradient id="ac" x1="274.042" x2="69.965" y1="363.733" y2="136.26" gradientUnits="userSpaceOnUse"><stop stop-color="#15B0DB" stop-opacity="0"/><stop offset="1" stop-color="#15B0DB"/></linearGradient><linearGradient id="ad" x1="279.232" x2="64.776" y1="358.855" y2="141.14" gradientUnits="userSpaceOnUse"><stop stop-color="#15B0DB" stop-opacity="0"/><stop offset="1" stop-color="#15B0DB"/></linearGradient><linearGradient id="ae" x1="283.701" x2="60.306" y1="354.263" y2="145.729" gradientUnits="userSpaceOnUse"><stop stop-color="#15B0DB" stop-opacity="0"/><stop offset="1" stop-color="#15B0DB"/></linearGradient><linearGradient id="af" x1="319.675" x2="24.327" y1="289.251" y2="210.745" gradientUnits="userSpaceOnUse"><stop stop-color="#15B0DB" stop-opacity="0"/><stop offset="1" stop-color="#15B0DB"/></linearGradient><linearGradient id="ag" x1="323.184" x2="20.819" y1="272.189" y2="227.809" gradientUnits="userSpaceOnUse"><stop stop-color="#15B0DB" stop-opacity="0"/><stop offset="1" stop-color="#15B0DB"/></linearGradient><linearGradient id="ah" x1="324.018" x2="19.983" y1="265.463" y2="234.536" gradientUnits="userSpaceOnUse"><stop stop-color="#15B0DB" stop-opacity="0"/><stop offset="1" stop-color="#15B0DB"/></linearGradient><linearGradient id="ai" x1="324.731" x2="19.269" y1="245.344" y2="254.656" gradientUnits="userSpaceOnUse"><stop stop-color="#15B0DB" stop-opacity="0"/><stop offset="1" stop-color="#15B0DB"/></linearGradient><linearGradient id="aj" x1="324.432" x2="19.569" y1="239.363" y2="260.641" gradientUnits="userSpaceOnUse"><stop stop-color="#15B0DB" stop-opacity="0"/><stop offset="1" stop-color="#15B0DB"/></linearGradient><linearGradient id="ak" x1="322.277" x2="21.726" y1="222.33" y2="277.674" gradientUnits="userSpaceOnUse"><stop stop-color="#15B0DB" stop-opacity="0"/><stop offset="1" stop-color="#15B0DB"/></linearGradient><linearGradient id="al" x1="320.314" x2="23.69" y1="213.233" y2="286.772" gradientUnits="userSpaceOnUse"><stop stop-color="#15B0DB" stop-opacity="0"/><stop offset="1" stop-color="#15B0DB"/></linearGradient><linearGradient id="am" x1="318.125" x2="25.878" y1="205.323" y2="294.683" gradientUnits="userSpaceOnUse"><stop stop-color="#15B0DB" stop-opacity="0"/><stop offset="1" stop-color="#15B0DB"/></linearGradient><linearGradient id="an" x1="315.833" x2="28.17" y1="198.42" y2="301.585" gradientUnits="userSpaceOnUse"><stop stop-color="#15B0DB" stop-opacity="0"/><stop offset="1" stop-color="#15B0DB"/></linearGradient><linearGradient id="ao" x1="312.757" x2="31.246" y1="190.536" y2="309.469" gradientUnits="userSpaceOnUse"><stop stop-color="#15B0DB" stop-opacity="0"/><stop offset="1" stop-color="#15B0DB"/></linearGradient><linearGradient id="ap" x1="305.325" x2="38.68" y1="175.349" y2="324.658" gradientUnits="userSpaceOnUse"><stop stop-color="#15B0DB" stop-opacity="0"/><stop offset="1" stop-color="#15B0DB"/></linearGradient><linearGradient id="aq" x1="300.919" x2="43.086" y1="167.975" y2="332.031" gradientUnits="userSpaceOnUse"><stop stop-color="#15B0DB" stop-opacity="0"/><stop offset="1" stop-color="#15B0DB"/></linearGradient><linearGradient id="ar" x1="296.509" x2="47.496" y1="161.425" y2="338.581" gradientUnits="userSpaceOnUse"><stop stop-color="#15B0DB" stop-opacity="0"/><stop offset="1" stop-color="#15B0DB"/></linearGradient><linearGradient id="as" x1="292.199" x2="51.806" y1="155.66" y2="344.348" gradientUnits="userSpaceOnUse"><stop stop-color="#15B0DB" stop-opacity="0"/><stop offset="1" stop-color="#15B0DB"/></linearGradient><linearGradient id="at" x1="280.828" x2="63.179" y1="142.742" y2="357.266" gradientUnits="userSpaceOnUse"><stop stop-color="#15B0DB" stop-opacity="0"/><stop offset="1" stop-color="#15B0DB"/></linearGradient><linearGradient id="au" x1="271.397" x2="72.609" y1="133.949" y2="366.058" gradientUnits="userSpaceOnUse"><stop stop-color="#15B0DB" stop-opacity="0"/><stop offset="1" stop-color="#15B0DB"/></linearGradient><linearGradient id="av" x1="263.566" x2="80.442" y1="127.674" y2="372.33" gradientUnits="userSpaceOnUse"><stop stop-color="#15B0DB" stop-opacity="0"/><stop offset="1" stop-color="#15B0DB"/></linearGradient><linearGradient id="aw" x1="255.403" x2="88.605" y1="121.971" y2="378.034" gradientUnits="userSpaceOnUse"><stop stop-color="#15B0DB" stop-opacity="0"/><stop offset="1" stop-color="#15B0DB"/></linearGradient><linearGradient id="ax" x1="248.468" x2="95.539" y1="117.712" y2="382.292" gradientUnits="userSpaceOnUse"><stop stop-color="#15B0DB" stop-opacity="0"/><stop offset="1" stop-color="#15B0DB"/></linearGradient><linearGradient id="ay" x1="239.693" x2="104.315" y1="113.014" y2="386.989" gradientUnits="userSpaceOnUse"><stop stop-color="#15B0DB" stop-opacity="0"/><stop offset="1" stop-color="#15B0DB"/></linearGradient></defs></svg>